<svg xmlns="http://www.w3.org/2000/svg" width="142.972" height="148.581" viewBox="0 0 142.972 148.581"><path fill="#1E100D" d="M-1111.928-227.87c-1.801-1.971-3.736-2.751-6.681-2.751h-.383c-2.965 0-5.016.806-6.795 2.75-1.757 1.92-2.713 4.499-2.713 7.505v9.362s1.376.05 2.332-.073c.079-.008.151-.018.215-.03.028-.006.055-.013.083-.018.05-.01.096-.02.14-.031.307-.069.587-.159.812-.333.265-.207.456-.468.625-.904.152-.397.252-.911.252-1.541v-6.432s.066-3.096 1.396-5.104c.119-.156.244-.304.371-.44.523-.568 1.199-.953 1.917-1.183l.023-.007c.487-.183 1.02-.176 1.467-.176h.093c.661 0 1.322.105 1.97.402.429.186.832.419 1.197.758a4.746 4.746 0 0 1 1.431 2.345c.008.024.008.046.013.071.004.015-.003-.004.001.012.228.768.378 1.988.378 3.428V-213.934c0 .63.098 1.144.251 1.541.168.436.36.697.624.904.226.175.506.265.812.333.044.011.091.021.14.031.028.005.055.012.083.018.064.013.138.022.215.03.956.123 2.333.073 2.333.073v-9.362c-.002-3.067-.902-5.646-2.602-7.504zM-756.206-229.348c-1.827-1.996-3.952-3.056-7.375-3.056h-.415c-3.426 0-5.556 1.061-7.383 3.056-1.826 1.996-2.895 4.783-2.895 8.236v10.108h1.612c.534 0 1.031.107 1.478.019.445-.089.847-.183 1.188-.45.343-.267.493-.595.672-1.057.176-.459.176-1.012.176-1.723v-6.782c0-1.416.288-2.604.573-3.567.282-.962.759-1.788 1.282-2.354.523-.566 1.189-1.026 1.926-1.25h.022c.498-.223 1.029-.22 1.581-.22.721 0 1.402.18 2.017.46.45.196.862.477 1.223.811a4.895 4.895 0 0 1 1.472 2.413c.016.042.028.086.042.129.282.963.564 2.163.564 3.578v6.782c0 .711.006 1.275.185 1.735s.337.8.679 1.068c.342.267.743.338 1.189.427.443.089.943-.019 1.477-.019h1.597v-10.108c0-3.452-1.063-6.24-2.887-8.236zM-806.447-3.929c.92.979 1.641 2.113 2.159 3.403.519 1.291.78 2.692.78 4.206 0 1.483-.239 2.87-.713 4.16-.475 1.291-1.143 2.425-2.003 3.404s-1.913 1.751-3.159 2.313c-1.246.563-2.625.847-4.139.847-1.396 0-2.692-.283-3.895-.847-1.202-.563-2.262-1.334-3.182-2.313s-1.638-2.113-2.156-3.404c-.521-1.29-.78-2.677-.78-4.16 0-1.514.236-2.915.713-4.206a10.622 10.622 0 0 1 2.003-3.403c.857-.95 1.912-1.714 3.159-2.292 1.246-.578 2.625-.868 4.138-.868 1.395 0 2.698.29 3.916.868a10.4 10.4 0 0 1 3.159 2.292zm-7.655 14.462c.386.03.848-.021 1.381-.156.534-.133 1.061-.43 1.581-.889.519-.461.977-1.128 1.379-2.004.398-.874.673-2.023.823-3.448.117-1.423.05-2.603-.202-3.538-.251-.934-.593-1.668-1.023-2.202-.43-.534-.896-.912-1.401-1.135-.503-.223-.948-.348-1.335-.379-.386-.028-.853.023-1.401.156-.55.135-1.076.423-1.578.867-.506.446-.967 1.106-1.382 1.98-.414.876-.682 2.026-.801 3.449-.147 1.425-.096 2.604.156 3.538.251.935.593 1.675 1.023 2.225.43.55.904.935 1.425 1.157.519.223.972.35 1.355.379zM-826.029-12.981c-.177-.459-.27-.823-.609-1.09a2.67 2.67 0 0 0-1.147-.534s-2.954-.573-3.227 2.628l.625 17.832c0 .772-.36 1.871-.643 2.419-.283.55-.763.985-1.444 1.342-.681.354-1.585.492-2.713.655-1.127.163-2.76.089-4.449.089h-1.368c-.218 0-1.016.196-1.042 1.217 0 .226.039.403.094.586.147.416.433.904.863 1.289.43.386 1.114.649 2.063.769 1.572.178 3.146.204 4.75.071 1.602-.134 3.021-.479 4.312-1.042 1.291-.563 2.164-1.379 2.98-2.446.816-1.068.992-2.431.992-4.093v-17.934c-.001-.712.141-1.298-.037-1.758zM-782.581-1.501c-.608-1.408-1.274-2.551-2.238-3.427-.964-.873-2.009-1.496-3.195-1.868-1.187-.371-2.345-.511-3.504-.423-.771.06-1.445.216-2.023.468-.578.253-1.213.496-1.627.735-.475.326-.951.651-1.397.978v-6.186c0-.711.065-1.297-.111-1.758 0 0-.616-1.459-2.078-1.542-1.464-.083-2.454 1.071-2.711 2.047-.256.975-.129 3.389-.129 3.389l.64 19.934c0 .713.13 1.298.306 1.757.179.46.478.819.816 1.086.342.267.736.347 1.182.436.446.089.713.025 1.247.025h.199c.735 0 .64-.376.64-.941V3.285c0-1.276.304-2.344.599-3.204a5.749 5.749 0 0 1 1.249-2.047 4.12 4.12 0 0 1 1.656-1.069 5.217 5.217 0 0 1 1.907-.267c.624.031 1.21.156 1.744.378.533.223 1.008.602 1.407 1.135.401.534.588 1.255.811 2.159.223.905.213 2.039.213 3.403v7.077c0 .711.212 1.294.391 1.753.177.46.498.819.837 1.086.343.267.768.347 1.213.436.443.089.967.025 1.501.025h1.187V3.551c-.004-1.959-.126-3.642-.732-5.052zM-761.558-4.238c-1.824-1.997-3.949-3.013-7.375-3.013h-.411c-3.426 0-5.559 1.016-7.386 3.013-1.824 1.995-2.895 4.738-2.895 8.191v10.196h1.612c.533 0 1.033.063 1.479-.025.442-.089.847-.205 1.187-.472.342-.268.492-.608.671-1.068s.179-1.023.179-1.734V4.065c0-1.415.288-2.603.57-3.567a5.815 5.815 0 0 1 1.285-2.309 4.326 4.326 0 0 1 1.926-1.205h.023a4.819 4.819 0 0 1 1.58-.264c.718 0 1.402.156 2.017.438.448.195.862.465 1.223.8a4.889 4.889 0 0 1 1.472 2.405l.042.127c.282.963.563 2.16.563 3.575v6.784c0 .711.008 1.274.187 1.734.176.46.337.801.676 1.068.343.267.744.383 1.189.472.446.089.943.025 1.479.025h1.597V3.953c0-3.453-1.062-6.196-2.89-8.191zM-1139.271-7.985c.92.979 1.639 2.113 2.158 3.403.519 1.291.779 2.692.779 4.205 0 1.484-.238 2.871-.711 4.161a10.726 10.726 0 0 1-2.004 3.405c-.86.979-1.913 1.749-3.158 2.313-1.247.563-2.627.846-4.139.846-1.396 0-2.693-.282-3.895-.846a10.352 10.352 0 0 1-3.182-2.313 10.788 10.788 0 0 1-2.158-3.405c-.52-1.29-.779-2.677-.779-4.161 0-1.513.237-2.914.712-4.205a10.707 10.707 0 0 1 2.003-3.403c.86-.948 1.913-1.713 3.159-2.292 1.247-.579 2.626-.868 4.14-.868a9 9 0 0 1 3.916.868 10.446 10.446 0 0 1 3.159 2.292zm-7.655 14.462c.386.03.846-.021 1.381-.155.533-.134 1.06-.431 1.579-.891.519-.46.979-1.127 1.38-2.003.399-.874.674-2.024.823-3.447.118-1.426.051-2.604-.201-3.539-.251-.934-.593-1.668-1.023-2.202s-.897-.912-1.401-1.135c-.504-.224-.949-.349-1.335-.377-.386-.031-.854.021-1.401.153-.549.134-1.076.424-1.58.868-.505.446-.965 1.105-1.379 1.981-.416.875-.683 2.023-.801 3.449-.149 1.423-.097 2.602.156 3.537.251.934.593 1.677 1.023 2.225.43.549.905.934 1.424 1.157.517.223.97.349 1.355.379zM-1113.558 25.624c.92.979 1.638 2.114 2.158 3.405.519 1.289.777 2.69.777 4.204 0 1.483-.238 2.87-.71 4.16a10.742 10.742 0 0 1-2.003 3.405 9.188 9.188 0 0 1-3.16 2.314c-1.245.562-2.626.845-4.138.845a9.074 9.074 0 0 1-3.894-.845 10.392 10.392 0 0 1-3.183-2.314 10.77 10.77 0 0 1-2.158-3.405c-.519-1.29-.777-2.677-.777-4.16 0-1.514.235-2.915.71-4.204a10.687 10.687 0 0 1 2.003-3.405c.86-.948 1.914-1.713 3.16-2.292 1.245-.578 2.625-.867 4.139-.867 1.394 0 2.698.289 3.916.867a10.43 10.43 0 0 1 3.16 2.292zm-7.655 14.462c.387.03.847-.021 1.381-.155s1.061-.43 1.579-.89.979-1.126 1.38-2.002.675-2.025.822-3.449c.119-1.426.052-2.604-.199-3.539-.253-.934-.594-1.667-1.023-2.202-.431-.534-.896-.912-1.402-1.134-.505-.223-.948-.35-1.334-.378-.387-.03-.853.021-1.402.155-.549.134-1.075.422-1.58.868-.505.444-.965 1.105-1.379 1.979-.416.876-.683 2.023-.801 3.449-.149 1.423-.098 2.602.155 3.537.252.935.594 1.677 1.023 2.225.431.55.904.935 1.424 1.157s.97.351 1.356.379zM-1107.96 16.414c.77-1.422 2.599-1.233 2.599-1.233.445.089.832.268 1.158.534s.625.631.804 1.091c.176.46.313 1.044.313 1.757v6.186c.223-.326.738-.653 1.244-.979.414-.235.889-.481 1.466-.733.581-.251 1.229-.406 1.97-.467 1.156-.09 2.33.053 3.532.423s2.272.994 3.224 1.868c.948.876 1.726 2.018 2.335 3.426.606 1.41.909 3.094.909 5.051 0 1.959-.287 3.62-.865 4.984-.581 1.364-1.338 2.47-2.271 3.315a8.683 8.683 0 0 1-3.205 1.847 11.96 11.96 0 0 1-3.672.579c-1.244 0-2.47-.194-3.67-.579a8.675 8.675 0 0 1-3.205-1.847c-.933-.846-1.692-1.951-2.272-3.315-.578-1.364-.871-3.025-.871-4.984V19.182c-.001 0 .005-1.894.477-2.768zm14.125 17.145c.06-1.246-.016-2.307-.223-3.182-.208-.874-.511-1.594-.912-2.158-.399-.563-.874-.985-1.423-1.268a4.11 4.11 0 0 0-1.669-.467 3.986 3.986 0 0 0-1.692.289c-.563.222-1.075.593-1.534 1.111-.461.52-.845 1.201-1.158 2.047-.311.847-.495 1.893-.555 3.137-.06 1.247.021 2.314.244 3.205.223.89.533 1.618.936 2.181.398.564.868.979 1.401 1.246a4.132 4.132 0 0 0 1.646.445 4.259 4.259 0 0 0 1.692-.267c.563-.207 1.073-.571 1.534-1.091.459-.519.845-1.209 1.158-2.069.312-.86.495-1.913.555-3.159zM-1142.621 47.811h0zM-1158.854-17.038c-.177-.46-.271-.823-.611-1.09a2.653 2.653 0 0 0-1.148-.534s-2.953-.572-3.226 2.628l.625 17.834c0 .771-.36 1.868-.642 2.417-.283.55-.762.985-1.444 1.34-.683.357-1.586.516-2.713.679-1.128.164-2.759.111-4.45.111H-1173.831c-.216 0-1.016.174-1.041 1.195 0 .226.039.393.092.575.148.416.433.897.864 1.282.429.387 1.113.646 2.063.765 1.572.179 3.146.205 4.749.071s3.022-.479 4.313-1.043c1.291-.563 2.165-1.379 2.981-2.446.815-1.067.993-2.431.993-4.093V-15.28c0-.712.143-1.298-.037-1.758zM-1099.966 49.285v0zM-1115.405-5.558c-.609-1.408-1.274-2.551-2.239-3.426-.964-.876-2.008-1.497-3.194-1.869-1.188-.371-2.346-.512-3.504-.423-.772.06-1.446.215-2.023.468-.578.252-1.213.498-1.628.733-.476.326-.951.653-1.396.979v-6.186c0-.712.064-1.298-.112-1.758 0 0-.616-1.459-2.079-1.543-1.462-.083-2.452 1.072-2.709 2.047-.256.976-.129 3.39-.129 3.39l.64 19.935c0 .712.128 1.296.306 1.756.179.46.476.818.816 1.086.342.268.736.369 1.182.457.444.088.713.048 1.246.048h.2c.735 0 .64-.42.64-.985V-.773c0-1.275.303-2.343.599-3.203a5.734 5.734 0 0 1 1.249-2.047 4.072 4.072 0 0 1 1.656-1.068 5.175 5.175 0 0 1 1.907-.268c.624.029 1.21.156 1.743.379.534.222 1.007.601 1.407 1.134.401.534.589 1.253.812 2.159.223.905.212 2.039.212 3.403v7.077c0 .711.213 1.293.391 1.753.177.46.497.818.838 1.086.342.268.768.369 1.213.457.443.088.965.048 1.499.048h1.187V-.507c-.004-1.958-.124-3.64-.73-5.051zM-1153.673 40.703l.289.311a4.968 4.968 0 0 0-.289-.311zM-1153.673 40.703l-.001-.003z"/><g fill="#1E100D"><path d="M-1171.884 43.913h.01l-.01-.001zM-1156.951 41.683c-.094-.102-.19-.207-.289-.312l-.001-.002-.176-.189-1.636-1.769c-.56-.605-1.113-1.209-1.659-1.813-.546-.604-1.123-1.152-1.614-1.748-1.138-1.38-2.433-3.293-3.671-4.649l8.141-7.289c1.744-1.563.066-2.039-.225-2.109a5.732 5.732 0 0 0-.442-.064c-.707-.06-1.547.044-2.52.308-.973.266-2.035.915-3.185 1.946l-1.061.931c-.473.412-1.003.868-1.593 1.369-.59.502-1.323 1.018-1.941 1.549-.619.531-1.364 1.017-1.81 1.459V18.508c0-.707.041-1.29-.136-1.746-.177-.457-.372-.819-.71-1.085a2.605 2.605 0 0 0-1.139-.529 5.375 5.375 0 0 0-.497-.079c-.195.002-2.037.092-2.418 2.52l.604 22.859c0 .709.089 1.291.267 1.748.177.456.383.817.723 1.083.143.111.186.205.409.285v.004c0 .008.086.015.104.022.027.013.082.025.11.037.053.022.12.043.177.062a3.37 3.37 0 0 0 .392.109l.032.008a.707.707 0 0 0 .045.008c.332.071.688.023 1.024.048.125.014.246-.063.392-.063h.13c.481 0 .492.182.492.182V33.596c.446.502.999 1.033 1.5 1.591.501.562 1.052 1.122 1.523 1.683.472.56.955 1.083 1.382 1.57.427.485.79.905 1.055 1.259.443.562.907 1.106 1.379 1.638.471.53.969 1.011 1.485 1.438s1.048.766 1.594 1.017c.545.25 1.114.376 1.704.376.717 0 1.293-.078 1.73-.229.506-.189 1.588-.789.329-2.256z"/></g><path fill="#1E100D" d="M-1191.103 7.54c.172 0 .346-.016.521-.048 1.538-.286 1.542-1.765 1.255-3.303-1.295-6.973-3.633-13.324-8.673-18.365-5.04-5.042-12.938-8.196-18.362-9.086-2.917-.478-4.63.736-5.529 2.47-1.646 3.175 1.204 8 4.492 7.35 11.892-2.354 21.917 6.807 24.121 18.667.254 1.363.838 2.315 2.175 2.315zM-1256.868 7.54c-.172 0-.346-.016-.521-.048-1.539-.286-1.542-1.765-1.256-3.303 1.296-6.973 3.633-13.324 8.673-18.365 5.04-5.042 12.938-8.196 18.362-9.086 2.917-.478 4.63.736 5.529 2.47 1.646 3.175-1.204 8-4.492 7.35-11.892-2.354-21.916 6.807-24.121 18.667-.253 1.363-.836 2.315-2.174 2.315zM-1191.034 12.8c-1.556-.288-2.244.726-2.534 2.264-1.917 10.128-9.22 18.253-18.804 22.139-3.839 1.373-7.679-1.112-8.324-4.888-.579-2.169.188-7.439.188-7.439.414-2.316-.834-4.543-3.332-4.576a1.93 1.93 0 0 0-.2.011c0-.007-.135-.011-.201-.011-2.498.033-3.747 2.26-3.333 4.576 0 0 .767 5.271.188 7.439-.644 3.775-4.484 6.261-8.323 4.888-9.584-3.886-16.887-12.011-18.805-22.139-.291-1.538-.978-2.552-2.534-2.264-1.555.289-1.771 1.841-1.479 3.379 3.139 16.576 17.397 32.523 34.482 32.523H-1224.036c17.084 0 31.343-15.947 34.483-32.523.29-1.538.074-3.09-1.481-3.379zM-856.415-229.13c.92.979 1.64 2.114 2.158 3.404.521 1.291.78 2.692.78 4.205 0 1.483-.238 2.87-.713 4.16a10.694 10.694 0 0 1-2.003 3.405 9.188 9.188 0 0 1-3.159 2.314c-1.246.563-2.625.845-4.138.845-1.395 0-2.692-.282-3.893-.845a10.363 10.363 0 0 1-3.183-2.314 10.788 10.788 0 0 1-2.158-3.405c-.521-1.29-.78-2.677-.78-4.16 0-1.513.239-2.915.713-4.205a10.7 10.7 0 0 1 2.003-3.404c.86-.948 1.913-1.713 3.159-2.292s2.625-.867 4.139-.867a9 9 0 0 1 3.915.867 10.39 10.39 0 0 1 3.16 2.292zm-7.652 14.463c.386.03.845-.023 1.379-.156.533-.133 1.06-.43 1.58-.89.519-.46.979-1.126 1.379-2.002.401-.875.674-2.024.824-3.448.116-1.424.052-2.603-.2-3.538-.254-.935-.596-1.668-1.023-2.203-.43-.534-.899-.913-1.401-1.135-.506-.222-.951-.348-1.335-.378-.386-.03-.855.022-1.401.156-.55.133-1.076.422-1.581.867-.506.446-.964 1.106-1.379 1.98-.417.875-.684 2.025-.801 3.449-.15 1.424-.099 2.603.156 3.538.251.934.593 1.676 1.023 2.225.43.55.904.935 1.422 1.157.518.221.972.348 1.358.378zM-734.397-229.182c.92.979 1.638 2.114 2.158 3.405.519 1.291.777 2.692.777 4.205 0 1.484-.235 2.871-.71 4.161a10.738 10.738 0 0 1-2.003 3.404c-.86.979-1.915 1.75-3.159 2.314-1.246.563-2.627.845-4.138.845-1.397 0-2.692-.282-3.896-.845a10.367 10.367 0 0 1-3.182-2.314 10.777 10.777 0 0 1-2.158-3.404c-.519-1.291-.777-2.677-.777-4.161 0-1.513.235-2.914.71-4.205a10.698 10.698 0 0 1 2.003-3.405c.86-.949 1.915-1.713 3.161-2.292 1.244-.579 2.625-.867 4.139-.867a9.01 9.01 0 0 1 3.915.867 10.426 10.426 0 0 1 3.16 2.292zm-7.656 14.463c.387.03.848-.023 1.382-.156.533-.133 1.06-.43 1.578-.89s.979-1.127 1.381-2.002c.399-.875.674-2.025.821-3.449.119-1.424.052-2.603-.199-3.538-.252-.934-.594-1.668-1.023-2.203-.431-.534-.896-.912-1.402-1.134-.505-.223-.948-.349-1.334-.378-.387-.03-.854.022-1.402.156-.549.133-1.075.422-1.581.868-.502.445-.964 1.105-1.378 1.98-.415.876-.682 2.025-.801 3.449-.148 1.424-.096 2.603.155 3.538.251.934.594 1.676 1.023 2.225.431.549.904.934 1.425 1.157.518.221.97.347 1.355.377zM-728.785-238.391c.77-1.423 2.592-1.234 2.592-1.234.445.09.826.267 1.153.535.326.267.528.63.707 1.09s.218 1.045.218 1.757v6.186c.445-.326.834-.652 1.337-.979.417-.237.938-.482 1.517-.735.577-.251 1.251-.407 1.992-.467 1.156-.088 2.343.053 3.542.423a8.372 8.372 0 0 1 3.231 1.868c.949.876 1.729 2.018 2.338 3.427.606 1.409.912 3.093.912 5.05 0 1.958-.288 3.62-.868 4.984-.578 1.365-1.335 2.47-2.268 3.315a8.683 8.683 0 0 1-3.205 1.847 11.956 11.956 0 0 1-7.342 0 8.662 8.662 0 0 1-3.205-1.847c-.933-.846-1.677-1.951-2.255-3.315-.577-1.364-.854-3.026-.854-4.984v-14.154c0 .001-.014-1.894.458-2.767zm14.11 17.144c.06-1.246-.016-2.306-.224-3.181-.207-.875-.51-1.595-.912-2.159-.398-.563-.873-.986-1.422-1.268a4.11 4.11 0 0 0-1.669-.467 3.996 3.996 0 0 0-1.692.289c-.563.223-1.075.594-1.534 1.112-.461.521-.845 1.202-1.155 2.047-.313.845-.498 1.891-.558 3.138-.06 1.246.021 2.314.244 3.203.223.891.533 1.618.936 2.182.398.563.868.978 1.401 1.245a4.127 4.127 0 0 0 1.646.445c.565.03 1.127-.06 1.692-.268.563-.207 1.075-.57 1.534-1.09.461-.519.845-1.208 1.158-2.069.311-.859.496-1.912.555-3.159zM-762.791-206.991h0zM-875.868-238.182c-.177-.46-.335-.824-.677-1.091a2.757 2.757 0 0 0-1.179-.534s-2.97-.573-3.242 2.627l.617 17.833c0 .771-.363 1.87-.646 2.418-.282.549-.765.985-1.446 1.341-.681.356-1.585.518-2.713.68-1.13.164-2.76.114-4.452.114H-890.974c-.215 0-1.016.171-1.039 1.191 0 .226.036.392.091.575.147.416.433.897.865 1.282.428.386 1.112.646 2.061.765 1.573.178 3.148.205 4.75.071s3.021-.479 4.312-1.043a7.693 7.693 0 0 0 3.11-2.446c.815-1.068 1.119-2.432 1.119-4.093v-17.933c0-.711.016-1.297-.163-1.757zM-721.441-205.52v0zM-832.42-226.702c-.608-1.408-1.34-2.55-2.304-3.426a8.595 8.595 0 0 0-3.226-1.869c-1.188-.37-2.363-.511-3.52-.422-.772.06-1.453.216-2.031.467-.581.252-1.091.498-1.506.734-.474.327-.826.652-1.272.979v-6.186c0-.712-.062-1.298-.241-1.758 0 0-.679-1.459-2.14-1.543-1.465-.083-2.485 1.072-2.742 2.047-.259.976-.145 3.388-.145 3.388l.629 19.935c0 .712.125 1.297.304 1.756.179.46.475.819.816 1.086.339.267.733.37 1.179.459.443.089.71.05 1.244.05h.199c.738 0 .896-.424.896-.991v-9.923c0-1.275.177-2.344.472-3.204.298-.86.71-1.542 1.185-2.047a3.977 3.977 0 0 1 1.625-1.067 5.072 5.072 0 0 1 1.892-.267c.621.03 1.202.156 1.736.378.533.222 1 .6 1.401 1.134.401.534.715 1.253.938 2.158.22.905.337 2.04.337 3.404v7.076c0 .712.085 1.294.262 1.753.179.46.435.819.774 1.086.342.267.736.37 1.179.459.446.089.936.05 1.47.05h1.443v-10.647c.002-1.955-.247-3.639-.854-5.049zM-773.62-214.104l.288.311a5.933 5.933 0 0 0-.288-.311zM-773.62-214.104l-.002-.001z"/><g fill="#1E100D"><path d="M-791.832-210.893h.011l-.011-.001zM-776.898-213.124l-.29-.311v-.002l-.176-.189c-.531-.575-1.075-1.165-1.636-1.769a171.655 171.655 0 0 1-1.66-1.814c-.545-.604-1.122-1.151-1.612-1.747-1.14-1.38-2.434-3.293-3.672-4.649l8.14-7.29c1.746-1.563.067-2.04-.223-2.108a5.37 5.37 0 0 0-.443-.066c-.708-.06-1.547.044-2.519.31-.975.265-2.037.914-3.186 1.946-.238.206-.591.516-1.062.928-.472.414-1.003.87-1.592 1.372a408.79 408.79 0 0 0-1.813 1.548c-.619.53-1.236 1.017-1.682 1.459v-10.792c0-.708-.089-1.29-.265-1.747-.179-.458-.436-.819-.774-1.084a2.747 2.747 0 0 0-1.172-.531 5.851 5.851 0 0 0-.513-.078c-.194.002-2.045.093-2.426 2.52l.602 22.86c0 .708.088 1.291.264 1.747.177.458.434.818.775 1.084.143.112.298.205.458.284v.004c.016.008.037.015.052.023l.083.037a2.56 2.56 0 0 0 .412.137l.135.035.031.008.044.008c.332.07.687.025 1.023.05.125.013.246-.062.392-.062h.13c.481 0 .749.177.749.177v-10.385c.445.502.87 1.033 1.37 1.592.503.561.987 1.121 1.459 1.681.472.561.923 1.084 1.351 1.57.428.486.774.906 1.039 1.26.443.56.899 1.105 1.37 1.636.472.531.967 1.011 1.482 1.438a7.208 7.208 0 0 0 1.592 1.017 4.039 4.039 0 0 0 1.705.376c.715 0 1.293-.077 1.729-.229.505-.186 1.585-.785.329-2.254z"/></g><path fill="#1E100D" d="M-809.826 52.047h0zM-768.479 53.296v0zM-820.881 44.712c.099.106.194.21.291.312a5.011 5.011 0 0 0-.291-.312zM-820.881 44.712v-.002z"/><g fill="#1E100D"><path d="M-839.093 47.924l.014-.002h-.011l-.003.002z"/><path d="M-824.158 45.692a62.098 62.098 0 0 0-.288-.313c-.06-.063-.116-.125-.176-.19-.531-.575-1.078-1.164-1.638-1.769a194.907 194.907 0 0 1-1.659-1.813c-.544-.604-1.122-1.152-1.614-1.747-1.138-1.381-2.431-3.293-3.669-4.648l8.14-7.289c1.743-1.563.067-2.042-.226-2.109a5.755 5.755 0 0 0-.44-.067c-.708-.059-1.547.044-2.521.311-.972.265-2.034.913-3.185 1.946l-1.061.928c-.472.413-1.003.87-1.594 1.371-.588.502-1.194 1.018-1.813 1.549-.619.53-1.236 1.017-1.682 1.459V22.519c0-.709-.088-1.289-.265-1.748a2.493 2.493 0 0 0-.772-1.083 2.755 2.755 0 0 0-1.174-.531 6.418 6.418 0 0 0-.51-.078c-.194.003-2.045.094-2.426 2.521l.599 22.859c0 .707.088 1.29.267 1.746.177.459.433.819.772 1.085.146.112.301.204.461.285v.004c.016.008.034.014.052.021.026.013.055.024.083.038a3.647 3.647 0 0 0 .409.136l.138.035a.28.28 0 0 1 .031.008l.044.008c.332.069.687.136 1.023.16.125.013.246.05.392.05h.13c.481 0 .746-.045.746-.045V37.605c.445.501.87 1.032 1.373 1.592.5.56.987 1.121 1.459 1.681s.923 1.084 1.351 1.569c.427.486.771.906 1.039 1.261.442.561.898 1.104 1.37 1.636s.967 1.011 1.482 1.438 1.047.767 1.591 1.017c.547.25 1.114.376 1.703.376.718 0 1.293-.076 1.73-.229.507-.185 1.587-.786.328-2.254z"/></g><path fill="#1E100D" d="M-1142.566 47.811h.054-.054zM-1101.304 49.109v0zM-1153.618 40.525l.288.313a4.97 4.97 0 0 0-.288-.313zM-1153.618 40.525l-.002-.001zM-1524.406 73.999c.92.978 1.639 2.113 2.159 3.403.519 1.291.779 2.692.779 4.205 0 1.484-.239 2.871-.712 4.161a10.666 10.666 0 0 1-2.003 3.403 9.159 9.159 0 0 1-3.159 2.314c-1.247.563-2.626.846-4.139.846-1.395 0-2.692-.282-3.894-.846s-2.263-1.334-3.181-2.314a10.778 10.778 0 0 1-2.158-3.403c-.52-1.29-.779-2.677-.779-4.161 0-1.513.237-2.914.712-4.205a10.648 10.648 0 0 1 2.003-3.403c.859-.95 1.913-1.713 3.159-2.292 1.246-.579 2.625-.867 4.139-.867 1.395 0 2.699.288 3.916.867a10.425 10.425 0 0 1 3.158 2.292zm-7.655 14.462c.386.03.846-.023 1.38-.155.534-.135 1.061-.431 1.58-.891s.979-1.127 1.38-2.003c.4-.874.674-2.025.823-3.447.118-1.426.051-2.604-.2-3.539-.252-.934-.594-1.669-1.024-2.202-.43-.534-.897-.912-1.401-1.135-.505-.222-.95-.349-1.335-.379-.385-.029-.853.022-1.402.157-.548.132-1.075.422-1.579.866-.505.444-.965 1.105-1.379 1.981-.416.875-.683 2.023-.801 3.447-.149 1.425-.097 2.604.156 3.539.251.934.593 1.677 1.023 2.225.43.549.904.934 1.424 1.157.518.224.97.35 1.355.379zM-1518.809 64.789c.769-1.423 2.599-1.233 2.599-1.233.446.088.831.267 1.158.534.326.267.625.63.803 1.09.179.46.315 1.045.315 1.758v6.186c.223-.326.739-.653 1.243-.979.416-.237.89-.482 1.468-.733s1.226-.408 1.968-.468c1.158-.09 2.331.052 3.532.423a8.333 8.333 0 0 1 3.224 1.868c.949.876 1.726 2.019 2.334 3.427.608 1.41.912 3.093.912 5.051 0 1.959-.29 3.62-.868 4.984s-1.335 2.469-2.27 3.315a8.693 8.693 0 0 1-3.204 1.847 11.965 11.965 0 0 1-3.672.579c-1.245 0-2.469-.194-3.67-.579a8.677 8.677 0 0 1-3.204-1.847c-.934-.847-1.694-1.951-2.273-3.315-.578-1.364-.871-3.025-.871-4.984V67.557s.004-1.895.476-2.768zm14.126 17.145c.059-1.246-.015-2.307-.223-3.183-.208-.874-.512-1.594-.912-2.158-.4-.563-.875-.984-1.424-1.268a4.108 4.108 0 0 0-1.669-.468 4.013 4.013 0 0 0-1.691.289c-.563.223-1.075.595-1.535 1.113-.46.52-.845 1.201-1.157 2.047-.312.847-.497 1.891-.556 3.137-.061 1.247.022 2.314.244 3.204.223.891.535 1.617.935 2.181.4.564.867.979 1.402 1.247a4.142 4.142 0 0 0 1.646.444 4.202 4.202 0 0 0 1.691-.268c.563-.207 1.075-.571 1.535-1.089.46-.519.846-1.209 1.157-2.071.313-.858.497-1.911.557-3.157z"/><g fill="#1E100D"><path d="M-1582.732 92.288l.011-.001-.011-.001zM-1567.799 90.058c-.094-.103-.19-.208-.288-.313l-.001-.001-.176-.189c-.53-.575-1.077-1.165-1.636-1.77s-1.113-1.209-1.658-1.814c-.546-.604-1.123-1.15-1.615-1.746-1.138-1.38-2.432-3.293-3.671-4.649l8.141-7.289c1.745-1.563.066-2.041-.224-2.109a6.354 6.354 0 0 0-.442-.066c-.708-.058-1.547.044-2.521.31-.973.266-2.034.915-3.184 1.946-.236.207-.591.516-1.061.929-.472.414-1.003.87-1.593 1.371-.59.502-1.322 1.018-1.941 1.549-.62.529-1.365 1.016-1.81 1.459V66.883c0-.709.04-1.29-.136-1.748-.177-.457-.371-.818-.71-1.084a2.633 2.633 0 0 0-1.14-.53 6.064 6.064 0 0 0-.496-.077c-.195.002-2.038.092-2.418 2.52l.604 22.859c0 .708.09 1.291.268 1.747.177.457.383.818.722 1.084.143.111.186.205.409.285v.003c0 .009.087.016.103.023.028.013.082.024.111.036.052.021.12.043.176.062.08.029.169.054.254.075l.139.034c.01.003.021.007.032.008.014.004.031.005.045.008.332.071.688.023 1.024.049.125.014.246-.063.391-.063h.129c.482 0 .493.181.493.181V81.97c.445.5.998 1.031 1.5 1.591.501.562 1.052 1.122 1.524 1.682.472.561.954 1.084 1.382 1.569.427.486.79.907 1.055 1.261.442.56.907 1.105 1.379 1.637.471.529.969 1.011 1.486 1.437a7.197 7.197 0 0 0 1.594 1.019c.545.25 1.113.376 1.704.376.717 0 1.294-.078 1.73-.229.502-.188 1.585-.788.326-2.255z"/></g><path fill="#1E100D" d="M-1546.917 73.984c-1.826-1.995-3.95-2.989-7.375-2.989h-.413c-3.425 0-5.558.994-7.383 2.989-1.826 1.997-2.896 4.718-2.896 8.171v10.24h1.612c.535 0 1.033.041 1.479-.048.444-.088.848-.216 1.188-.483.342-.267.493-.612.671-1.072s.178-1.029.178-1.74v-6.784c0-1.415.288-2.604.571-3.566a5.721 5.721 0 0 1 1.284-2.287 4.288 4.288 0 0 1 1.926-1.183h.023c.496-.225 1.027-.287 1.581-.287.719 0 1.402.146 2.016.428.45.194.863.459 1.223.793a4.876 4.876 0 0 1 1.473 2.405c.013.041.028.08.041.124.283.963.563 2.158.563 3.573v6.784c0 .711.007 1.275.186 1.735s.337.799.679 1.066c.341.267.744.406 1.188.494.445.089.944.048 1.478.048h1.596v-10.24c-.001-3.453-1.063-6.174-2.889-8.171zM-1513.723-22.826c.161 0 .324-.016.488-.045 1.441-.269 1.444-1.655 1.176-3.096-1.214-6.534-3.405-12.486-8.127-17.212-4.723-4.724-12.124-7.679-17.207-8.512-2.734-.448-4.34.688-5.182 2.313-1.542 2.976 1.128 7.498 4.21 6.888 11.143-2.205 20.538 6.379 22.604 17.494.238 1.278.784 2.17 2.038 2.17zM-1575.353-22.826c-.161 0-.324-.016-.488-.045-1.441-.269-1.445-1.655-1.177-3.096 1.215-6.534 3.405-12.486 8.128-17.212 4.723-4.724 12.124-7.679 17.207-8.512 2.734-.448 4.34.688 5.182 2.313 1.542 2.976-1.129 7.498-4.21 6.888-11.144-2.205-20.538 6.379-22.604 17.494-.237 1.278-.784 2.17-2.038 2.17zM-1513.659-17.897c-1.458-.27-2.102.679-2.375 2.12-1.796 9.492-8.64 17.106-17.622 20.747-3.598 1.288-7.196-1.042-7.8-4.58-.542-2.031.176-6.972.176-6.972.387-2.171-.782-4.257-3.122-4.287a1.191 1.191 0 0 0-.188.01.85.85 0 0 0-.189-.01c-2.34.03-3.511 2.116-3.123 4.287 0 0 .718 4.94.175 6.972-.603 3.538-4.202 5.868-7.8 4.58-8.981-3.641-15.825-11.255-17.622-20.747-.273-1.441-.916-2.39-2.375-2.12-1.458.27-1.66 1.705-1.387 3.147 2.941 15.533 16.304 30.46 32.313 30.46H-1544.589c16.01 0 29.372-14.927 32.314-30.46.276-1.442.074-2.878-1.384-3.147zM-1550.202 40.475a10.836 10.836 0 0 1 2.158 3.404c.519 1.291.779 2.692.779 4.204 0 1.484-.238 2.871-.711 4.162a10.73 10.73 0 0 1-2.003 3.404 9.186 9.186 0 0 1-3.16 2.313c-1.246.563-2.625.846-4.138.846-1.395 0-2.692-.282-3.894-.846a10.384 10.384 0 0 1-3.182-2.313 10.812 10.812 0 0 1-2.158-3.404c-.519-1.291-.779-2.678-.779-4.162 0-1.512.236-2.913.712-4.204a10.68 10.68 0 0 1 2.002-3.404c.86-.949 1.914-1.713 3.16-2.292s2.625-.868 4.138-.868c1.394 0 2.699.289 3.916.868a10.422 10.422 0 0 1 3.16 2.292zm-7.654 14.463c.386.029.846-.023 1.379-.156.534-.135 1.061-.43 1.58-.89.519-.46.979-1.127 1.379-2.003.401-.875.675-2.025.824-3.448.118-1.425.052-2.604-.2-3.538-.253-.935-.594-1.669-1.023-2.203-.43-.533-.897-.912-1.401-1.135-.505-.222-.951-.349-1.335-.377-.386-.03-.853.022-1.402.155-.549.133-1.075.423-1.579.867-.505.445-.965 1.104-1.38 1.98-.416.876-.683 2.024-.801 3.449-.149 1.423-.097 2.602.155 3.537s.593 1.677 1.023 2.225c.43.55.905.935 1.424 1.157.518.223.971.349 1.357.38zM-1553.552 96.408h0zM-1569.744 31.422c-.177-.46-.291-.822-.631-1.09a2.667 2.667 0 0 0-1.158-.533s-2.959-.573-3.231 2.627l.623 17.834c0 .771-.361 1.868-.643 2.418-.282.549-.763.984-1.445 1.341-.683.356-1.586.583-2.714.746-1.128.163-2.759.181-4.449.181H-1584.76c-.217 0-1.017.104-1.041 1.124 0 .227.038.36.092.542.148.416.434.881.864 1.267.43.385 1.113.638 2.063.756 1.572.178 3.147.2 4.749.065 1.602-.132 3.022-.48 4.313-1.044s2.206-1.38 3.022-2.447c.816-1.069 1.035-2.433 1.035-4.095V33.181c-.002-.713.099-1.299-.081-1.759zM-1512.374 97.746v0zM-1526.295 42.903c-.608-1.409-1.295-2.55-2.259-3.426-.965-.876-2.02-1.498-3.206-1.87-1.187-.37-2.352-.512-3.509-.422-.771.06-1.447.216-2.026.468-.579.251-1.172.496-1.588.733-.475.326-.911.652-1.356.979v-6.186c0-.713.024-1.299-.153-1.759 0 0-.637-1.459-2.1-1.542-1.464-.084-2.463 1.072-2.721 2.046-.256.978-.133 3.39-.133 3.39l.637 19.936c0 .711.128 1.295.306 1.755.177.46.473.819.815 1.086a2.73 2.73 0 0 0 1.18.526c.445.089.712.116 1.246.116h.199c.737 0 .723-.559.723-1.123v-9.925c0-1.275.262-2.343.559-3.203a5.667 5.667 0 0 1 1.228-2.047 4.024 4.024 0 0 1 1.646-1.067 5.149 5.149 0 0 1 1.902-.268 5.113 5.113 0 0 1 1.742.379c.534.222 1.005.6 1.405 1.134.401.533.63 1.253.853 2.158.222.906.253 2.039.253 3.403v7.077c0 .712.17 1.293.349 1.753s.477.819.818 1.086c.34.269.755.437 1.2.526.445.089.956.116 1.49.116h1.27V47.953c-.001-1.957-.163-3.64-.77-5.05zM-1503.245 43.708c-.383-1.373-.933-2.541-1.769-3.504-.835-.963-1.888-1.705-3.219-2.229-1.331-.523-2.521-.785-4.418-.785-3.425 0-5.964.997-7.79 2.992-1.826 1.997-2.857 4.722-2.857 8.175v10.378h1.53c.534 0 1.033-.027 1.479-.116.444-.09.847-.25 1.188-.518.342-.267.534-.629.712-1.091.178-.458.22-1.045.22-1.757V48.469c0-1.414.246-2.604.529-3.565.282-.964.739-1.729 1.263-2.293a4.294 4.294 0 0 1 1.916-1.189c.735-.226 1.147-.325 2.025-.298.877-.027 1.254.079 1.934.318a3.75 3.75 0 0 1 1.702 1.21c.452.567.667 1.324.894 2.272.227.949.215 1.721.215 3.137v7.192c0 .712.271 1.299.45 1.757.178.462.529.824.87 1.091.341.268.78.428 1.225.518.446.089 1.131.116 1.665.116h.695V48.357c-.002-1.726-.077-3.277-.459-4.649z"/><path fill="#1E100D" d="M-1564.604 89.163l.288.312a4.427 4.427 0 0 0-.288-.312zM-1564.604 89.163l-.001-.003zM-1099.92-6.898a4.87 4.87 0 0 1 1.221.8 4.264 4.264 0 0 0-1.221-.8z"/><path fill="#1E100D" d="M-1094.382-8.273c-1.827-1.996-3.949-2.99-7.375-2.99h-.414c-3.424 0-5.557.994-7.383 2.99-1.824 1.996-2.895 4.717-2.895 8.17v10.24h1.611c.534 0 1.034.04 1.479-.048.443-.088.848-.216 1.188-.481.342-.269.492-.614.671-1.074s.176-1.029.176-1.74V.009c0-1.415.291-2.604.573-3.567a5.715 5.715 0 0 1 1.282-2.286 4.292 4.292 0 0 1 1.929-1.184h.021c.497-.223 1.028-.286 1.583-.286.718 0 1.402.146 2.016.428.449.194.863.459 1.221.793a4.904 4.904 0 0 1 1.475 2.404c.013.042.028.081.039.125.285.963.564 2.158.564 3.573v6.784c0 .711.008 1.274.185 1.733.179.461.337.801.679 1.067.342.268.744.407 1.189.495s.943.048 1.477.048h1.597V-.104c-.001-3.453-1.061-6.173-2.888-8.169zM-1136.068 25.611c-1.826-1.996-3.95-2.99-7.376-2.99h-.412c-3.425 0-5.558.994-7.384 2.99-1.825 1.995-2.896 4.716-2.896 8.17v10.24h1.612c.534 0 1.033.041 1.479-.049.444-.088.847-.215 1.188-.481.342-.269.494-.614.67-1.074.179-.46.179-1.027.179-1.74v-6.784c0-1.414.287-2.604.57-3.565a5.703 5.703 0 0 1 1.285-2.288 4.295 4.295 0 0 1 1.926-1.183h.022c.495-.224 1.027-.286 1.581-.286.719 0 1.401.146 2.017.427a4.29 4.29 0 0 1 1.221.793 4.876 4.876 0 0 1 1.474 2.405c.014.041.028.081.041.124.284.963.563 2.159.563 3.573v6.784c0 .713.008 1.275.186 1.735s.336.799.678 1.067c.342.267.743.405 1.189.493.445.09.943.049 1.479.049h1.595v-10.24c-.001-3.454-1.06-6.175-2.887-8.17z"/><path fill="#1E100D" d="M-1098.699-6.099c.08.075.161.151.233.231a5.73 5.73 0 0 1 1.241 2.174 4.905 4.905 0 0 0-1.474-2.405zM-780.956 29.681c.92.979 1.638 2.113 2.158 3.403.519 1.291.778 2.692.778 4.206 0 1.483-.239 2.87-.711 4.16a10.727 10.727 0 0 1-2.003 3.404 9.153 9.153 0 0 1-3.158 2.313c-1.247.563-2.628.848-4.139.848a9.054 9.054 0 0 1-3.895-.848 10.368 10.368 0 0 1-3.183-2.313 10.783 10.783 0 0 1-2.158-3.404c-.519-1.29-.777-2.677-.777-4.16 0-1.514.235-2.915.71-4.206a10.677 10.677 0 0 1 2.003-3.403c.86-.948 1.915-1.713 3.161-2.292 1.244-.578 2.625-.868 4.139-.868 1.395 0 2.697.29 3.915.868a10.45 10.45 0 0 1 3.16 2.292zm-7.654 14.462c.386.03.847-.021 1.381-.155s1.06-.43 1.578-.89.979-1.128 1.381-2.004c.399-.873.674-2.023.821-3.447.119-1.424.053-2.604-.199-3.538-.251-.935-.594-1.669-1.023-2.203-.431-.534-.896-.912-1.402-1.135-.505-.222-.948-.348-1.334-.377-.387-.03-.853.021-1.402.155-.549.134-1.075.422-1.58.867-.503.445-.965 1.106-1.379 1.98-.415.875-.682 2.025-.801 3.449-.15 1.424-.096 2.603.155 3.537.252.935.594 1.677 1.023 2.225.431.55.904.936 1.426 1.157.518.223.968.349 1.355.379zM-775.136 20.471c.77-1.422 2.599-1.233 2.599-1.233.446.09.832.268 1.158.534.327.267.625.631.804 1.09.179.461.313 1.047.313 1.758v6.186c.223-.326.738-.651 1.244-.979.414-.238.889-.481 1.469-.734.578-.253 1.227-.408 1.967-.468 1.158-.088 2.33.052 3.532.423a8.375 8.375 0 0 1 3.224 1.869c.948.875 1.726 2.018 2.335 3.428.606 1.408.912 3.092.912 5.05s-.29 3.619-.868 4.983c-.58 1.365-1.337 2.47-2.27 3.315a8.66 8.66 0 0 1-3.206 1.847 11.921 11.921 0 0 1-7.341 0 8.608 8.608 0 0 1-3.203-1.847c-.936-.846-1.694-1.95-2.272-3.315-.581-1.364-.873-3.025-.873-4.983V23.24s.005-1.895.476-2.769zm14.125 17.145c.06-1.246-.016-2.308-.223-3.182-.207-.876-.511-1.595-.912-2.158-.399-.564-.873-.986-1.423-1.269a4.14 4.14 0 0 0-1.669-.468 4.011 4.011 0 0 0-1.691.29c-.563.223-1.076.594-1.534 1.111-.462.521-.845 1.202-1.156 2.047-.313.847-.497 1.893-.557 3.139-.06 1.245.021 2.314.243 3.203.223.891.534 1.616.936 2.182.399.563.868.979 1.402 1.245a4.105 4.105 0 0 0 1.646.444 4.181 4.181 0 0 0 1.691-.267c.563-.208 1.076-.57 1.534-1.09.462-.52.845-1.209 1.158-2.069.312-.859.496-1.913.555-3.158zM-809.795 51.823h0zM-767.142 53.342v0zM-820.847 44.759c.096.105.194.209.287.312a4.886 4.886 0 0 0-.287-.312zM-820.847 44.759l-.003-.002zM-809.74 51.823h0zM-768.479 53.166v0zM-820.792 44.582c.096.106.194.21.287.311a8.237 8.237 0 0 0-.287-.311zM-820.792 44.582l-.003-.001zM-767.095-2.842c.448.205.857.475 1.223.8a4.344 4.344 0 0 0-1.223-.8z"/><path fill="#1E100D" d="M-803.244 29.646c-1.824-1.996-3.949-3.013-7.375-3.013h-.412c-3.426 0-5.558 1.017-7.385 3.013-1.824 1.995-2.895 4.738-2.895 8.191v10.197h1.611c.534 0 1.034.063 1.48-.026.442-.088.847-.205 1.187-.472.342-.267.492-.607.671-1.067s.179-1.023.179-1.735v-6.782c0-1.416.288-2.604.57-3.568a5.803 5.803 0 0 1 1.285-2.309 4.318 4.318 0 0 1 1.926-1.205h.023a4.86 4.86 0 0 1 3.597.173c.448.196.862.467 1.22.8a4.87 4.87 0 0 1 1.475 2.407l.042.126c.282.963.563 2.16.563 3.576v6.782c0 .712.008 1.275.187 1.735.176.46.334.801.676 1.067s.744.384 1.189.472c.446.09.943.026 1.479.026h1.594V37.837c0-3.453-1.06-6.196-2.887-8.191zM-765.872-2.042c.078.073.158.151.23.231a5.754 5.754 0 0 1 1.241 2.174 4.88 4.88 0 0 0-1.471-2.405zM-811.492-229.348c-1.824-1.996-3.949-3.056-7.375-3.056h-.412c-3.426 0-5.559 1.061-7.385 3.056-1.824 1.996-2.895 4.783-2.895 8.236v10.108h1.611c.534 0 1.034.107 1.479.019.443-.089.848-.183 1.188-.45.342-.267.492-.595.671-1.057.179-.459.179-1.012.179-1.723v-6.782c0-1.416.288-2.604.57-3.567s.759-1.788 1.285-2.354c.521-.566 1.187-1.026 1.925-1.25h.023c.495-.223 1.026-.22 1.581-.22.718 0 1.402.18 2.017.46.448.196.862.477 1.22.811a4.878 4.878 0 0 1 1.475 2.413l.042.129c.282.963.562 2.163.562 3.578v6.782c0 .711.008 1.275.187 1.735.177.46.337.8.677 1.068.342.267.744.338 1.189.427.445.089.943-.019 1.479-.019h1.594v-10.108c0-3.452-1.06-6.24-2.887-8.236z"/><g fill="#1E100D"><path d="M-1260.801-240.036c.127 0 .255-.013.382-.038a10.176 10.176 0 0 1 1.979-.197c5.188 0 9.747 4.044 10.839 9.925.183.983.67 1.481 1.449 1.481.111 0 .223-.01.333-.031 1.249-.231.985-1.647.899-2.112-.833-4.479-2.357-7.479-4.798-9.92-2.774-2.775-7.095-4.522-10.146-5.023a4.33 4.33 0 0 0-.71-.061c-1.165 0-2.058.534-2.583 1.546-.462.891-.374 2.063.23 3.057.523.86 1.318 1.373 2.126 1.373zM-1282.299-228.895c.109.02.222.03.333.03.779 0 1.266-.498 1.449-1.481 1.093-5.88 5.651-9.925 10.839-9.925.653 0 1.319.066 1.979.197.126.025.254.038.382.038.809 0 1.603-.512 2.125-1.371.604-.994.692-2.166.23-3.057-.525-1.012-1.418-1.546-2.583-1.546-.226 0-.465.02-.71.061-3.051.5-7.372 2.248-10.146 5.023-2.441 2.441-3.965 5.441-4.798 9.92-.086.464-.348 1.88.9 2.111zM-1246.065-226.087a1.735 1.735 0 0 0-.322-.031c-.725 0-1.186.497-1.372 1.478-.999 5.271-4.766 9.481-10.077 11.635a3.196 3.196 0 0 1-1.079.188c-1.528 0-2.826-1.113-3.088-2.646v-.007l-.001-.005-.001-.006-.002-.007c-.295-1.104.104-3.914.109-3.941.137-.766-.028-1.479-.479-2.024-.37-.449-.908-.694-1.601-.694h-.01c-.033 0-.065.001-.099.004-.04-.004-.076-.004-.104-.004h-.009c-.693 0-1.232.246-1.603.694-.446.541-.615 1.275-.476 2.053.015.112.393 2.8.113 3.903l-.005.014-.004.011-.002.014c-.261 1.533-1.56 2.644-3.087 2.644-.364 0-.73-.064-1.089-.193-5.304-2.151-9.069-6.359-10.067-11.63-.186-.981-.647-1.479-1.372-1.479-.103 0-.21.01-.322.031a1.19 1.19 0 0 0-.792.509c-.283.412-.366 1.063-.229 1.788.862 4.555 3.274 8.871 6.615 12.229 3.606 3.625 8.02 5.622 12.427 5.622 4.412 0 8.828-1.997 12.434-5.622 3.341-3.358 5.752-7.674 6.615-12.229.137-.725.054-1.376-.229-1.788a1.176 1.176 0 0 0-.792-.511z"/></g><path fill="#1E100D" d="M-1123.174-214.431a5.27 5.27 0 0 0-.27-.29l.27.29zM-1201.046-227.694a9.553 9.553 0 0 0-2.881-2.089 8.218 8.218 0 0 0-3.558-.788c-1.373 0-2.64.265-3.767.789-1.13.525-2.098 1.226-2.877 2.086a9.769 9.769 0 0 0-1.824 3.103c-.432 1.173-.651 2.467-.651 3.846 0 1.349.239 2.627.711 3.799a9.877 9.877 0 0 0 1.969 3.106c.835.89 1.811 1.6 2.901 2.11a8.277 8.277 0 0 0 3.539.768c1.372 0 2.64-.259 3.769-.769a8.403 8.403 0 0 0 2.873-2.103 9.795 9.795 0 0 0 1.826-3.106c.432-1.175.651-2.455.651-3.805 0-1.375-.239-2.667-.71-3.84a9.96 9.96 0 0 0-1.971-3.107zm-1.945 7.297c-.142 1.352-.406 2.457-.788 3.29-.383.84-.835 1.493-1.34 1.941-.508.45-1.035.746-1.566.879a4.81 4.81 0 0 1-1.137.159c-.075 0-.149-.002-.219-.008-.382-.029-.832-.154-1.336-.371-.517-.222-.993-.607-1.414-1.145-.418-.534-.753-1.258-.994-2.153-.242-.895-.293-2.032-.152-3.38.112-1.343.37-2.451.767-3.288.398-.839.849-1.484 1.34-1.917.495-.438 1.022-.726 1.566-.858a5.004 5.004 0 0 1 1.155-.158c.076 0 .15.002.222.008.383.03.826.154 1.316.371.502.222.969.599 1.391 1.122.418.519.753 1.237.996 2.135.239.89.304 2.025.193 3.373zM-1091.702-227.743a9.512 9.512 0 0 0-2.882-2.089 8.209 8.209 0 0 0-3.556-.788c-1.373 0-2.64.265-3.768.788-1.13.525-2.099 1.227-2.876 2.086a9.737 9.737 0 0 0-1.824 3.104c-.433 1.172-.653 2.466-.653 3.846 0 1.349.241 2.626.713 3.798s1.132 2.217 1.967 3.107a9.507 9.507 0 0 0 2.902 2.109 8.265 8.265 0 0 0 3.539.768c1.371 0 2.639-.259 3.769-.77a8.331 8.331 0 0 0 2.871-2.103 9.754 9.754 0 0 0 1.826-3.106c.434-1.176.65-2.456.65-3.805 0-1.376-.238-2.668-.71-3.84a9.941 9.941 0 0 0-1.968-3.105zm-1.944 7.297c-.143 1.352-.407 2.458-.788 3.291-.384.839-.834 1.492-1.343 1.94-.508.451-1.033.746-1.564.879a4.815 4.815 0 0 1-1.136.159c-.074 0-.149-.002-.22-.008-.381-.028-.832-.153-1.337-.37-.516-.222-.993-.607-1.415-1.146-.417-.532-.752-1.257-.992-2.153-.241-.895-.293-2.032-.153-3.38.111-1.344.37-2.451.77-3.288.396-.84.848-1.484 1.337-1.917.495-.437 1.023-.726 1.568-.858a4.973 4.973 0 0 1 1.158-.159c.075 0 .147.002.218.008.383.03.826.155 1.316.371.5.221.969.598 1.392 1.121.417.521.751 1.238.995 2.135.24.893.306 2.028.194 3.375zM-1069.357-225.323c-.552-1.279-1.268-2.33-2.127-3.121a7.605 7.605 0 0 0-2.924-1.695 8.873 8.873 0 0 0-2.606-.409c-.205 0-.409.008-.611.024-.664.054-1.263.194-1.775.418-.526.229-.984.455-1.365.671-.454.295-.874.594-1.195.887l-.394.337v-6.268c0-.633-.052-1.158-.207-1.561-.153-.391-.355-.703-.627-.926a2.188 2.188 0 0 0-.967-.45 2.323 2.323 0 0 0-.179-.006c-.44 0-1.529.102-2.04 1.043-.406.757-.438 2.46-.438 2.478v13.201c0 1.788.293 3.324.816 4.563.525 1.237 1.23 2.251 2.075 3.015a7.92 7.92 0 0 0 2.915 1.675c1.094.351 2.227.529 3.358.529 1.133 0 2.266-.178 3.358-.529a7.893 7.893 0 0 0 2.91-1.675c.843-.764 1.537-1.778 2.063-3.015.523-1.239.791-2.774.791-4.563.001-1.785-.28-3.341-.831-4.623zm-3.791 4.842c-.057 1.18-.236 2.193-.531 3.011-.301.826-.677 1.499-1.122 2.001-.453.51-.964.872-1.521 1.077a4.189 4.189 0 0 1-1.663.263 4.073 4.073 0 0 1-1.622-.438c-.529-.264-.995-.678-1.39-1.231-.389-.545-.691-1.255-.906-2.108-.21-.848-.291-1.875-.233-3.052.057-1.179.235-2.186.531-2.992.301-.811.676-1.477 1.122-1.979.451-.508.961-.876 1.516-1.096a4.008 4.008 0 0 1 1.669-.285 4.082 4.082 0 0 1 1.646.459c.542.278 1.014.699 1.407 1.251.386.547.687 1.25.884 2.089.197.835.267 1.854.213 3.03zM-1219.599-237.131a2.323 2.323 0 0 0-.995-.456s-.177-.032-.437-.032c-.792 0-2.145.295-2.319 2.274l.567 16.62-.013.004v.004c0 .785-.352 1.851-.611 2.356-.28.545-.744.987-1.434 1.348-.589.307-1.34.51-2.6.692-.895.129-2.142.208-3.436.208l-.742-.009h-1.276c-.03 0-.73-.022-.751.833 0 .178.029.263.075.417.085.238.294.689.744 1.092.368.331.974.55 1.803.654.831.093 1.673.141 2.506.141.62 0 1.248-.027 1.873-.079 1.467-.122 2.752-.435 3.946-.956 1.091-.477 1.97-1.18 2.761-2.214.653-.857.934-1.993.934-3.685v-16.726c0-.159.015-.308.018-.453.011-.44.04-.82-.071-1.107-.121-.514-.542-.926-.542-.926zM-1179.297-225.492c-.599-1.389-1.194-2.38-2.009-3.121-.886-.804-1.823-1.358-2.9-1.695a8.625 8.625 0 0 0-2.576-.409 8.16 8.16 0 0 0-.606.023c-.695.054-1.307.195-1.821.419-.481.209-1.029.447-1.419.669-.217.15-.422.303-.615.452-.194.149-.413.303-.633.456l-.378.239v-6.188c0-.64.022-1.162-.128-1.554-.038-.08-.581-1.238-1.755-1.305-.042-.002-.083-.004-.125-.004-1.126 0-1.968.902-2.192 1.75-.228.866-.153 3.071-.153 3.093l.563 18.597v.008c0 .573.12 1.099.298 1.56.14.36.385.671.703.921.248.194.557.319 1.017.411.278.056.476.073.782.073 0 0 .99.095.99-.963v-9.056c0-1.074.201-2.103.53-3.06a5.63 5.63 0 0 1 1.205-1.989 3.967 3.967 0 0 1 1.616-1.053 4.977 4.977 0 0 1 1.849-.261 4.98 4.98 0 0 1 1.693.37c.535.223 1 .603 1.394 1.129.388.516.62 1.2.839 2.092.21.854.235 1.909.235 3.228v6.6c0 .621.158 1.146.317 1.558.151.389.418.691.711.921.247.194.561.325 1.021.418.302.06 1.11.161 1.426.161h.756l.003-9.858c.001-1.985-.133-3.462-.638-4.632zM-1159.633-227.87c-1.802-1.971-3.738-2.751-6.68-2.751h-.384c-2.964 0-5.015.806-6.794 2.75-1.757 1.92-2.713 4.499-2.713 7.505v9.362s1.377.05 2.333-.073c.079-.008.151-.018.215-.03.028-.006.054-.013.082-.018.049-.01.096-.02.141-.031.306-.069.586-.159.811-.333.265-.207.456-.468.624-.904.154-.397.253-.911.253-1.541v-6.432s.066-3.096 1.396-5.104c.119-.156.243-.304.369-.44.525-.568 1.202-.953 1.919-1.183l.023-.007c.487-.183 1.02-.176 1.466-.176h.093c.662 0 1.323.105 1.971.402.429.186.832.419 1.196.758a4.748 4.748 0 0 1 1.432 2.345c.008.024.006.046.012.071.004.015-.003-.004.001.012.226.768.376 1.988.376 3.428V-213.934c0 .63.1 1.144.253 1.541.168.436.359.697.625.904.224.175.504.265.811.333.044.011.091.021.14.031.028.005.055.012.083.018.064.013.137.022.215.03.957.123 2.333.073 2.333.073v-9.362c-.003-3.067-.901-5.646-2.602-7.504zM-1131.347-212.77l-.241-.261-.023-.026-.011-.009v-.001l-.097-.105-.059-.063-1.223-1.321-.304-.329c-.519-.56-1.04-1.13-1.55-1.693a24.649 24.649 0 0 0-.601-.641 17.505 17.505 0 0 1-.91-.997 51.51 51.51 0 0 1-1.347-1.739c-.682-.904-1.387-1.84-2.071-2.589l-.148-.164.164-.148 7.594-6.798c.481-.432.712-.813.645-1.072-.067-.264-.446-.442-.752-.516a6.392 6.392 0 0 0-.391-.059 4.722 4.722 0 0 0-.348-.013c-.555 0-1.202.099-1.923.295-.869.238-1.84.832-2.88 1.767l-.035.03-.958.838c-.434.379-.921.799-1.488 1.281-.259.22-.539.447-.806.667-.309.253-.633.515-.938.776-.23.198-.47.389-.695.573-.338.276-.688.538-.948.782l-.414.348v-10.572c0-.557.021-1.13-.141-1.551-.161-.415-.326-.707-.594-.917a2.29 2.29 0 0 0-.985-.452 5.571 5.571 0 0 0-.438-.069c-.227.006-1.673.124-1.999 2.145l.59 21.301v.005c0 .629.05 1.151.205 1.55.149.387.347.696.631.917.112.088.237.167.388.242l.08.04.027.012a2.225 2.225 0 0 0 .357.119l.029.008a1.965 1.965 0 0 0 .116.029l.014.002.023.004.002.001h.002c.135.029.279.038.427.044l1.266.003v-9.919l.423.405c.283.302.59.609.876.935.159.181.326.365.495.554.098.111.199.222.3.333.364.405.741.825 1.091 1.239.399.473.785.912 1.157 1.335l.111.126c.442.504.756.882.986 1.188.389.492.816 1.002 1.27 1.513.428.482.887.925 1.36 1.317.464.385.947.694 1.436.918.478.22.982.331 1.498.331.641 0 1.158-.068 1.542-.202.217-.079.599-.266.687-.603.078-.295-.087-.691-.474-1.144zM-105.887-28.515v0zM-108.602-28.871v0zM-105.793-142.569a9.824 9.824 0 0 1 2.479 1.624 8.701 8.701 0 0 0-2.479-1.624z"/><g><path fill="#1E100D" d="M-184.592-144.289c1.896 2.019 3.379 4.356 4.45 7.017 1.068 2.662 1.605 5.55 1.605 8.668 0 3.061-.491 5.92-1.464 8.58-.981 2.662-2.358 5.001-4.132 7.021-1.773 2.017-3.945 3.606-6.511 4.768-2.572 1.162-5.418 1.744-8.533 1.744-2.88 0-5.553-.582-8.03-1.744a21.315 21.315 0 0 1-6.559-4.768c-1.897-2.02-3.381-4.359-4.451-7.021-1.069-2.659-1.604-5.519-1.604-8.58 0-3.119.488-6.007 1.467-8.668.979-2.661 2.356-4.998 4.129-7.017 1.773-1.955 3.947-3.531 6.514-4.726 2.571-1.193 5.414-1.79 8.535-1.79 2.873 0 5.562.596 8.072 1.79 2.505 1.195 4.678 2.771 6.512 4.726zm-15.781 29.815c.797.063 1.744-.044 2.847-.319 1.101-.276 2.187-.888 3.256-1.836 1.07-.949 2.019-2.324 2.846-4.129.823-1.802 1.389-4.174 1.697-7.107.242-2.939.104-5.369-.415-7.296-.519-1.924-1.223-3.438-2.109-4.54-.889-1.102-1.851-1.881-2.89-2.34-1.038-.461-1.958-.719-2.753-.777-.795-.064-1.759.042-2.89.316-1.13.276-2.218.874-3.256 1.79-1.041.92-1.99 2.279-2.843 4.085-.858 1.804-1.41 4.172-1.654 7.111-.308 2.933-.198 5.364.323 7.292.519 1.925 1.222 3.457 2.106 4.586.89 1.131 1.866 1.925 2.939 2.386 1.069.459 2.004.718 2.796.778zM-131.578-74.998c1.896 2.019 3.376 4.359 4.448 7.02 1.069 2.657 1.604 5.546 1.604 8.667 0 3.061-.492 5.919-1.464 8.575-.983 2.662-2.356 5.002-4.131 7.023-1.775 2.018-3.942 3.607-6.515 4.771-2.566 1.157-5.413 1.74-8.529 1.74-2.879 0-5.552-.583-8.028-1.74a21.438 21.438 0 0 1-6.562-4.771c-1.896-2.021-3.382-4.361-4.449-7.023-1.069-2.656-1.604-5.515-1.604-8.575 0-3.121.485-6.01 1.466-8.667.975-2.661 2.354-5.001 4.128-7.02 1.774-1.956 3.946-3.532 6.516-4.726 2.568-1.191 5.411-1.788 8.533-1.788 2.872 0 5.563.596 8.072 1.788 2.509 1.195 4.68 2.771 6.515 4.726zm-15.783 29.816c.797.06 1.746-.045 2.848-.321 1.102-.274 2.187-.886 3.255-1.833 1.069-.95 2.02-2.323 2.846-4.127.824-1.808 1.39-4.177 1.694-7.111.246-2.939.107-5.367-.41-7.298-.522-1.925-1.224-3.437-2.11-4.54-.888-1.101-1.849-1.881-2.892-2.337-1.04-.459-1.954-.721-2.75-.779-.797-.063-1.758.044-2.891.32-1.131.275-2.217.869-3.258 1.789-1.04.917-1.988 2.28-2.843 4.082-.856 1.806-1.407 4.172-1.651 7.112-.308 2.932-.2 5.362.32 7.291.52 1.927 1.224 3.455 2.11 4.588.889 1.131 1.864 1.924 2.936 2.383 1.071.46 2 .722 2.796.781zM-120.038-93.986c1.588-2.932 5.357-2.543 5.357-2.543.918.184 1.715.552 2.389 1.102a5.503 5.503 0 0 1 1.658 2.249c.36.948.644 2.152.644 3.622v12.752c.461-.673 1.522-1.347 2.565-2.019a31.616 31.616 0 0 1 3.023-1.513c1.198-.518 2.532-.836 4.06-.962 2.385-.185 4.805.109 7.283.872 2.479.764 4.686 2.05 6.646 3.852 1.954 1.805 3.557 4.159 4.813 7.062 1.252 2.908 1.875 6.381 1.875 10.415 0 4.038-.592 7.461-1.784 10.275-1.197 2.812-2.758 5.09-4.682 6.834a17.831 17.831 0 0 1-6.605 3.809 24.636 24.636 0 0 1-15.137 0 17.826 17.826 0 0 1-6.607-3.809c-1.924-1.744-3.49-4.022-4.686-6.834-1.191-2.814-1.796-6.237-1.796-10.275V-88.28s.012-3.905.984-5.706zm29.121 35.348c.123-2.569-.032-4.757-.459-6.562-.429-1.802-1.053-3.286-1.88-4.448-.824-1.163-1.803-2.032-2.934-2.614-1.134-.58-2.281-.904-3.441-.963-1.164-.063-2.323.137-3.488.596-1.16.458-2.218 1.223-3.164 2.292-.951 1.071-1.74 2.478-2.387 4.22-.641 1.744-1.021 3.903-1.143 6.469-.124 2.568.042 4.771.502 6.606.459 1.832 1.101 3.335 1.93 4.495.82 1.163 1.789 2.02 2.889 2.568 1.102.552 2.234.856 3.393.918s2.326-.121 3.488-.546c1.16-.429 2.213-1.181 3.163-2.253.945-1.068 1.741-2.493 2.388-4.264.642-1.774 1.02-3.946 1.143-6.514zM-192.124-30.693h0zM-224.965-162.953c-.365-.948-.557-1.697-1.259-2.247a5.471 5.471 0 0 0-2.365-1.102s-6.089-1.179-6.651 5.419l1.289 36.767c0 1.588-.741 3.852-1.323 4.983-.58 1.133-1.569 2.031-2.977 2.763-1.408.736-3.271 1.063-5.594 1.399-2.326.338-5.69.229-9.175.229h-2.821c-.446 0-2.093.358-2.146 2.465 0 .464.081.809.189 1.186a6.611 6.611 0 0 0 1.783 2.644c.883.797 2.293 1.333 4.253 1.577 3.241.368 6.487.423 9.789.146 3.302-.276 6.231-.986 8.891-2.15 2.661-1.162 4.462-2.843 6.145-5.043 1.684-2.2 2.05-5.012 2.05-8.438v-36.973c0-1.469.294-2.677-.078-3.625zM-135.387-139.284c-1.258-2.903-2.627-5.258-4.617-7.063-1.986-1.805-4.141-3.086-6.586-3.854-2.447-.766-4.835-1.055-7.223-.872-1.594.124-2.983.443-4.174.965-1.19.52-2.5 1.027-3.354 1.512-.981.672-1.962 1.347-2.88 2.019v-12.752c0-1.468.132-2.676-.23-3.624 0 0-1.271-3.008-4.288-3.181-3.013-.171-5.056 2.211-5.585 4.22-.526 2.012-.265 6.988-.265 6.988l1.317 41.099c0 1.468.265 2.673.632 3.62a5.24 5.24 0 0 0 1.683 2.239c.705.551 1.518.761 2.436.942.916.181 1.47.099 2.569.099h.413c1.516 0 1.318-.866 1.318-2.031v-20.461c0-2.63.624-4.831 1.233-6.604a11.862 11.862 0 0 1 2.575-4.22 8.393 8.393 0 0 1 3.415-2.203 10.668 10.668 0 0 1 3.933-.552c1.286.061 2.494.323 3.594.781 1.101.457 2.076 1.239 2.902 2.338.826 1.101 1.213 2.583 1.672 4.451.459 1.867.438 4.204.438 7.016v14.591c0 1.467.438 2.667.804 3.614.365.948 1.025 1.688 1.729 2.239s1.583.761 2.501.942c.913.181 1.989.099 3.089.099h2.447v-21.943c-.001-4.038-.249-7.507-1.498-10.414zM-214.686-45.202c.202.211.397.421.589.635a8.802 8.802 0 0 0-.589-.635zM-214.686-45.202v-.009z"/><g fill="#1E100D"><path d="M-251.83-37.293h.023-.023zM-221.041-41.892c-.193-.209-.392-.427-.598-.642v-.003c-.12-.128-.238-.257-.361-.391a1383.889 1383.889 0 0 0-3.375-3.647 438.362 438.362 0 0 1-3.418-3.736c-1.127-1.25-2.314-2.376-3.328-3.604-2.346-2.847-5.014-6.789-7.568-9.588l16.783-15.026c3.598-3.222.138-4.204-.463-4.349a11.634 11.634 0 0 0-.912-.132c-1.457-.123-3.188.09-5.195.634-2.007.548-4.195 1.886-6.563 4.013-.488.428-1.22 1.066-2.188 1.918-.976.85-2.069 1.79-3.285 2.822-1.217 1.035-2.726 2.099-4.002 3.193s-2.812 2.096-3.733 3.007V-89.67c0-1.458.085-2.659-.276-3.6-.366-.942-.768-1.689-1.467-2.237s-1.438-.91-2.348-1.091c-.34-.07-.66-.121-1.024-.163-.401.004-4.2.189-4.985 5.194l1.247 47.13c0 1.463.184 2.662.549 3.604.364.938.79 1.683 1.49 2.229.296.23.382.423.844.588v.008c0 .018.177.033.213.05.057.023.168.052.226.077.108.043.248.086.366.124.164.061.347.108.521.157.094.024.192.048.288.068.021.003.043.012.064.016.027.008.064.012.093.017.685.148 1.42.048 2.112.1.258.03.507-.132.807-.132h.269c.993 0 1.012.374 1.012.374V-58.567c.922 1.035 2.061 2.131 3.094 3.282 1.034 1.156 2.17 2.311 3.14 3.467.975 1.156 1.97 2.235 2.853 3.237.878 1.002 1.626 1.868 2.173 2.598a79.462 79.462 0 0 0 2.844 3.375c.973 1.095 2 2.085 3.064 2.963a14.978 14.978 0 0 0 3.285 2.098 8.328 8.328 0 0 0 3.512.772c1.478 0 2.667-.16 3.568-.47 1.038-.382 3.269-1.618.672-4.647z"/></g><path fill="#1E100D" d="M-291.449-112.281c.354 0 .714-.032 1.073-.099 3.172-.589 3.178-3.637 2.589-6.809-2.67-14.375-7.49-27.47-17.882-37.863-10.39-10.395-26.673-16.898-37.855-18.733-6.013-.984-9.547 1.519-11.398 5.092-3.395 6.545 2.482 16.493 9.259 15.153 24.519-4.855 45.186 14.032 49.729 38.485.525 2.811 1.727 4.774 4.485 4.774zM-427.036-112.281c-.356 0-.715-.032-1.074-.099-3.174-.589-3.177-3.637-2.59-6.809 2.675-14.375 7.49-27.47 17.882-37.863 10.39-10.395 26.673-16.898 37.856-18.733 6.014-.984 9.545 1.519 11.4 5.092 3.392 6.545-2.483 16.493-9.262 15.153-24.519-4.855-45.185 14.032-49.73 38.485-.523 2.811-1.723 4.774-4.482 4.774zM-291.307-101.438c-3.21-.593-4.628 1.496-5.227 4.668-3.952 20.88-19.008 37.633-38.768 45.642-7.914 2.83-15.831-2.292-17.16-10.076-1.193-4.473.388-15.338.388-15.338.853-4.775-1.72-9.366-6.87-9.434-.137 0-.274.008-.41.022 0-.014-.281-.022-.416-.022-5.15.068-7.727 4.659-6.873 9.434 0 0 1.581 10.866.387 15.338-1.326 7.784-9.243 12.906-17.157 10.076-19.762-8.009-34.816-24.762-38.77-45.642-.601-3.172-2.018-5.261-5.228-4.668-3.205.596-3.647 3.795-3.047 6.966 6.471 34.173 35.865 67.052 71.09 67.052h.019c35.223 0 64.619-32.879 71.094-67.052.599-3.17.153-6.369-3.052-6.966zM-192.012-30.693h0zM-214.573-45.564c.197.21.396.425.587.637a8.783 8.783 0 0 0-.587-.637zM-214.573-45.564l-.003-.005zM-92.045-144.884c-3.768-4.115-8.142-6.164-15.204-6.164h-.854c-7.059 0-11.455 2.049-15.222 6.164-3.762 4.116-5.967 9.725-5.967 16.845V-106.928h3.323c1.1 0 2.131.083 3.049-.099.915-.182 1.747-.445 2.448-.992.705-.554 1.015-1.267 1.382-2.215.369-.948.364-2.121.364-3.588v-13.986c0-2.917.601-5.369 1.182-7.354.58-1.983 1.563-3.547 2.643-4.713 1.08-1.168 2.453-1.979 3.977-2.44h.043c1.024-.459 2.12-.59 3.264-.59 1.479 0 2.892.3 4.155.882a8.817 8.817 0 0 1 2.517 1.635 10.117 10.117 0 0 1 3.041 4.957c.026.087.058.168.078.258.59 1.986 1.165 4.45 1.165 7.367v13.986c0 1.467.016 2.628.381 3.574.367.95.695 1.651 1.399 2.201.704.552 1.534.839 2.452 1.021.918.181 1.946.099 3.045.099h3.292V-128.036c0-7.123-2.185-12.732-5.953-16.848z"/><path fill="#1E100D" d="M-177.987-75.025c-3.767-4.115-8.146-6.164-15.207-6.164h-.849c-7.063 0-11.46 2.049-15.223 6.164-3.766 4.114-5.972 9.724-5.972 16.844v21.113h3.323c1.1 0 2.132.085 3.05-.101.915-.182 1.747-.443 2.447-.995.707-.552 1.02-1.264 1.385-2.213.368-.948.368-2.119.368-3.589v-13.985c0-2.916.591-5.367 1.175-7.351a11.768 11.768 0 0 1 2.649-4.719c1.078-1.162 2.45-1.979 3.971-2.438h.046c1.021-.461 2.118-.589 3.26-.589 1.482 0 2.889.3 4.158.88.924.4 1.777.946 2.517 1.634a10.05 10.05 0 0 1 3.037 4.959c.029.085.06.168.085.256.587 1.984 1.163 4.452 1.163 7.368v13.985c0 1.47.016 2.629.383 3.58.365.945.691 1.646 1.396 2.198.703.551 1.532.837 2.451 1.019.919.186 1.945.101 3.048.101h3.288v-21.113c.001-7.12-2.184-12.73-5.949-16.844z"/><g><path fill="#1E100D" d="M139.551 63.719a5.77 5.77 0 0 0 1.073-.1c3.172-.589 3.178-3.637 2.589-6.809-2.67-14.375-7.49-27.47-17.882-37.862C114.941 8.553 98.658 2.051 87.476.215c-6.013-.983-9.547 1.52-11.398 5.093-3.395 6.546 2.482 16.493 9.259 15.153 24.519-4.855 45.186 14.031 49.729 38.484.525 2.811 1.727 4.774 4.485 4.774zM3.964 63.719c-.356 0-.715-.032-1.074-.1C-.284 63.03-.287 59.982.3 56.81c2.675-14.375 7.49-27.47 17.882-37.862C28.571 8.553 44.854 2.051 56.038.215c6.014-.983 9.545 1.52 11.4 5.093 3.392 6.546-2.483 16.493-9.262 15.153-24.519-4.855-45.185 14.031-49.73 38.484-.523 2.811-1.723 4.774-4.482 4.774zM139.693 74.563c-3.21-.594-4.628 1.496-5.227 4.668-3.952 20.88-19.008 37.633-38.768 45.642-7.914 2.83-15.831-2.292-17.16-10.076-1.193-4.473.388-15.339.388-15.339.853-4.775-1.72-9.365-6.87-9.434-.137 0-.274.008-.41.021 0-.014-.281-.021-.416-.021-5.15.068-7.727 4.658-6.873 9.434 0 0 1.581 10.866.387 15.339-1.326 7.784-9.243 12.906-17.157 10.076-19.762-8.009-34.816-24.762-38.77-45.642-.6-3.172-2.017-5.262-5.227-4.668-3.205.596-3.647 3.795-3.047 6.967 6.471 34.173 35.865 67.052 71.09 67.052h.019c35.223 0 64.619-32.879 71.094-67.052.598-3.173.152-6.372-3.053-6.967z"/></g></g><path fill="#1E100D" d="M-101.811-140.599c.164.154.33.31.478.475 1.031 1.107 1.957 2.606 2.546 4.457a10.06 10.06 0 0 0-3.024-4.932z"/></svg>