<svg xmlns="http://www.w3.org/2000/svg" width="36.794" height="36.793" viewBox="0 0 36.794 36.793"><path fill="#FFD820" stroke="#1E100D" stroke-width="2" stroke-miterlimit="10" d="M35.794 31.539a4.253 4.253 0 0 1-4.254 4.254H5.254A4.254 4.254 0 0 1 1 31.539V5.252A4.253 4.253 0 0 1 5.254 1H31.54a4.253 4.253 0 0 1 4.254 4.252v26.287z"/><linearGradient id="a" gradientUnits="userSpaceOnUse" x1="2.247" y1="2.246" x2="34.548" y2="34.548"><stop offset="0" stop-color="#fff" stop-opacity=".3"/><stop offset="1" stop-color="#ffd820" stop-opacity="0"/></linearGradient><path fill="url(#a)" d="M35.794 31.539a4.253 4.253 0 0 1-4.254 4.254H5.254A4.254 4.254 0 0 1 1 31.539V5.252A4.253 4.253 0 0 1 5.254 1H31.54a4.253 4.253 0 0 1 4.254 4.252v26.287z"/><path fill="none" stroke="#1E100D" stroke-width="2" stroke-miterlimit="10" d="M35.794 31.539a4.253 4.253 0 0 1-4.254 4.254H5.254A4.254 4.254 0 0 1 1 31.539V5.252A4.253 4.253 0 0 1 5.254 1H31.54a4.253 4.253 0 0 1 4.254 4.252v26.287z"/><g><path d="M15.998 17.492l.455-.322c1.512-1.053 1.771-2.543 1.49-4.23-.276-1.648-1.332-2.53-2.875-2.899a7.77 7.77 0 0 0-1.713-.208c-2.39-.023-4.781.005-7.169-.023-.539-.007-.688.142-.687.683.02 5.166.019 10.331.001 15.497-.003.527.127.699.678.692 2.417-.031 4.837-.016 7.255-.016.664 0 1.31-.121 1.943-.317 1.963-.603 3.196-2.02 3.349-3.845.213-2.534-.526-3.929-2.727-5.012zm-5.249-4.797c.769.001 1.538-.05 2.302.08 1.099.186 1.6.795 1.578 1.937-.022 1.106-.716 1.772-1.796 1.866-.6.053-.934.01-1.934.01v-.037s-1.463.266-1.865-.068c-.479-.399-.089-1.337-.101-2.038-.021-1.752.055-1.757 1.816-1.75zm2.74 11.015c-1.334.219-2.683.055-4.023.106-.354.013-.485-.129-.48-.48.013-1.234.016-2.469 0-3.702-.005-.382-.061-.46.262-.454.633.01 1.652.003 1.652.003v.036c1 0 1.561-.051 2.213.012 1.229.116 1.996.881 2.033 2.154.041 1.39-.381 2.115-1.657 2.325zM26.517 14.172c-2.36-.383-4.772.773-5.873 2.928-1.202 2.355-1.194 4.777.041 7.115 1.055 1.999 2.866 2.791 5.062 2.769 2.037-.018 3.688-.76 4.695-2.633.795-1.477.794-1.478-.884-1.478-.109 0-.222.01-.329-.002-.58-.063-.964.106-1.356.623-.786 1.029-1.93 1.187-3.132.834-1.128-.33-1.54-1.229-1.729-2.29-.086-.484.03-.764.579-.745 1.182.044 2.364-.061 3.544-.061h2.063c2.301 0 2.301.075 1.897-2.265-.462-2.659-2.172-4.405-4.578-4.795zm.977 5.087c-.658-.042-1.319-.01-1.979-.01s-1.323-.021-1.98.007c-.438.018-.588-.104-.494-.562.243-1.207 1.266-2.04 2.547-2.033 1.274.007 2.113.712 2.383 1.965.091.429.066.667-.477.633zM22.332 11.891c-.052.363-.116.774.523.742.874-.044 1.751-.012 2.627-.012.905 0 1.811-.031 2.711.012.62.03.602-.347.544-.732-.052-.359.304-.949-.494-.945-1.807.01-3.614.014-5.423-.002-.807-.009-.439.584-.488.937z"/></g></svg>