<svg xmlns="http://www.w3.org/2000/svg" width="57" height="57" viewBox="0 0 57 57"><path fill="#ECCE16" d="M3.331 2.909h51v51h-51z"/><path fill="#1E100D" d="M0 0v57h57V0H0zm54 54H3V3h51v51z"/><g fill="#1E100D"><path d="M29.977 23.252c-.099-.193-.098-.402-.092-.612a4.97 4.97 0 0 1-.023-.217c-.135-.474-.266-.947-.401-1.42-.293-1.014-.876-1.879-1.545-2.652-.422-.492-1.05-.808-1.585-1.201l-.966-.453-.924-.305-.614-.144-.225.021c-.2.162-.437.072-.657.095-.452-.201-.932-.09-1.397-.102-.745-.02-1.49-.008-2.236-.008-1.263 0-2.529.023-3.792-.009-.495-.013-.617.159-.616.634.014 7.973.011 15.965.011 23.919h3.627c0-2.409 0-4.784.004-7.179.001-.208-.06-.439.107-.607l-.014-.033v.004c.336-.217.642-.111.954-.104.669.018 1.352-.111 2.014.074.044.018.093.031.138.047.179-.007.36-.01.539-.016a3.99 3.99 0 0 1 .187-.025c.37-.184.826-.018 1.177-.287l-.131-.078c.211-.049.406-.248.64-.056l.439-.136c.36-.404.846-.531 1.352-.62 2.207-1.093 3.331-2.962 3.81-5.296-.086-.146-.213-.295.015-.432.217-.143.069-.411.197-.585.008-.064.018-.128.021-.19-.007-.675-.009-1.35-.014-2.027zm-3.95.925c-.039.584-.063 1.162-.179 1.738-.423 2.104-2.372 3.465-4.447 3.433-.623.079-1.246.045-1.869-.002l-.756-.016a.293.293 0 0 1-.098.018c-.18-.131-.136-.326-.136-.502-.002-2.867-.002-5.734-.002-8.603 0-.162-.025-.333.11-.463a.164.164 0 0 1 .107-.002 1.42 1.42 0 0 1 .114-.011l.022-.024.027.016.003-.001.081-.075c-.027-.036-.176-.07-.063-.101.189-.051.411-.076.585.084l2.207-.005c.185-.153.396-.104.758-.064-.248.047-.351.065-.456.084l.083.078c.219-.043.38.194.605.12.16-.021.312-.001.439.109.324.163.699.214.989.448.968.674 1.569 1.581 1.753 2.754.024.162.063.319.097.479l.033-.314c.065.277.188.555-.007.822zM42.415 22.298c-.362.013-.728.024-1.091.038-.333.099-.665.196-.998.296l-.744.348c-.917.61-1.809 1.248-2.459 2.211l-.087-1.125c-.009-.062-.019-.123-.027-.188-.157-.325-.055-.729-.307-1.029-.974.004-1.947.016-2.923.006-.323-.002-.537.062-.492.443.113.2.104.421.111.641.182 5.506.086 11.015.108 16.522 0 .257.001.514.003.77 1.006.002 2.014-.022 3.018.014.488.017.621-.146.619-.624-.018-3.714-.013-7.429-.008-11.142.002-.227-.091-.482.139-.667.027-.009.056-.012.082-.009.033-.023.066-.045.103-.067.156-.151.321-.3.474-.459.864-.908 1.94-1.389 3.174-1.549l.01-.029-.028-.012c0-.064-.217-.132-.021-.184.152-.042.33-.046.465.086.333.006.662.008.994.013.115-.107.144-.242.144-.394a403.45 403.45 0 0 1 0-3.479c-.002-.207-.07-.348-.259-.431zM14.799 40.906a1.96 1.96 0 0 1 .108-.008l.001-.002.001-.035a.422.422 0 0 1-.037-.029.497.497 0 0 1-.083-.143c-.002.068-.002.14-.002.207a.03.03 0 0 1 .012.01z"/><path d="M15.424 16.191c.175-.025.349-.044.523-.06h-.309c-.278-.033-.555-.051-.829.031v.211c.076-.12.244-.13.615-.182z"/><path d="M18.52 16.155c-.857-.015-1.714-.017-2.572-.023a9.195 9.195 0 0 0-.523.06c-.371.052-.539.062-.614.183L14.8 39.928c0 .254-.004.51-.009.764a.497.497 0 0 0 .083.143c.012.014.025.021.037.029l.002-.069c0-7.972.003-15.943-.011-23.916-.001-.475.121-.643.616-.63 1.263.032 2.529.009 3.792.009-.244-.189-.527-.099-.79-.103zM14.754 40.877c-.005-.006-.007-.016-.011-.021-.002.019-.006.033-.01.053a.195.195 0 0 0 .054.007v-.013a.13.13 0 0 0-.033-.026zM14.81 16.163a.23.23 0 0 0-.083-.004c.007.033.01.068.014.102a.359.359 0 0 1 .069-.098z"/><path d="M14.771 40.798c0 .021-.014.038-.015.06.003.006 0 .015.003.021.012.007.019.013.03.021.002-.067.014-.139.015-.207a.7.7 0 0 1-.033-.252v.357zM14.745 16.654v23.665l.003-.172c-.003-7.735-.003-15.467-.002-23.203 0-.31.003-.473.063-.57v-.211a.365.365 0 0 0-.069.098c.011.131.005.262.005.393z"/><path d="M14.804 40.689c.003-.254.002-.51.002-.764.004-7.852.003-15.702.007-23.553-.059.098-.064.261-.064.57-.002 7.735.01 15.467.014 23.202 0 .058.009.114.009.172v.119a.645.645 0 0 0 .032.254zM14.74 16.261c-.004-.033-.007-.068-.014-.102-.004.063-.012.123-.019.183a.625.625 0 0 1 .033-.081zM14.743 40.855a.46.46 0 0 1-.047-.178c0-.391 0-.781-.002-1.173v1.39l.039.014a.415.415 0 0 0 .01-.053z"/><path d="M14.757 40.855c.001-.021.015-.039.015-.059v-.359c0-.041-.015-.08-.015-.119.001-7.887-.006-15.776-.006-23.665 0-.131.005-.263-.008-.394a.345.345 0 0 0-.033.081c-.008.086-.018.171-.018.255 0 7.637 0 15.272.004 22.909 0 .392.006.782.006 1.173a.442.442 0 0 0 .055.178zM14.771 40.438v-.119.119zM36.307 41.396c-.73.004-1.461.004-2.193 0-.217-.002-.44.015-.629-.133l-.027-.033-.055.002c0 .033-.004.063-.006.097.045.034.09.071.137.104 1.189-.002 2.382-.004 3.57-.004l.17-.178v-.286c-.067.396-.279.431-.967.431z"/><path d="M33.482 41.264c.188.147.412.133.629.135.732.002 1.464.002 2.195 0 .688-.002.899-.037.965-.432l.004-12.155c-.229.184-.137.44-.139.667-.005 3.713-.01 7.428.008 11.142.002.479-.131.641-.619.624-1.004-.036-2.012-.012-3.018-.014-.02.002-.033.002-.052.002a.1.1 0 0 1 .027.031zM33.307 27.052c-.01-.846.006-1.695-.017-2.542-.011.199-.026.397-.022.596.01.646.021 1.288.03 1.935.005.003.009.008.009.011zM33.434 41.195c-.012-.02-.022-.035-.031-.055v.062a.078.078 0 0 1 .031-.007zM33.227 25.063l-.031-.031v.022c.008-.002.02.003.031.009zM33.234 23.346v-.024h-.061c.004.055.006.136.008.211.037.092.063.184.082.276a17.424 17.424 0 0 0-.029-.463z"/><path d="M33.234 23.346c.011.154.021.303.029.457.047.235.041.471.025.71.021.847.007 1.695.018 2.541.146.211.084.451.084.679.006 4.47.008 8.938.01 13.408.01.021.021.036.031.057.027 0 .053.012.076.033a98.627 98.627 0 0 1-.003-.77c-.022-5.508.073-11.004-.108-16.51-.008-.222.002-.463-.111-.63h-.051v.025z"/><path d="M33.4 41.202v.03l.056-.002c-.009-.01-.015-.021-.024-.035a.11.11 0 0 0-.032.007z"/><path d="M33.434 41.195c.008.014.014.025.023.035h.052c-.025-.022-.049-.035-.075-.035zM33.359 41.253c.006-.028.014-.041.021-.041a.628.628 0 0 1-.057-.073.351.351 0 0 1-.053.096c.041.031.084.063.123.096-.028-.024-.039-.05-.034-.078z"/><path d="M33.382 41.212c-.008 0-.017.013-.022.041-.004.028.007.054.037.076.002-.033.006-.063.006-.097-.008-.005-.014-.013-.021-.02zM33.338 29.509c.001 3.718.001 7.435-.002 11.152.004-.063.008-.126.008-.188-.005-3.657.028-7.31-.006-10.964zM33.425 41.202v-.062c-.055-.052-.054-.104-.063-.158a.495.495 0 0 1-.029.156.7.7 0 0 0 .053.072l.012-.001c.004-.001-.028-.005.027-.007zM33.309 27.063s0-.006-.002-.011c0-.003-.004-.008-.009-.012.005.009.009.016.011.023z"/><path d="M33.338 27.473v2.036c.034 3.654-.009 7.31-.006 10.966 0 .062-.018.123-.018.188v.096c0 .074.021.149.021.227a.652.652 0 0 0 .061.158c-.002-4.471 0-8.939-.008-13.409 0-.229.063-.47-.082-.681v.007c.053.135.032.275.032.412zM33.383 41.211s0 .001 0 0a.08.08 0 0 0 .02.021v-.03c-.007.002-.014.006-.02.009zM33.271 41.04v.192a.37.37 0 0 0 .054-.094 1.192 1.192 0 0 1-.054-.098z"/><path d="M33.348 40.982a1.498 1.498 0 0 1-.012-.321c.003-3.718.003-7.437.002-11.152-.006-.726-.014-1.452-.025-2.178-.002-.09-.004-.179-.004-.269a.09.09 0 0 0-.011-.022c-.005.2-.014.402-.014.601l-.013 13.399c.016.033.031.065.054.099a.463.463 0 0 0 .023-.157z"/><path d="M33.309 27.063c0 .09.002.179.004.269.013.726.02 1.452.025 2.178v-2.036c0-.138.021-.278-.029-.411zM33.313 40.661c0 .106-.008.216.013.321 0-.076-.013-.151-.013-.227v-.094zM37.271 41.253a.319.319 0 0 0 .082-.021.316.316 0 0 1-.037-.084.406.406 0 0 1-.045.105zM37.357 28.803a.194.194 0 0 0-.082.009.398.398 0 0 1 .039.081.339.339 0 0 1 .043-.09z"/><path d="M37.303 40.807c-.002-3.647 0-7.299 0-10.947-.007 3.515 0 7.026-.003 10.539-.001.244-.005.43-.026.568v.286c.02-.034.031-.067.045-.104-.04-.109-.016-.228-.016-.342z"/><path d="M37.3 40.396c.003-3.512-.004-7.023.003-10.539v-.629c0-.111-.021-.229.014-.336-.012-.026-.022-.054-.039-.081-.002 4.05-.004 8.104-.004 12.155.021-.139.025-.323.026-.57zM37.354 40.662v.085c.004-3.845.004-7.688.004-11.53 0 .063-.004.124-.004.186.003 3.754.003 7.506 0 11.259zM37.348 29.15v-.253c0 .017-.017.033-.025.051a.828.828 0 0 1 .025.202zM37.311 41.148c.008.029.037.059.037.084v-.315a.75.75 0 0 1-.037.231z"/><path d="M37.328 28.948c.009-.018.02-.034.02-.051v-.095c0 .029-.029.058-.039.09.005.019.013.039.019.056zM37.327 28.962a.95.95 0 0 0-.024.188v.707c0 3.649-.002 7.301 0 10.947 0 .115-.025.234.01.344a.668.668 0 0 0 .035-.231v-.17c0-.029.004-.058.004-.085.002-3.753-.002-7.505-.004-11.26-.002-.063 0-.123 0-.187v-.065a.77.77 0 0 0-.02-.202c-.002.005.001.01-.001.014z"/><path d="M37.327 28.962l.007-.014-.02-.056c-.032.108-.014.225-.014.336v.629c.002-.234.002-.471.002-.707.003-.061.011-.125.025-.188zM21.71 33.077a.713.713 0 0 0 .034-.076.445.445 0 0 1-.16.049c.042.009.084.016.126.027zM18.656 40.868a.066.066 0 0 0 .019.009.261.261 0 0 1-.014-.055l-.001-.129-.004.008v.167zM18.661 32.979l-.011.012.001-.001z"/><path d="M19.271 32.98c.769.043 1.546-.086 2.313.068a.404.404 0 0 0 .16-.049c-.045-.016-.09-.029-.134-.047-.779.013-1.56.023-2.339.028zM18.656 40.701l.004-.008-.003-.385-.001.393zM18.983 32.986l-.322.005v.332c.033-.199.136-.303.322-.337z"/><path d="M21.57 33.05c-.909.009-1.823-.092-2.729.058a.371.371 0 0 0-.107.158c-.064 2.264-.008 4.526-.03 6.791-.002.211.039.437-.043.639l.001.128a.222.222 0 0 0 .014.055.14.14 0 0 0 .077.005c.002-2.438.011-4.877-.005-7.316-.003-.383.098-.5.488-.487.824.024 1.649.002 2.476 0a1.133 1.133 0 0 0-.126-.027c-.007-.004-.011-.004-.016-.004z"/><path d="M18.661 33.323l-.004 6.985.003.385c.082-.201.041-.428.043-.639.022-2.264-.034-4.525.03-6.791a.356.356 0 0 1 .107-.156c.907-.149 1.82-.049 2.729-.059h.014c-.768-.154-1.544-.025-2.313-.068l-.287.006c-.186.034-.289.138-.322.337zM15.72 16.06a1.123 1.123 0 0 0-.081.072c.073-.031.148-.057.223-.076a6.545 6.545 0 0 0-.142.004zM22.837 16.132c-.123-.051-.287.005-.395-.087-.128-.005-.255-.013-.382-.019h-2.89a.25.25 0 0 1 .077.065h.01c1.194.027 2.389-.05 3.58.041z"/><path d="M22.837 16.132c-1.191-.091-2.386-.014-3.579-.04h-.01c.03.04.05.091.061.163.746 0 1.491-.012 2.236.008.466.012.945-.1 1.397.102l.006-.123a.211.211 0 0 0-.111-.11zM19.248 16.092a.227.227 0 0 0-.077-.065h-1.289c-.293 0-.589.003-.884.004l-1.136.025c-.074.02-.149.045-.223.076h.309c1.099-.089 2.201 0 3.3-.04z"/><path d="M15.947 16.132c.858.007 1.715.009 2.572.023.264.004.547-.086.789.1a.35.35 0 0 0-.061-.163c-1.098.04-2.2-.049-3.3.04zM33.234 23.249c.004-.307.021-.441.152-.501-.072.002-.144.002-.213.002-.113.183-.027.365 0 .548.022-.037.043-.053.061-.049zM36.384 22.731c.112.027.216.067.323.117-.035-.039-.061-.078-.094-.117h.007-.236z"/><path d="M33.387 22.748c-.13.06-.146.194-.15.501.017.002.031.018.05.049-.045-.382.169-.445.493-.443.975.01 1.947-.002 2.922-.006a1.761 1.761 0 0 0-.328-.117l-2.987.016zM33.234 23.298v-.049c-.02-.004-.039.012-.061.049h.061z"/><path d="M33.234 23.249v.049h.051c-.017-.031-.033-.047-.051-.049zM33.176 22.651a.652.652 0 0 0-.001.099.424.424 0 0 1 .173-.09l-.172-.009zM36.6 22.731a2.312 2.312 0 0 0-.014-.088c-.129.01-.258.018-.385.026.133.015.266.034.399.062z"/><path d="M35.633 22.694c.127-.001.258-.001.385-.004.123 0 .252.015.366.041h.235c-.168-.028-.273-.048-.408-.062-.19.01-.391.019-.578.025zM33.83 22.698c.128-.003.255-.003.382-.004a35.631 35.631 0 0 1-.864-.034.424.424 0 0 0-.173.09c.069 0 .14 0 .212-.002.088-.041.224-.047.443-.05z"/><path d="M36.018 22.69c-.127.003-.258.003-.385.004-.475.014-.947.013-1.421 0-.127.001-.254.001-.382.004-.219.003-.355.009-.443.05l2.986-.017a1.596 1.596 0 0 0-.355-.041zM33.389 22.65l-.213.001.172.009a.308.308 0 0 1 .041-.01zM34.245 22.649l-.358.001c.119.001.239 0 .358-.001zM36.201 22.67l.385-.026-.652.001c.087.006.177.013.267.025z"/><path d="M35.633 22.694c.188-.006.379-.016.568-.024a4.103 4.103 0 0 0-.27-.025l-1.688.005a21.45 21.45 0 0 1-.359.001h-.498a.611.611 0 0 0-.041.01c.289.016.576.026.865.034.476-.003.948 0 1.423-.001z"/><path d="M35.633 22.694c-.475.001-.947-.002-1.421 0 .474.013.946.014 1.421 0zM25.944 31.783a7.242 7.242 0 0 0-1.352.619c.479-.143.943-.324 1.352-.619z"/><path d="M24.593 32.402c.427-.26.883-.452 1.352-.619-.507.089-.992.216-1.352.619zM33.182 23.52c-.002.367-.007.733-.009 1.101a.192.192 0 0 1 .028.05c.033-.384.07-.767-.019-1.151z"/><path d="M33.201 24.67c.056.118.033.237-.008.361.011.009.021.021.031.031a.125.125 0 0 1 .043.043c-.004-.198.01-.396.021-.596a24.444 24.444 0 0 0-.025-.714 1.699 1.699 0 0 0-.082-.276c.09.385.053.768.02 1.151z"/><path d="M33.266 23.796c.01.239.021.476.024.714a2.669 2.669 0 0 0-.024-.714zM33.227 25.063c.016.015.028.026.041.043a.13.13 0 0 0-.041-.043zM33.201 24.67c-.008-.018-.018-.033-.028-.05.003.084.009.168.013.253.003-.067.009-.134.015-.203z"/><path d="M33.201 24.67c-.006.069-.012.136-.016.203l.008.158c.041-.124.064-.243.008-.361zM23.219 16.222c.124.029.251.05.381.048l-.218-.143a.214.214 0 0 1-.163.095z"/><path d="M23.139 16.218l-.003-.002c-.037.041-.09.039-.145.032a.176.176 0 0 1-.049.116c.22-.022.457.067.657-.095a1.566 1.566 0 0 1-.381-.048.236.236 0 0 1-.079-.003z"/><path d="M22.948 16.241l-.006.123a.176.176 0 0 0 .049-.116l-.043-.007zM23.146 16.204l.073.018a.21.21 0 0 0 .163-.095c-.071.012-.144.021-.215.032-.006.02-.015.033-.021.045z"/><path d="M23.139 16.218a.274.274 0 0 0 .08.004 7.87 7.87 0 0 1-.073-.018l-.01.012a.014.014 0 0 0 .003.002zM23.644 32.602c-.087-.004.021.045.001.071a.954.954 0 0 0 .509-.134c-.181-.073-.337.068-.51.063z"/><path d="M23.514 32.596c.043.024.087.051.131.077.02-.026-.088-.075-.001-.071.174.006.329-.136.51-.063-.234-.193-.429.007-.64.057zM29.754 26.487c.16-.139.119-.283.014-.432-.047.144-.026.288-.014.432z"/><path d="M29.754 26.487c-.012-.145-.033-.288.014-.432-.227.137-.1.286-.014.432zM18.71 20.64c0-.211-.043-.434.05-.634l-.001-.229a.164.164 0 0 0-.107.002l.001 8.966c.001.2.017.401.026.603a.303.303 0 0 0 .098-.018.277.277 0 0 1-.069-.195c-.004-2.831-.002-5.664.002-8.495z"/><path d="M18.774 29.23c-.004-3.074-.011-6.149-.015-9.226-.093.2-.05.423-.05.634-.004 2.831-.006 5.664-.002 8.495a.274.274 0 0 0 .069.195.785.785 0 0 1-.002-.098zM18.599 28.992a5276.04 5276.04 0 0 1-.001-8.896c0-.109-.017-.221.054-.317-.136.13-.11.301-.11.463 0 2.868 0 5.735.002 8.603 0 .176-.044.372.136.502-.128-.095-.081-.234-.081-.355z"/><path d="M18.651 19.779c-.07.097-.054.208-.054.317-.002 2.965-.002 5.93.001 8.896 0 .121-.047.26.08.355-.01-.201-.025-.403-.026-.604l-.001-8.964zM18.595 40.794c-.011.019-.018.035-.031.052-.009.006-.015.012-.024.016.001.013.003.021.003.035a.64.64 0 0 1 .087.004l.007.007v-.038c0-.016-.031-.041-.042-.076zM18.661 32.982v-.003l-.007.009z"/><path d="M18.568 40.846a.688.688 0 0 0 .037-.052l-.005-.017c-.011-2.459-.002-4.907-.003-7.367 0-.137-.039-.286.055-.396h-.002c-.167.168-.106.396-.107.604-.004 2.395-.004 4.783-.004 7.179l.004.068c.008-.008.017-.013.025-.019zM18.656 40.868v-.167a.501.501 0 0 1-.051.093c.011.035.028.06.051.074zM18.654 32.988l.007-.009-.01.011z"/><path d="M18.657 40.311c-.015-2.265.004-4.529-.012-6.791a.942.942 0 0 1 .016-.195v-.332h-.009c-.094.126-.055.273-.055.41.001 2.457-.008 4.916.003 7.377l.005.016a.568.568 0 0 0 .051-.093l.001-.392z"/><path d="M18.657 40.311l.004-6.986a.955.955 0 0 0-.016.195c.016 2.259-.002 4.526.012 6.791zM14.908 40.898h.068l-.054-.028c-.002.009-.006.021-.015.026l.001.002zM18.507 40.885c-.007.006-.015.006-.021.012h.026c-.001-.006-.003-.008-.005-.012z"/><path d="M14.923 40.875c.018.01.034.02.054.025 1.17-.002 2.34-.004 3.509-.004.007-.004.015-.004.021-.008-.007-.033.004-.091.032-.091h-3.627c.014.002.017.057.011.078z"/><path d="M14.923 40.87c-.005-.002-.008-.006-.014-.009l-.001.035c.009-.005.013-.017.015-.026z"/><path d="M14.923 40.87a.11.11 0 0 0-.012-.078l-.002.069c.006.003.009.007.014.009zM18.544 40.896l-.001-.035a.199.199 0 0 1-.036.023c.002.004.004.006.005.012h.032z"/><path d="M18.507 40.885l.036-.023-.004-.068a.093.093 0 0 0-.032.091zM21.599 32.954c-.664-.187-1.347-.058-2.014-.074-.313-.009-.612-.112-.948.104v.004c1.008-.127 1.977-.054 2.962-.034zM18.65 32.991zM18.651 32.99l-.001.001z"/><path d="M18.637 32.99c.112 0 .228-.002.336-.004.062-.01.138-.012.218-.008a.964.964 0 0 0 .076.002c.781-.006 1.55-.017 2.33-.026-.984-.02-1.952-.093-2.96.036z"/><path d="M18.983 32.986l.287-.006c-.025 0-.05 0-.074-.002a1.197 1.197 0 0 0-.213.008zM18.65 32.991h.002zM18.652 32.984h.009v.007h-.009z"/><path d="M18.651 32.99h.001v.002h-.001zM18.652 32.991h.009zM26.003 23.668c.131.164.09.336.024.509.194-.267.071-.545.009-.823l-.033.314z"/><path d="M26.003 23.668c.009.169.017.34.024.509.066-.173.107-.345-.024-.509zM19.528 19.665c-.174-.16-.396-.135-.585-.084-.114.03.035.064.063.101.171-.118.348-.086.522-.017z"/><path d="M19.374 19.67l.155-.005c-.175-.069-.352-.101-.522.017l.158-.005a.91.91 0 0 1 .209-.007z"/><path d="M19.164 19.677c.07-.004.14-.005.21-.007a.921.921 0 0 0-.21.007zM22.038 19.68c.105-.019.208-.037.456-.084-.362-.04-.573-.089-.758.064.105-.059.209-.081.302.02z"/><path d="M21.735 19.66l.302.02c-.092-.101-.196-.079-.302-.02zM41.4 26.667c-.023-.009-.049-.014-.072-.019.023.01.047.023.07.04 0-.006 0-.014.002-.021z"/><path d="M41.328 26.648c.023.005.049.01.072.019.014-.07.047-.107.132-.078-.134-.132-.313-.128-.464-.086-.197.052.02.119.02.184.082-.055.163-.069.24-.039zM41.398 26.688l.021.018a.213.213 0 0 0 .026-.027c-.016-.005-.029-.01-.045-.012-.002.007-.002.015-.002.021z"/><path d="M41.4 26.667c.017.002.031.007.047.012.027-.03.058-.059.085-.09-.085-.029-.117.008-.132.078zM41.398 26.688a.357.357 0 0 0-.07-.04.28.28 0 0 0-.2.034l-.003.006.282.018c-.005-.005-.009-.01-.009-.016v-.002z"/><path d="M41.128 26.683a.28.28 0 0 1 .2-.034c-.077-.03-.158-.017-.24.038a.217.217 0 0 0 .037.002l.003-.006zM41.398 26.69c0 .006.004.011.009.016h.013c-.007-.006-.014-.01-.021-.018v.002h-.001zM18.632 40.908h.001l.008-.01zM14.907 40.898a.116.116 0 0 1-.065.029.366.366 0 0 0 .146.025.327.327 0 0 1-.081-.054zM18.521 40.915l-.007.004h.008-.001zM14.799 40.906h-.002c.011.007.021.014.033.02l-.031-.02z"/><path d="M14.799 40.906l.031.02.012.004a.146.146 0 0 0 .065-.029.781.781 0 0 0-.108.005z"/><path d="M18.522 40.919l-.009.002a.52.52 0 0 1-.323.09c-.975.005-1.951.005-2.928 0a.574.574 0 0 1-.274-.057.418.418 0 0 1-.146-.024h-.003a.58.58 0 0 1-.042-.024c.038.042.076.083.112.126 1.212-.003 2.42 0 3.632-.003.029-.04.062-.063.092-.118h-.001c-.033.056-.069.034-.11.008z"/><path d="M14.839 40.93h.003l-.012-.004a.023.023 0 0 0 .009.004zM18.521 40.919a.34.34 0 0 1 .044-.008.712.712 0 0 1 .066-.003c.002-.004.006-.006.009-.01l-.097-.004a.146.146 0 0 0-.023.021l.001.004z"/><path d="M18.522 40.919c.041.026.076.024.109-.011a.712.712 0 0 0-.066.003c-.014.002-.029.004-.043.008zM14.988 40.954l.07.003c.926-.003 1.852.01 2.777-.001-.815.004-1.632.004-2.447-.002-.141 0-.284.006-.412-.056h-.068a.374.374 0 0 0 .08.056zM18.386 40.945a.807.807 0 0 1 .128-.026c.002 0 .005.005.007.003-.005-.007-.007-.011-.009-.011h-.026c-.063 0-.127.037-.193.044.03-.001.061-.01.093-.01z"/><path d="M17.836 40.956l.456-.008a.632.632 0 0 0 .193-.054l-3.509.004c.128.062.271.056.412.056.816.006 1.633.006 2.448.002z"/><path d="M18.292 40.948c-.08.008-.163.006-.244.006l-.212.002c-.926.011-1.852-.002-2.777.001l-.07-.003a.6.6 0 0 0 .274.057c.977.005 1.953.005 2.928-.002a.52.52 0 0 0 .323-.09c-.043.007-.086.017-.128.026-.032 0-.063 0-.094.003z"/><path d="M18.292 40.948l-.456.008.212-.002c.081 0 .164.002.244-.006zM18.521 40.915l.023-.021h-.032c.002.006.004.012.009.021z"/></g></svg>