<svg xmlns="http://www.w3.org/2000/svg" width="36.794" height="36.794" viewBox="0 0 36.794 36.794"><path fill="#FFD820" stroke="#1E100D" stroke-width="2" stroke-miterlimit="10" d="M35.794 31.54a4.255 4.255 0 0 1-4.254 4.254H5.254A4.254 4.254 0 0 1 1 31.54V5.254A4.253 4.253 0 0 1 5.254 1H31.54a4.254 4.254 0 0 1 4.254 4.254V31.54z"/><linearGradient id="a" gradientUnits="userSpaceOnUse" x1="2.246" y1="2.245" x2="34.548" y2="34.548"><stop offset="0" stop-color="#fff" stop-opacity=".3"/><stop offset="1" stop-color="#ffd820" stop-opacity="0"/></linearGradient><path fill="url(#a)" d="M35.794 31.54a4.255 4.255 0 0 1-4.254 4.254H5.254A4.254 4.254 0 0 1 1 31.54V5.254A4.253 4.253 0 0 1 5.254 1H31.54a4.254 4.254 0 0 1 4.254 4.254V31.54z"/><path fill="none" stroke="#1E100D" stroke-width="2" stroke-miterlimit="10" d="M35.794 31.54a4.255 4.255 0 0 1-4.254 4.254H5.254A4.254 4.254 0 0 1 1 31.54V5.254A4.253 4.253 0 0 1 5.254 1H31.54a4.254 4.254 0 0 1 4.254 4.254V31.54z"/><path d="M29.105 11.784a.637.637 0 0 1-.063-.01c-.043.017-.088.017-.128-.02-.021-.021.015-.055.051-.063.036-.108.139-.151.224-.211a5.497 5.497 0 0 0 1.977-2.576c.005-.014.005-.026-.003-.057-.097-.005-.168.058-.246.102-.917.509-1.895.854-2.911 1.093-.199.047-.345 0-.49-.144-1.191-1.174-2.646-1.666-4.293-1.552-2.399.164-4.444 1.951-4.97 4.294-.164.732-.163 1.47-.048 2.211.048.311-.004.362-.318.338a16.34 16.34 0 0 1-3.825-.743 15.988 15.988 0 0 1-5.042-2.721 15.64 15.64 0 0 1-2.162-2.089c-.197-.228-.23-.228-.357.052-.307.68-.5 1.386-.539 2.143-.059 1.236.246 2.363.936 3.383.34.503.734.959 1.238 1.31.025.017.048.032.071.052.048.044.124.083.109.152-.023.089-.116.076-.187.076-.373.001-.733-.086-1.094-.179a5.78 5.78 0 0 1-.978-.373c-.104-.047-.157-.05-.153.097a5.406 5.406 0 0 0 .998 2.979 5.443 5.443 0 0 0 3.074 2.169c.099.029.266.016.266.142-.003.142-.174.127-.281.146-.602.11-1.208.15-1.818.063-.212-.03-.248.011-.165.206.507 1.232 1.319 2.195 2.502 2.839a5.998 5.998 0 0 0 1.936.644c.136.022.274.018.412.027.057.004.129 0 .153.063.03.071-.024.125-.073.166a6.313 6.313 0 0 1-.616.451c-.765.5-1.582.899-2.439 1.208a8.35 8.35 0 0 1-1.387.383c-.082.013-.163.025-.239-.008-.04.097-.14.098-.225.113-.898.171-1.807.167-2.715.135a1.512 1.512 0 0 0-.307-.049.167.167 0 0 0-.018.005l.004.002c.604.369 1.226.704 1.87.993.811.364 1.648.652 2.509.876.664.172 1.333.311 2.013.39 1.04.123 2.085.147 3.134.086.683-.043 1.36-.131 2.031-.259a15.022 15.022 0 0 0 8.166-4.391 16.367 16.367 0 0 0 2.36-3.18 16.554 16.554 0 0 0 1.756-4.475c.193-.819.328-1.651.381-2.499.028-.507.027-1.017.028-1.526a.526.526 0 0 1 .227-.463c.905-.665 1.668-1.47 2.329-2.375.047-.066.091-.137.152-.191-.727.315-1.484.528-2.256.697a4.173 4.173 0 0 1-.561.068z"/></svg>