<svg xmlns="http://www.w3.org/2000/svg" width="52" height="52" viewBox="0 0 52 52"><path fill="#FFE120" d="M24.475 1.576l-2.634.941-2.383 1.025.219 4.995 1.597 3.67.754 4.891.753 2.069.094 4.704-1.223 1.317-6.962-.376-5.644-.095-.188 6.585 34.805.846.659-7.055L30.5 24.75l-.102-1.351.096-4.326 1.035-2.822 1.036-4.798 1.6-5.643-1.885-3.388z"/><linearGradient id="a" gradientUnits="userSpaceOnUse" x1="14.801" y1="6.145" x2="33.337" y2="38.251"><stop offset="0" stop-color="#fff" stop-opacity=".8"/><stop offset=".117" stop-color="#fff" stop-opacity=".707"/><stop offset="1" stop-color="#fff" stop-opacity="0"/></linearGradient><path opacity=".6" fill="url(#a)" d="M24.85 1.5l-3.017.583-2.541 2.25.76 4.128 1.597 3.669.754 4.891.753 2.069.094 4.704-1.223 1.318-6.962-.377-5.644-.094-.188 6.585 34.805.846.659-7.054-14.322-.143.398-1.552.096-4.326 1.035-2.822 1.036-4.798 1.6-5.644-1.885-3.387z"/><path fill="#1D1210" d="M22.563 19.5l.062 4.938 8.188.312-.063-5.312z"/><g><radialGradient id="b" cx="517.947" cy="6008.99" r="17.061" gradientTransform="matrix(1.1083 0 0 .1273 -548.19 -715.148)" gradientUnits="userSpaceOnUse"><stop offset="0" stop-color="#e6c816"/><stop offset=".417" stop-color="#edcf19" stop-opacity=".584"/><stop offset="1" stop-color="#ffe121" stop-opacity=".003"/></radialGradient><ellipse fill="url(#b)" cx="25.85" cy="49.797" rx="18.633" ry="2.203"/><path fill="#1D1210" d="M44.698 24.151H31.362v-4.929l.159-.161c.612-.613.62-1.383.633-2.548.012-1.133.026-2.542.669-4.26.37-.986.686-1.761.965-2.444.732-1.794 1.1-2.693 1.1-4.277 0-3.629-5.013-4.982-8.172-4.982-3.163 0-8.18 1.353-8.18 4.982 0 1.56.363 2.441 1.085 4.196.289.702.617 1.498 1.002 2.525.644 1.716.661 3.127.674 4.262.014 1.166.023 1.934.633 2.546l.16.161v4.929H8.754c-.05 0-.171.005-.21.051a.234.234 0 0 0-.059.202c.173 1.043.261 2.297.261 3.726 0 1.79-.142 3.021-.262 3.74a.378.378 0 0 0 .063.262c.086.102.173.14.208.14h2.121l.522 3.884c.022.135.18.173.269.173h30.119c.072 0 .243-.018.269-.183l.521-3.874h2.123c.028 0 .116-.034.205-.141a.392.392 0 0 0 .063-.266c-.118-.718-.259-1.95-.259-3.744 0-1.798.141-3.029.259-3.745.009-.053.009-.092-.063-.176-.038-.046-.167-.049-.206-.049zm-22.989-12.32l-.437-1.162c-.246-.648-.461-1.178-.644-1.63-.589-1.455-.882-2.178-.882-3.507 0-1.186.481-2.08 1.471-2.735 1.072-.711 3.921-1.042 5.508-1.042 1.588 0 4.438.331 5.512 1.042.988.657 1.468 1.551 1.468 2.735 0 1.332-.293 2.056-.878 3.5-.184.454-.398.986-.647 1.64l-.434 1.157c-.725 1.924-.721 3.524-.718 4.692.009.955-.021 1.294-.127 1.512l-.152.308-.15.001c-.462.234-2.698.417-3.873.417-1.14 0-3.402-.182-3.799-.375-.212-.139-.311-.234-.371-.346l-.003-.007c-.11-.221-.13-.569-.129-1.438v-.065c.002-1.172.006-2.775-.715-4.697zm8.539 8.004v4.316h-7.044v-4.315l.598.053c.496.044 2.193.075 2.923.075.731 0 2.43-.031 2.924-.075l.599-.054zm13.333 10.731l.045.591h-33.8l.043-.591c.054-.724.083-1.538.083-2.354 0-.832-.029-1.668-.082-2.355l-.045-.592h33.803l-.047.593c-.052.671-.08 1.508-.08 2.354 0 .839.027 1.653.08 2.354z"/></g></svg>