<svg xmlns="http://www.w3.org/2000/svg" width="52" height="52" viewBox="64.334 0 52 52"><path fill="#FFE120" d="M78.27 2.097s8.782-2.681 13.497 6.102l17.656-.278-.092 27.734-17.103.462-14.422-2.404.464-31.616z"/><linearGradient id="a" gradientUnits="userSpaceOnUse" x1="93.615" y1="1.461" x2="93.615" y2="35.868"><stop offset="0" stop-color="#fff" stop-opacity=".8"/><stop offset=".117" stop-color="#fff" stop-opacity=".707"/><stop offset="1" stop-color="#fff" stop-opacity="0"/></linearGradient><path opacity=".6" fill="url(#a)" d="M78.27 1.847s8.782-2.681 13.497 6.102l17.656-.278-.092 27.734-17.103.462-14.422-2.404.464-31.616z"/><g><radialGradient id="b" cx="576.445" cy="6011.607" r="17.061" gradientTransform="matrix(1.1083 0 0 .1273 -548.19 -715.148)" gradientUnits="userSpaceOnUse"><stop offset="0" stop-color="#e6c816"/><stop offset=".417" stop-color="#edcf19" stop-opacity=".584"/><stop offset="1" stop-color="#ffe121" stop-opacity=".003"/></radialGradient><ellipse fill="url(#b)" cx="90.684" cy="50.13" rx="18.633" ry="2.203"/><path fill="#1D1210" d="M109.567 6.86H91.734l-.156-.288C90.559 4.787 87.607.745 81.643.745a15.72 15.72 0 0 0-3.646.456.623.623 0 0 0-.484.61V6.86h-4.389a.63.63 0 0 0-.632.628v28.417a.63.63 0 0 0 .632.629h36.443a.63.63 0 0 0 .631-.629V7.488a.63.63 0 0 0-.631-.628zM89.6 32.4c-2.153-2.146-4.834-3.233-7.966-3.233-.688 0-1.399.054-2.111.16l-.752.109V2.308l.541-.096a13.7 13.7 0 0 1 2.301-.203c6.066 0 8.594 4.557 9.038 5.47l.055.145.01.091.001 25.794L89.6 32.4zm19.339 2.875H91.974V8.117h16.966v27.158z"/></g></svg>