<svg xmlns="http://www.w3.org/2000/svg" width="57" height="57" viewBox="0 0 57 57"><path fill="#ECCE16" d="M3.331 3.151h51v51h-51z"/><path fill="#1E100D" d="M0 0v57h57V0H0zm54 54H3V3h51v51z"/><g fill="#1E100D"><path d="M18.577 27.984l.043-.001v-.02a.087.087 0 0 1-.043.021z"/><path d="M28.538 41.123c.896.003 1.79 0 2.685.001.215 0 .43.008.625-.104-.312-.558-.591-1.135-.938-1.666a953.672 953.672 0 0 0-5.634-8.498c-.243-.363-.183-.451.189-.617 1.336-.594 2.459-1.451 3.135-2.793.199-.396.361-.814.542-1.222.045-.284.077-.573.254-.815-.078-.23-.013-.461.006-.689.086-1.018.076-2.026-.219-3.016-.013.066-.021.133-.033.199-.016-.236-.308-.432-.104-.695-.41-1.236-1.021-2.324-2.188-3.012-.149-.088-.279-.206-.419-.311l-.937-.457-1.1-.369-1.307-.246c-.061-.008-.119-.016-.18-.022l-.528-.015-.13.042c-.696.177-1.404.046-2.105.077-.441.02-.885.002-1.327.002l-.861.002c-.78.146-1.571.134-2.356.098-.515-.023-.672.135-.67.66.018 5.311.011 10.621.012 15.932 0 2.512.002 5.023.003 7.535.966 0 1.932-.018 2.896.01.424.012.557-.129.554-.552-.017-2.772-.01-5.543-.005-8.313 0-.207-.068-.434.115-.609l.006.007-.014-.116c.785-.257 1.592-.053 2.386-.107.247-.019.515-.015.626.291.127.072.236.158.229.324.393.682.86 1.315 1.186 2.033.189.186.27.43.35.67.063.061.143.106.186.18.726 1.211 1.43 2.437 2.174 3.639.484.781.902 1.607 1.478 2.333.438.274.934.208 1.418.209zm-5.187-13.554c-.216.307-.563.245-.865.305l-.105.032.186.153c-.159.072-.297.039-.412-.09-.137.014-.272.025-.409.038a.426.426 0 0 1-.037.074c.036.005.071.008.106.015.046.012.098.084.072.082-1.127-.025-2.26.165-3.379-.094l.021-.01v-.016l-.02.025c-.155-.141-.113-.33-.113-.503-.002-2.245-.002-4.492 0-6.737 0-.174-.042-.363.132-.493.033 0 .066.004.099.013l.955-.016c.681-.043 1.362-.074 2.042-.004 1.862-.033 3.487 1.055 3.819 2.701.035.174.035.354.052.53.065.321.065.643.003.964.024.201.02.396-.083.578l-.035.173c-.287 1.269-1.024 2.097-2.029 2.28zM18.843 16.81l-.021-.007-.002.007h.023zM22.915 16.789a.692.692 0 0 0 .068-.042.286.286 0 0 0-.068.042zM42.833 16.8c-.063.03-.123.077-.188.087-.065.011-.135-.019-.201-.028.037-.109.145-.051.213-.088a33.972 33.972 0 0 1-.459-.102c-.041.014-.084.025-.125.038a2.172 2.172 0 0 1-1.282.003l-.001-.051c-.57.13-1.157.199-1.693.453a5.157 5.157 0 0 0-2.279 2.066c-.039.065-.076.131-.113.196-.488.952-.748 1.978-.965 3.017-.006.07-.012.143-.021.215.007.143.011.286.017.43.199.475.076.959.033 1.441-.002.03-.004.061-.004.091-.002.001-.002.003-.005.004l-.002.032-.001-.029c-.041.055-.126-.006-.061.016.025.009.041.002.048-.021.003-.019.005-.037.01-.058-.015-.317-.026-.635-.043-.953-.004-.001-.009-.003-.015-.003l-.059.066c-.046.371.157.771-.127 1.117-.212.006-.426-.001-.637.021-.465.051-.952-.133-1.402.113l.004 2.884c.441.297.965.058 1.428.208l.717.023.107-.002c.178.201.105.448.105.674.005 4.334.005 8.633.006 13.006h3.549c0-4.373 0-8.677.006-13.014 0-.223-.08-.473.121-.663v-.001c.035 0 .068.004.103.013.698-.028 1.396-.043 2.094-.092.31-.021.646.103.927-.138l-.027.008-.026-.012c-.158-.928-.026-1.863-.074-2.794-.78 0-1.563.001-2.346-.003-.188-.002-.394.047-.558-.106v-.106c-.078-.467-.049-.934.002-1.4-.006-1.52.516-2.865 2.064-3.219-.056-.024-.13.002-.177-.042-.003.001-.007.001-.009.004.002-.003.006-.003.009-.004a.07.07 0 0 1-.027-.039l.291-.04c.216-.153.431-.153.646 0v-.068h.4c.002.151.004.084.008.108-.021.005-.041.026-.061.032.007.007.014.021.02.032-.008-.011-.019-.011-.027-.018a6.51 6.51 0 0 0-.162.042c.17.047.348.08.507.148.404.173.537.046.522-.383-.022-.744-.041-1.494.006-2.236.033-.602-.264-.817-.786-.875zM14.845 41.034v.089l.057-.001a.367.367 0 0 1-.057-.088zM15.152 16.884c-.06-.002-.104.024-.164.024l.013.026c-.054 0-.063-.036-.213-.027v.25c.15-.156.181-.235.364-.273z"/><path d="M17.317 16.813c-.709.163-1.425.077-2.139.071-.184.038-.285.117-.338.273l.004 23.877c.015.028.033.062.057.088h.05c-.001-2.513-.003-5.022-.003-7.535-.001-5.311.006-10.621-.012-15.932-.002-.525.155-.684.67-.66.785.036 1.576.049 2.356-.098l.001-.088c-.216.001-.431.004-.646.004zM14.78 41.061a.625.625 0 0 1-.056-.109c-.001.057-.003.115-.003.174.039.033.079.063.119.096l.004-.09a.146.146 0 0 1-.064-.071zM14.84 16.907a.254.254 0 0 0-.087-.002c-.001.049-.004.098-.006.146a.652.652 0 0 1 .093-.144z"/><path d="M14.733 17.55c-.002 7.607-.001 15.216-.002 22.821 0 .191-.004.386-.007.579a.585.585 0 0 0 .056.108c.017.037.039.029.064.041v-.037h-.057v-.028c0-.156-.028-.332-.028-.501-.003-7.637-.016-15.273-.012-22.909 0-.204.04-.355.04-.467v-.25c0 .047-.043.094-.066.145-.006.166.012.332.012.498z"/><path d="M14.788 17.624c-.002 7.636-.001 15.272 0 22.909 0 .169-.018.345.057.501l-.004-23.877c-.039.112-.053.263-.053.467zM17.466 41.285c-.645 0-1.289.001-1.932-.001-.215-.002-.434.012-.615-.138l-.01-.014a.101.101 0 0 1-.049 0c.023.02.03.038.02.055-.014.021-.026.031-.039.031.045.033.089.066.133.102 1.131-.002 2.26-.004 3.391-.004l.127-.096v-.193c-.098.255-.354.258-1.026.258zM18.511 31.656z"/><path d="M14.909 41.134c.003.005.006.011.01.015.182.147.4.135.615.137.643.002 1.287.001 1.932.001.672 0 .928-.003 1.025-.257.005-3.123.013-6.248.02-9.372-.184.177-.115.403-.115.61-.005 2.771-.012 5.541.005 8.313.003.423-.13.563-.554.552-.964-.026-1.93-.01-2.896-.01a.217.217 0 0 1-.042.011z"/><path d="M14.845 41.123c.006.004.012.007.016.011a.082.082 0 0 0 .049 0 .083.083 0 0 1-.008-.012l-.057.001z"/><path d="M14.901 41.122a.083.083 0 0 0 .008.012.179.179 0 0 0 .042-.012h-.05zM14.88 41.188c.011-.017.004-.035-.02-.055-.006 0-.011-.002-.016-.004l-.004.09c.014.002.026-.011.04-.031z"/><path d="M14.845 41.123v.004c.005.005.01.007.016.007l-.016-.011zM39.548 40.919c0 .243.052.501-.086.728l-.002.051.056.074h.08c.002-4.359.006-8.717.01-13.078 0-.196.008-.394.012-.591a.286.286 0 0 1 0-.101.28.28 0 0 0-.064.19c-.004 4.244-.001 8.485-.006 12.727z"/><path d="M39.516 27.989c-.007 4.274-.012 8.547-.021 12.819 0 .279-.021.559-.033.836.138-.226.086-.482.086-.727.005-4.242.002-8.484.003-12.727a.289.289 0 0 1 .065-.19.479.479 0 0 0-.1-.011zM18.565 41.105a.457.457 0 0 1-.074.115h.037l.039-.002h-.002v-.113zM18.511 31.656zM18.583 31.657l-.013-.001-.053.007-.006-.007a.532.532 0 0 1 .051.076.664.664 0 0 1 .021-.075zM18.556 33.752a383.778 383.778 0 0 0-.002 3.219l.002-3.219z"/><path d="M18.556 39.091l-.001 1.132c-.002.401-.003.65-.063.807v.193a.44.44 0 0 0 .074-.117 451.9 451.9 0 0 1-.01-2.015z"/><path d="M18.555 40.223l.001-1.132c-.002-.707-.003-1.414-.002-2.12-.003-1.072-.004-2.146.002-3.219 0-.638.001-1.277-.001-1.916a.463.463 0 0 1 .007-.104c-.014-.024-.029-.051-.051-.076l-.02 9.371c.061-.154.062-.403.064-.804zM18.6 31.837c.028.125.006.259.006.388.004 2.791.004 5.582.001 8.375v-.02c.007-2.93.011-5.854.015-8.782l-.014.019c-.004.006-.005.013-.008.02zM18.565 41.105v.113h.002c.002-.045.006-.092.01-.139a.217.217 0 0 1-.012.026z"/><path d="M18.583 31.657a1.05 1.05 0 0 0-.021.075c.018.033.03.067.038.104l.008-.021.014-.019v-.138l-.039-.001zM18.6 31.837a1.14 1.14 0 0 0-.025.07c-.01.614-.015 1.229-.019 1.845l-.002 3.219c.002.706.002 1.413.002 2.12.002.671.005 1.343.01 2.015l.012-.023c.013-.16.027-.321.029-.482.003-2.791.003-5.584-.001-8.375-.001-.13.022-.264-.006-.389zM18.554 36.971z"/><path d="M18.6 31.837a.421.421 0 0 0-.038-.104.444.444 0 0 0-.007.104c.002.639.001 1.278.001 1.916.004-.613.009-1.23.019-1.845a.973.973 0 0 1 .025-.071zM27.573 41.253a.858.858 0 0 1-.458-.345l-.001.115.309.229c.05.002.099.002.15.001zM31.646 41.225c.066-.002.131-.002.195-.002l.004-.203a.402.402 0 0 1-.199.205z"/><path d="M27.573 41.253c1.358-.01 2.716-.021 4.074-.028a.414.414 0 0 0 .199-.205c-.195.112-.41.104-.625.104-.895-.001-1.789.002-2.684-.001-.484-.001-.98.064-1.422-.215.125.172.271.29.458.345zM31.846 41.313a.407.407 0 0 0-.003-.092.386.386 0 0 1-.108.074c.036.005.074.01.111.018z"/><path d="M27.573 41.253a7.601 7.601 0 0 1-.15.001l.181.01-.031-.011zM30.104 41.282c-.586 0-1.171.002-1.756.004.584.01 1.17 0 1.756-.004zM31.311 41.282c-.158.002-.316 0-.476 0l.319.004c.191.004.387-.015.578.01a.483.483 0 0 0 .109-.073c-.064 0-.129 0-.195.002a.78.78 0 0 1-.335.057z"/><path d="M27.604 41.264c.247.012.495.02.743.022.585-.002 1.17-.004 1.756-.004h.731c.158 0 .315.002.476 0a.758.758 0 0 0 .338-.06c-1.358.01-2.716.021-4.074.029.01.006.019.01.03.013zM31.688 41.313h.158a.713.713 0 0 0-.111-.018c-.017.008-.033.016-.047.018z"/><path d="M28.347 41.286c-.172.002-.344 0-.515.002a1.016 1.016 0 0 1-.228-.024 10.97 10.97 0 0 1-.181-.01c.081.027.163.079.244.079 1.34-.002 2.681-.013 4.021-.021.016-.004.03-.011.047-.018-.192-.023-.387-.006-.578-.01l-.32-.004h-.732c-.587.006-1.173.016-1.758.006z"/><path d="M30.104 41.282h.731a89.06 89.06 0 0 0-.731 0zM28.347 41.286a36.636 36.636 0 0 1-.743-.022c.07.018.145.025.228.024.171-.002.343 0 .515-.002zM35.896 41.818h-.063v-.028c.064.021.131.028.199.038.432.008.861.003 1.293.004-.422-.001-.846.018-1.268.005-.055-.001-.11-.019-.161-.019zM39.456 41.8c-.021-.007-.041.019-.062.019h-.057c-.063 0-.129.021-.199.021-.47.01-.938-.001-1.406.001.523-.001 1.047-.013 1.57-.016a.29.29 0 0 1 .174.046c.008-.034.021-.055.039-.085-.02.011-.038.025-.059.014z"/><path d="M36.061 41.809c.422.012.846.016 1.268.018h.404c.469 0 .938-.006 1.406-.016.07 0 .139-.018.199-.05l-3.439.005a.393.393 0 0 0 .162.043z"/><path d="M37.73 41.825h-.403c-.433 0-.861-.003-1.293-.011a1.236 1.236 0 0 1-.199-.051.667.667 0 0 0-.065.004l-.029.012-.032-.004.129.117h3.554a.113.113 0 0 1 .086-.025.276.276 0 0 0-.174-.049c-.525.004-1.048.007-1.574.007zM37.327 41.825h.403-.403zM22.387 16.774c-.012-.024-.022-.05-.032-.076-.033.014-.067.023-.101.035a.42.42 0 0 1 .133.041z"/><path d="M21.184 16.785c-.771.014-1.543.005-2.314.005-.015.002-.03.002-.046.002l-.002.011.021.007c1.139.003 2.275.006 3.414.007l.13-.042a.42.42 0 0 0-.133-.041c-.349.115-.714.046-1.07.051zM18.828 16.735c1.122-.004 2.245.012 3.368-.008.02 0 .039.004.058.006.034-.012.067-.021.101-.035l-3.526.004-.001.033z"/><path d="M18.823 16.792c.016 0 .031 0 .046-.002.771 0 1.543.009 2.314-.005.356-.005.722.063 1.07-.052-.019-.002-.038-.006-.058-.006-1.123.02-2.246.004-3.368.008v.035l-.004.022zM42.218 24.843c.081.005.16-.066.234.085h.063c.022 0 .047-.034.069-.038.021-.008.039-.021.06-.011-.014-.034-.025-.074-.039-.108a.288.288 0 0 1-.182.063c-.068-.001-.137.01-.205.009zM41.143 24.812c-.264 0-.525 0-.787-.003.259.022.522.012.787.003zM42.061 24.813c-.088-.002-.174-.002-.263-.002h.035c.074.007.149.004.228.002z"/><path d="M42.218 24.813h-.157c-.076.002-.152.005-.228-.002h-.035c-.219 0-.438-.016-.655-.016-.265.009-.526-.02-.787-.02H39.709c-.033 0-.067 0-.103.002v.097c.949.001 1.897-.001 2.848.001a.66.66 0 0 0-.236-.062z"/><path d="M39.938 24.738c.139.035.276.06.418.07.262.003.523.003.787.003.219-.008.437-.014.655 0 .089 0 .175 0 .263.002.053-.002.105-.002.157 0 .068.002.138.002.206.002a.277.277 0 0 0 .182-.053.175.175 0 0 1-.096-.023l-2.572-.001zM40.354 24.776h-.566.566z"/><path d="M41.798 24.812a6.504 6.504 0 0 0-.655 0h.655zM42.061 24.813h.157a4.108 4.108 0 0 0-.157 0zM42.591 25.002c.152.292.072.612.077.918.01.586.027 1.171-.016 1.757l-.018.106.04.01h.04l.008-2.918c-.027-.001-.055-.007-.08-.007-.02.014-.037.021-.057.033.004.036.004.066.006.101z"/><path d="M42.668 25.92c-.005-.306.075-.626-.077-.918a23.65 23.65 0 0 1-.008 2.767l.026.012.027-.008.018-.096c.041-.586.024-1.171.014-1.757zM42.585 24.861l.002.038a1.48 1.48 0 0 1 .058-.035.074.074 0 0 0-.06-.003zM15.085 16.808l-.084.074c.104-.039.208-.065.313-.087l-.229.013z"/><path d="M15.179 16.884c.096-.021.213-.032.358-.035.593-.016 1.187.012 1.776-.036a8.348 8.348 0 0 0-.18-.032.622.622 0 0 1-.096-.008c-.373.002-.747.005-1.12.009l-.54.011-.064.003a2.032 2.032 0 0 0-.313.087c.061-.003.12-.001.179.001z"/><path d="M17.317 16.813h-.004c-.59.048-1.184.021-1.776.036a1.87 1.87 0 0 0-.358.035c.714.006 1.429.092 2.138-.071zM17.038 16.772a.622.622 0 0 0 .096.008l-.041-.008h-.055zM29.116 21.753c.03-.004.026-.054.063-.051a.948.948 0 0 0-.137-.496c-.043.19.084.359.074.547z"/><path d="M29.146 21.901c.013-.066.021-.133.033-.199-.037-.003-.033.047-.063.051.01-.188-.118-.356-.072-.547-.203.264.089.459.102.695zM41.794 20.054c.022.023.047.048.071.07h.433l.07-.07a1.174 1.174 0 0 0-.574 0z"/><path d="M42.368 20.054l.036-.033v-.002c-.217-.153-.432-.153-.646 0 .012.013.021.023.035.035.191-.047.385-.048.575 0zM42.667 20.073a.202.202 0 0 1 .076.035h.009c-.029-.035-.059-.042-.085-.035z"/><path d="M42.667 20.073c-.082-.014-.174.02-.254-.01l-.035-.008a.227.227 0 0 1-.08.068c.095.008.188.017.284.023a.233.233 0 0 1 .085-.073z"/><path d="M42.667 20.073a.227.227 0 0 0-.085.074c.055-.012.109-.025.162-.039a.214.214 0 0 0-.077-.035z"/><path d="M42.413 20.063c.081.029.172-.004.254.01.026-.007.056 0 .085.035.02-.006.039-.045.061-.05-.004-.024-.006.043-.008-.108h-.4v.035c-.006.014-.018.042-.025.053.011.004.02.024.033.025zM42.378 20.056c-.004 0-.006 0-.01-.002l-.07.07a.248.248 0 0 0 .08-.068z"/><path d="M42.378 20.056c.009-.011.021-.021.026-.035l-.036.033c.004.002.006.002.01.002zM41.784 20.056l-.015.003c-.016.003-.033.005-.049.009-.059.016-.121-.004-.18.009.05-.011.092.015.13.063l.192-.016a.252.252 0 0 1-.078-.068z"/><path d="M41.542 20.076c.058-.013.121.007.181-.009.016-.004.032-.006.049-.009l.014-.003c-.008-.012-.02-.021-.025-.037l-.291.04a.1.1 0 0 0 .027.039c.016-.009.029-.018.044-.021h.001z"/><path d="M41.542 20.076l-.002.001a.137.137 0 0 0-.044.021c.047.044.121.018.177.042-.039-.049-.081-.075-.131-.064zM41.784 20.056a.214.214 0 0 0 .081.068 1.566 1.566 0 0 1-.071-.07c-.004.002-.006.002-.01.002z"/><path d="M41.794 20.054c-.013-.012-.024-.022-.035-.035.007.016.019.025.025.037.004 0 .006 0 .01-.002zM42.833 16.8l-.177-.029c.032.163.115.037.177.029z"/><path d="M42.441 16.858c.067.01.137.039.201.028.066-.01.127-.057.189-.087-.063.008-.145.134-.178-.029-.066.038-.173-.021-.212.088zM18.528 27.987c-.047-2.545-.043-5.09-.002-7.636-.174.13-.132.319-.132.493-.002 2.245-.002 4.492 0 6.737 0 .173-.042.362.113.503a.182.182 0 0 1 .02-.025.582.582 0 0 1 .001-.072zM18.528 27.987l.049-.003a.243.243 0 0 1-.049.003z"/><path d="M18.567 20.474a.282.282 0 0 1 .058-.109.364.364 0 0 0-.099-.013c.018.04.03.082.041.122zM18.62 27.833l-.015-.032v.003c0 .061-.01.121-.028.181a.096.096 0 0 0 .043-.021v-.131z"/><path d="M18.608 20.985c-.002 2.271.003 4.543-.003 6.815l.015.032c.001-2.456.001-4.916.003-7.373-.002-.031 0-.064.001-.096a.296.296 0 0 0-.058.109c.045.17.042.341.042.513zM18.528 27.987c.019 0 .009 0 .024-.003.019-.06.005-.12.005-.181V27.8c0-.184-.024-.384-.025-.576-.002-2.224.007-4.448.013-6.671-.001-.027.009-.054.017-.08-.012-.04-.022-.082-.039-.122a220.88 220.88 0 0 0 .005 7.636z"/><path d="M18.608 20.985c0-.172.003-.344-.041-.512a.271.271 0 0 0-.011.08c-.004 2.223-.002 4.447.001 6.671 0 .192-.027.393.048.576.006-2.272.001-4.543.003-6.815zM18.507 28.085c1.119.259 2.252.068 3.379.094.025.002-.026-.07-.072-.082-.035-.007-.07-.01-.106-.015l-3.18-.007-.021.01zM18.999 16.83c-.054.003-.105-.045-.156-.045h-.023c.002 0 .004.069.005.099.442 0 .886.021 1.327.003.701-.03 1.409.097 2.105-.08-1.085.061-2.172.006-3.258.023z"/><path d="M18.999 16.843c1.086-.016 2.173.035 3.258-.026-1.139-.001-2.275-.004-3.414-.007a.34.34 0 0 0 .156.033zM21.145 31.628l.183.021a.74.74 0 0 1 .188.08c-.111-.305-.379-.309-.626-.291-.794.057-1.601-.147-2.386.108.879.044 1.766-.11 2.641.082z"/><path d="M21.145 31.628a.928.928 0 0 0 .051.011c.075.036.149.074.226.112a.397.397 0 0 0 .094-.021.65.65 0 0 0-.188-.08c-.061-.009-.122-.014-.183-.022zM21.462 28.051c.082.011.164.019.246.031a.511.511 0 0 0 .037-.074.385.385 0 0 1-.193.044l-.09-.001zM18.927 28.015c-.059-.01-.116-.07-.17-.07h-.041l-.047.027-.049.005c-.015 0-.029.004-.043.005l-.006.021-.044.056v.012-.002c.133-.019.266-.043.4-.054z"/><path d="M20.15 27.968c.437 0 .874.027 1.312.083l.089.001a.383.383 0 0 0 .193-.044l-.137-.046-1.457.006zM18.757 27.973a.55.55 0 0 0 .17.057c.383-.039.767-.06 1.149-.062l-1.319.005zM18.577 27.984l-.049.003a.58.58 0 0 0-.001.072l.044-.055.006-.02zM18.528 27.987z"/><path d="M19.265 28.04c-.112-.003-.229.006-.338-.011a10.35 10.35 0 0 0-.399.046l3.18.007c-.082-.013-.164-.021-.246-.031-.733-.021-1.465-.001-2.197-.011z"/><path d="M18.927 28.029c.109.017.226.008.338.011.732.01 1.465-.01 2.197.011a10.33 10.33 0 0 0-1.312-.083h-.074a11.95 11.95 0 0 0-1.149.061zM18.6 31.643c.05-.021.093-.014.13.022l.109-.001a.385.385 0 0 1 .092-.039 3.566 3.566 0 0 1-.428-.078l.014.116c.027-.033.054-.041.083-.02z"/><path d="M18.667 31.652l.045.013h.018c-.037-.036-.08-.044-.13-.022.007.004.015.01.022.019l.045-.01zM18.583 31.657l.004-.013.013-.004c-.028-.02-.056-.012-.083.021l.053-.008.013.004z"/><path d="M18.6 31.643c-.005 0-.009 0-.013.004l-.004.012.039.003c-.008-.012-.016-.016-.022-.019zM20.022 31.65l.741-.008c-.246-.003-.493.004-.741.008zM19.114 31.643c-.037.008-.077.012-.116.021l.44-.006-.324-.015z"/><path d="M19.114 31.643c-.061-.004-.121-.011-.184-.018a.385.385 0 0 0-.092.039l.16-.001c.04-.011.079-.015.116-.02zM20.466 31.589a5.135 5.135 0 0 0-1.115.017c.372-.006.744-.021 1.115-.017z"/><path d="M19.054 31.605c.1 0 .198 0 .297-.002a5.199 5.199 0 0 1 1.115-.016c.227.002.453.014.679.039-.875-.193-1.762-.038-2.642-.081.143.036.285.062.428.078.039-.009.08-.019.123-.018z"/><path d="M19.438 31.657l.584-.007c.247-.006.494-.014.741-.008h.108a4.554 4.554 0 0 0-.406-.055c-.371-.004-.743.012-1.115.016a5.268 5.268 0 0 0-.236.039c.108.006.217.012.324.015z"/><path d="M21.195 31.639a.928.928 0 0 1-.051-.011 7.006 7.006 0 0 0-.679-.039c.137.013.271.029.406.054l.324-.004zM19.351 31.604c-.099.002-.197.002-.297.002a.387.387 0 0 0-.123.02c.063.007.123.014.184.018.079-.015.157-.03.236-.04zM18.79 16.842c.01-.021.019-.032.03-.032l.002-.007c-.003-.003-.006-.003-.01-.005l.001-.003a3.242 3.242 0 0 1-.418-.005l-.416.018a.136.136 0 0 1-.016.09l.861-.002c-.031-.016-.042-.036-.034-.054z"/><path d="M17.979 16.808c-.005.002-.011.002-.015.002l-.001.088a.15.15 0 0 0 .016-.09zM18.395 16.79c.14.01.279.013.419.002l.004-.02c-.143.005-.283.012-.423.018z"/><path d="M18.812 16.789h.011v.011h-.011z"/><path d="M18.817 16.772a.118.118 0 0 0-.004.02h.01l.005-.021-.011.001zM18.79 16.842c-.007.019.003.038.035.054a2.803 2.803 0 0 0-.005-.086c-.011 0-.02.011-.03.032zM22.153 27.97c.115.129.253.162.412.09a15.218 15.218 0 0 0-.186-.153c-.064.063-.14.078-.226.063z"/><path d="M22.153 27.97c.086.016.162 0 .227-.063-.09-.032-.176-.047-.227.063zM35.7 41.739c.017-.003.034.002.051.005l.017-.012-.006-.092c-.019-.026-.031-.055-.043-.082l-.001.127c-.003.02-.012.038-.018.054zM35.749 27.987l-.106.002c.096.11.106.241.106.375v-.377zM35.749 28.449l.001 4.695-.001-4.705v.01z"/><path d="M35.729 41.075v-3.984c0 1.49-.004 2.979-.011 4.47a.49.49 0 0 0 .042.082c-.013-.189-.03-.379-.031-.568z"/><path d="M35.718 41.688l.001-.127c-.078-.193-.039-.41-.039-.615-.007-3.965-.005-7.93-.006-11.896 0-.251.018-.503-.021-.751-.008-.024-.021-.047-.032-.07l.007 13.53a.17.17 0 0 1 .074-.019c.004-.017.013-.035.016-.052z"/><path d="M35.641 28.298c.041.248.028.5.028.751.002 3.967.002 7.932.007 11.896 0 .205-.037.422.042.615.009-1.49.011-2.979.011-4.47 0-1.313.012-2.629.012-3.944-.002-1.566.009-3.131.009-4.696v-.007-.078c0-.134 0-.265-.149-.375v.238c-.001.023.031.045.04.07zM35.7 41.739c-.005.012-.007.021-.013.032.006 0 .014.004.02.004l.043-.031c-.016-.003-.033-.008-.05-.005z"/><path d="M35.626 41.758a.342.342 0 0 0 .063.016l.012-.033a.142.142 0 0 0-.075.017zM35.751 41.744c.006.001.013.001.017.003v-.015l-.017.012z"/><path d="M35.751 41.744l-.043.031.032.004.029-.012c0-.008-.002-.014-.002-.014-.003-.008-.01-.008-.016-.009zM39.451 41.663c-.01.012-.014.022-.021.035-.013.012-.025.02-.037.028v.01c.021.011.043.019.063.033l.004-.074-.009-.012v-.02z"/><path d="M39.393 41.727l.037-.027.021-.035c-.018-4.439-.004-8.879-.006-13.318 0-.121-.036-.252.068-.355-.201.189-.121.438-.121.661-.006 4.337-.006 8.673-.006 13.009l.007.065zM39.451 41.686a.047.047 0 0 0 .009.012l.002-.051-.011.018v.021z"/><path d="M39.445 28.345c.002 4.439-.012 8.879.006 13.318.003-.006.006-.013.011-.019.015-.277.033-.557.033-.836.009-4.272.014-8.545.021-12.819-.107.104-.071.235-.071.356zM39.395 41.761c.021 0 .041.005.062.011-.021-.017-.043-.023-.063-.033a.056.056 0 0 0 .001.022zM35.785 41.721h.033a.017.017 0 0 0-.004-.003c-.02-.021-.031-.043-.047-.063v.078c.006-.004.012-.006.018-.012zM35.77 41.654c.015.021.026.041.047.063l.004.003h.017l.003-.062c-.001-4.333-.001-8.668-.006-13.001 0-.227.073-.47-.105-.671a.35.35 0 0 1 .055.203c-.012 4.491.013 8.978-.015 13.465z"/><path d="M35.835 41.73a.083.083 0 0 0-.017-.012h-.033c-.006.006-.012.008-.018.014v.016c.006.001.012 0 .019.003a.306.306 0 0 1 .049.015v-.036z"/><path d="M35.836 41.721h-.018c.007.004.013.006.017.01l.001-.01zM35.77 41.748v.021c.021-.004.043-.004.065-.004a.306.306 0 0 0-.049-.015c-.007-.002-.013-.001-.016-.002zM35.77 41.732v-.078c-.002-.006-.006-.01-.008-.014l.006.092h.002z"/><path d="M35.749 28.44c0 1.568-.009 3.137-.009 4.705.002 1.316-.004 2.631-.004 3.945 0 1.328-.004 2.656-.002 3.984 0 .188.014.379.027.566l.01.014c.028-4.488.016-8.978.022-13.465 0-.073-.045-.141-.045-.203v.377l.001.077zM35.729 33.146c0 1.315 0 2.631.002 3.944-.002-1.315-.002-2.628-.002-3.944zM35.749 28.364v0zM35.768 41.747l.002.021v-.014l-.002-.007zM35.889 41.723c.028 0 .059-.005.09-.005 1.099.001 2.197-.002 3.297 0 .022-.002.045.007.067.011a.046.046 0 0 1 .044-.062h-3.548c.037 0 .052.035.05.056zM35.896 41.766c-.012-.008-.023-.013-.033-.018a.147.147 0 0 0-.028.018h.061zM39.338 41.761h.057a.09.09 0 0 1-.027-.016l-.03.016z"/><path d="M39.343 41.725c-.022-.004-.045-.009-.067-.007-1.1-.002-2.198 0-3.297-.002-.031 0-.062.002-.09.003-.002.01-.013.02-.025.029.011.005.023.01.035.018l3.439-.005c.01-.006.02-.01.028-.016-.012-.006-.018-.015-.023-.02zM39.393 41.727l-.01.005.01.004z"/><path d="M39.343 41.725c.015.002.027.006.04.01a.035.035 0 0 0 .01-.008 8.081 8.081 0 0 1-.006-.066c-.041.023-.054.044-.044.064z"/><path d="M39.383 41.732c-.006.004-.011.011-.017.013.007.006.016.01.026.016 0-.008 0-.016-.002-.022.001-.003-.003-.007-.007-.007z"/><path d="M39.366 41.745c.005-.002.011-.009.017-.013l-.04-.01a.056.056 0 0 0 .023.023zM35.836 41.721c.018-.002.034-.002.053-.002.002-.019-.013-.037-.05-.06l-.003.062zM35.835 41.766a.5.5 0 0 0 .028-.018l-.028-.018v.036z"/><path d="M35.863 41.748c.013-.012.021-.021.023-.029-.018 0-.035 0-.052.002l-.001.01c.013.003.021.01.03.017zM42.363 24.919c-.92-.035-1.842.069-2.76-.054.164.153.369.104.559.106.783.004 1.564.003 2.346.003a.992.992 0 0 1 .004-.058 3.666 3.666 0 0 1-.149.003zM42.516 24.871h-.063a.66.66 0 0 1 .062.036.143.143 0 0 1 .001-.036z"/><path d="M42.363 24.919l.148-.002v-.008a.326.326 0 0 0-.061-.038c-.949-.003-1.898-.003-2.848-.006.919.123 1.841.019 2.761.054zM42.561 24.915h-.011v.012a.378.378 0 0 1 .032.058l.002-.083-.023.013z"/><path d="M42.582 24.984l-.025-.049-.007-.004-.004.011c-.012.021-.024.032-.037.032.048.931-.084 1.866.074 2.794a50.667 50.667 0 0 1-.001-2.784zM42.55 24.915h.011c.008-.005.017-.008.023-.014a.534.534 0 0 0 .001-.04c-.022.005-.047.007-.069.01.02.015.03.03.034.044z"/><path d="M42.582 24.984c.003.007.007.011.009.018l-.004-.103-.003.002-.002.083z"/><path d="M42.591 25.002c-.002-.007-.006-.011-.009-.018-.027.928-.023 1.856.001 2.784.06-.921.056-1.843.008-2.766zM42.587 24.899l-.002-.038-.001.04.003-.002zM42.55 24.915c-.008.002-.016.002-.022.002a.066.066 0 0 1 .022.015v-.017z"/><path d="M42.546 24.942l.004-.011c-.008-.007-.016-.011-.022-.015h-.014l-.005.058c.012.001.025-.01.037-.032z"/><path d="M42.525 24.917c.009 0 .017 0 .023-.002a.084.084 0 0 0-.035-.044l-.002.036c.007.002.01.006.014.01z"/><path d="M42.514 24.917h.011l-.011-.01zM35.758 23.583l-.013-.007c.014.075.024.151.032.227-.004-.074-.007-.146-.019-.22zM35.753 24.512l.003.063.003-.002.009-.096c0-.019 0-.037.002-.057-.004.032-.011.061-.017.092zM35.716 23.422l-.006.119v.018c.013.004.022.011.035.018a3.856 3.856 0 0 0-.029-.155zM35.77 24.421c.03-.209.03-.414.01-.618.008.206-.003.412-.01.618z"/><path d="M35.716 23.414v.005c.011.055.021.105.029.157.003.003.009.004.013.007.012.074.018.146.021.22.021.204.021.409-.01.618-.002.02-.002.038-.002.057.043-.482.166-.967-.033-1.441l-.012.254a.513.513 0 0 1-.006.123z"/><path d="M35.777 23.803c-.008-.075-.02-.151-.032-.227-.013-.007-.022-.014-.035-.018.017.318.028.636.043.953.006-.03.013-.06.017-.091.007-.205.018-.411.007-.617zM35.757 24.604l.002-.032-.003.003.001.029zM35.723 23.29l-.007.124c.007-.042.009-.083.007-.124zM40.79 16.71c.427.123.854.132 1.282-.003a6.313 6.313 0 0 1-1.282.003z"/><path d="M41.229 16.683a5.875 5.875 0 0 0-.439.027c.427.041.854.043 1.281-.003a7.13 7.13 0 0 0-.357-.024 2.312 2.312 0 0 1-.485 0z"/><path d="M41.713 16.683a5.534 5.534 0 0 0-.482 0c.16.017.322.017.482 0z"/></g></svg>