<svg xmlns="http://www.w3.org/2000/svg" width="57" height="57" viewBox="0 0 57 57"><path fill="#ECCE16" d="M3 3h51v51H3z"/><path fill="#1E100D" d="M0 0v57h57V0H0zm54 54H3V3h51v51z"/><g fill="#1E100D"><path d="M15.289 39.926c-.072-.07-.066-.154-.039-.24.336-.151.193-.455.194-.689.009-4.946.007-9.893.007-14.839 0-2.874.007-5.748-.01-8.622-.002-.464.14-.626.605-.605.745.032 1.492.009 2.24.009.857 0 .857 0 .857.838 0 6.625-.002 13.25.006 19.877 0 .234-.139.543.217.676l9.627-.018c.237 0 .473-.004.405.352-.201 1.078-.285 2.178-.568 3.24-.579.003-1.157.006-1.735.007-3.935.003-7.87.008-11.806.014zM35.92 22.102l.014.117c-.121.279-.229.557.101.779.024.145.048.289.081.473.271-.111.347-.381.505-.565 1.172-1.363 2.594-2.247 4.43-2.374.515-.035.743.111.72.682a38.991 38.991 0 0 0-.004 3.02c.019.501-.111.661-.646.678-1.955.059-3.611.797-4.858 2.347-.318.132-.195.414-.195.634-.008 3.729-.017 7.457.006 11.185.003.545-.113.773-.705.734a20.211 20.211 0 0 0-2.348-.002c-.517.025-.67-.145-.664-.662.022-2.627.028-5.256.006-7.885-.029-3.146.109-6.295-.1-9.439-.05-.72-.009-.722.737-.725l2.627-.011-.007-.008c-.015.155-.011.302.183.35l.035.224c-.154.182-.181.34.082.448z"/><path d="M19.367 36.328c-.355-.133-.217-.441-.217-.676-.008-6.627-.006-13.252-.006-19.877 0-.838 0-.838-.857-.838-.748 0-1.496.023-2.24-.009-.466-.021-.607.142-.605.605.017 2.874.01 5.748.01 8.622 0 4.947.002 9.893-.007 14.839-.001.234.142.538-.194.689-.007-.186-.019-.371-.019-.559-.002-7.871-.002-15.744-.002-23.618 0-.732 0-.732.735-.732h2.519c.826 0 .826 0 .826.798-.001 6.717-.001 13.435.001 20.151.002.202-.043.411.056.605zM35.625 21.086l-2.627.011c-.746.003-.787.005-.738.725.209 3.146.07 6.294.1 9.44a440.94 440.94 0 0 1-.006 7.885c-.004.519.148.688.664.662.781-.039 1.567-.05 2.349.002.592.039.708-.189.704-.734-.021-3.729-.014-7.456-.006-11.185 0-.22-.123-.502.195-.634.006 4.083.01 8.165.025 12.248.002.39-.17.466-.51.462a70.758 70.758 0 0 0-3.021.004c-.45.014-.565-.146-.563-.576.015-3.113.01-6.228.008-9.34-.002-2.891.031-5.781-.16-8.667-.014-.227-.063-.46.297-.457 1.025.009 2.051.006 3.076.009.1-.001.18.042.213.145zM15.289 39.926l11.808-.017c.578-.001 1.156-.005 1.735-.007-.125.24-.352.168-.544.168-4.146.004-8.293.004-12.439 0-.195 0-.418.075-.56-.144z"/><path d="M36.033 22.998c-.328-.223-.221-.5-.1-.779l.1.779zM35.92 22.102c-.263-.107-.236-.266-.082-.448l.082.448zM35.803 21.43c-.193-.048-.197-.194-.183-.35.163.063.176.205.183.35z"/></g></svg>