<svg xmlns="http://www.w3.org/2000/svg" width="36.793" height="36.794" viewBox="0 0 36.793 36.794"><path fill="#FFD820" stroke="#1E100D" stroke-width="2" stroke-miterlimit="10" d="M35.793 31.54a4.254 4.254 0 0 1-4.253 4.254H5.253A4.254 4.254 0 0 1 1 31.54V5.254A4.254 4.254 0 0 1 5.253 1H31.54a4.253 4.253 0 0 1 4.253 4.254V31.54z"/><linearGradient id="a" gradientUnits="userSpaceOnUse" x1="2.246" y1="2.247" x2="34.547" y2="34.549"><stop offset="0" stop-color="#fff" stop-opacity=".3"/><stop offset="1" stop-color="#ffd820" stop-opacity="0"/></linearGradient><path fill="url(#a)" d="M35.793 31.54a4.254 4.254 0 0 1-4.253 4.254H5.253A4.254 4.254 0 0 1 1 31.54V5.254A4.254 4.254 0 0 1 5.253 1H31.54a4.253 4.253 0 0 1 4.253 4.254V31.54z"/><path fill="none" stroke="#1E100D" stroke-width="2" stroke-miterlimit="10" d="M35.793 31.54a4.254 4.254 0 0 1-4.253 4.254H5.253A4.254 4.254 0 0 1 1 31.54V5.254A4.254 4.254 0 0 1 5.253 1H31.54a4.253 4.253 0 0 1 4.253 4.254V31.54z"/><path fill="#1E100D" d="M20.139 35.336v-13.42h-4.706v-5.402h4.706v-4.706s.218-5.054 5.272-5.925h5.359v4.706h-3.138s-1.611.174-2.092 1.873v4.052h5.229l-.74 5.402H25.54v13.42h-5.401z"/></svg>