<svg xmlns="http://www.w3.org/2000/svg" width="52" height="52" viewBox="128 0 52 52"><path fill="#FFE120" d="M135.405 7.239h37.485v27.209h-37.485zM156.539 1.665h15.51v5.016h-15.51z"/><linearGradient id="a" gradientUnits="userSpaceOnUse" x1="154.682" y1="7.489" x2="154.682" y2="34.699"><stop offset="0" stop-color="#fff" stop-opacity=".8"/><stop offset=".134" stop-color="#fff" stop-opacity=".693"/><stop offset="1" stop-color="#fff" stop-opacity="0"/></linearGradient><path opacity=".6" fill="url(#a)" d="M135.939 7.489h37.485v27.209h-37.485z"/><g><path fill="#1D1210" d="M169.785.352h-30.629a4.545 4.545 0 0 0-4.54 4.538v26.79a4.546 4.546 0 0 0 4.54 4.54h30.629a4.546 4.546 0 0 0 4.54-4.54V4.89a4.545 4.545 0 0 0-4.54-4.538zm-5.228 1.416a2.399 2.399 0 0 1 2.396 2.396c0 1.321-1.074 2.396-2.396 2.396s-2.396-1.075-2.396-2.396a2.398 2.398 0 0 1 2.396-2.396zm-5.041 0a2.399 2.399 0 0 1 2.395 2.396 2.398 2.398 0 0 1-2.395 2.396 2.4 2.4 0 0 1-2.397-2.396 2.398 2.398 0 0 1 2.397-2.396zm13.068 29.565h-36.396V7.966h36.396v23.367zM169.601 6.56a2.399 2.399 0 0 1-2.396-2.396c0-1.321 1.075-2.396 2.396-2.396s2.396 1.075 2.396 2.396a2.399 2.399 0 0 1-2.396 2.396z"/><path fill="#1D1210" d="M148.294 21.398c0 1.211.392 2.14 1.174 2.786.295.107.582.161.866.161 1.261 0 2.395-.567 3.402-1.701.156.762.449 1.276.881 1.54.293.107.581.161.864.161.801 0 1.549-.23 2.245-.69a5.986 5.986 0 0 0 1.715-1.722c.448-.688.835-1.445 1.157-2.266a13.15 13.15 0 0 0 .698-2.31c.143-.718.212-1.342.212-1.871 0-.782-.47-1.173-1.406-1.173-.558 0-1.028.102-1.409.308.167.431.25.948.25 1.553 0 .606-.057 1.264-.17 1.973-.112.709-.279 1.414-.505 2.113s-.532 1.296-.917 1.796c-.387.5-.825.782-1.313.852-.332-.714-.5-1.653-.5-2.817 0-.166.011-.405.03-.719.528-1.437.792-2.732.792-3.886 0-.782-.47-1.173-1.409-1.173-.555 0-1.027.102-1.406.308.165.431.249.948.249 1.553 0 .606-.056 1.264-.17 1.973a14.039 14.039 0 0 1-.505 2.113c-.226.699-.531 1.296-.918 1.796-.385.5-.823.782-1.313.852-.175-.352-.262-.998-.262-1.937 0-.577.098-1.482.299-2.72.201-1.237.301-2.085.301-2.545 0-.929-.479-1.393-1.438-1.393-.585 0-1.056.117-1.409.352.267.548.396 1.178.396 1.892 0 .802-.078 1.652-.241 2.552-.159.901-.24 1.664-.24 2.289z"/><radialGradient id="b" cx="633.439" cy="6008.99" r="17.061" gradientTransform="matrix(1.1083 0 0 .1273 -548.19 -715.148)" gradientUnits="userSpaceOnUse"><stop offset="0" stop-color="#e6c816"/><stop offset=".417" stop-color="#edcf19" stop-opacity=".584"/><stop offset="1" stop-color="#ffe121" stop-opacity=".003"/></radialGradient><ellipse fill="url(#b)" cx="153.85" cy="49.797" rx="18.633" ry="2.203"/></g></svg>