<svg xmlns="http://www.w3.org/2000/svg" width="57" height="57" viewBox="0 0 57 57"><path fill="#ECCE16" d="M3 3h51v51H3z"/><path fill="#1E100D" d="M0 0v57h57V0H0zm54 54H3V3h51v51z"/><g fill="#1E100D"><path d="M30.225 40.057c-.486 0-.975-.031-1.455.01-.469.039-.652-.166-.779-.588-.598-1.982-1.242-3.951-1.827-5.937-.134-.451-.337-.558-.78-.554-2.146.025-4.292.025-6.438 0-.43-.004-.614.123-.733.535-.58 2.008-1.2 4.002-1.784 6.008-.111.384-.272.55-.693.535-.933-.031-1.867-.008-2.8-.012-.61-.002-.646-.048-.46-.652 1.738-5.672 3.476-11.341 5.219-17.009.493-1.604.995-3.206 1.512-4.803a8.095 8.095 0 0 0 .373-2.313c.01-.35.141-.49.505-.486 1.362.017 2.725.023 4.086-.003.443-.008.516.263.612.575 1.387 4.49 2.773 8.98 4.166 13.469 1.089 3.509 2.185 7.016 3.277 10.523.215.69.209.697-.49.699-.506.005-1.007.003-1.511.003zm-8.12-21.349c-.113.497-.186.836-.268 1.172-.718 2.953-1.616 5.855-2.445 8.777-.133.47-.029.559.429.552 1.585-.023 3.169-.021 4.755-.001.412.005.504-.08.382-.498-.947-3.273-1.872-6.554-2.853-10.002zM40.432 30.657c0 2.891 0 5.78-.002 8.671 0 .729-.002.729-.75.729h-2.518c-.745 0-.747-.002-.747-.734V24.948c0-1.045.015-2.089-.007-3.133-.008-.426.109-.599.568-.583.969.032 1.938.034 2.907-.001.47-.017.558.176.556.59-.013 2.945-.007 5.892-.007 8.836zM40.625 16.279c-.005 1.452-.882 2.388-2.236 2.384-1.34-.003-2.224-.963-2.216-2.408.009-1.401.944-2.395 2.261-2.398 1.334-.004 2.195.949 2.191 2.422z"/></g></svg>