<svg xmlns="http://www.w3.org/2000/svg" width="36.793" height="36.792" viewBox="46.895 0.001 36.793 36.792"><path fill="#1E100D" d="M82.688 31.54a4.253 4.253 0 0 1-4.252 4.254H52.149a4.254 4.254 0 0 1-4.254-4.254V5.255a4.254 4.254 0 0 1 4.254-4.254h26.287a4.253 4.253 0 0 1 4.252 4.254V31.54z"/><linearGradient id="a" gradientUnits="userSpaceOnUse" x1="49.141" y1="2.247" x2="81.443" y2="34.548"><stop offset="0" stop-color="#fff" stop-opacity=".3"/><stop offset="1" stop-color="#ffd820" stop-opacity="0"/></linearGradient><path fill="url(#a)" d="M82.688 31.54a4.253 4.253 0 0 1-4.252 4.254H52.149a4.254 4.254 0 0 1-4.254-4.254V5.255a4.254 4.254 0 0 1 4.254-4.254h26.287a4.253 4.253 0 0 1 4.252 4.254V31.54z"/><path fill="none" stroke="#FC3" stroke-width="2" stroke-miterlimit="10" d="M82.688 31.54a4.253 4.253 0 0 1-4.252 4.254H52.149a4.254 4.254 0 0 1-4.254-4.254V5.255a4.254 4.254 0 0 1 4.254-4.254h26.287a4.253 4.253 0 0 1 4.252 4.254V31.54z"/><g fill="#FC3"><path d="M76.026 17.352c-.429-1.209-1.197-2.113-2.414-2.576a6.533 6.533 0 0 0-3.493-.318c-1.385.242-2.486.938-3.229 2.154-.025.037-.04.102-.096.084-.068-.02-.039-.09-.041-.137-.002-.539-.009-1.078.004-1.617.005-.188-.052-.232-.233-.23-1.283.006-2.568.008-3.853-.002-.193-.002-.242.049-.242.242.007 2.342.005 4.686.005 7.028 0 2.35.002 4.697-.004 7.049-.001.178.04.234.228.232 1.343-.008 2.688-.008 4.033 0 .188.002.244-.039.243-.238-.007-2.336-.008-4.672-.002-7.008.001-.693.047-1.383.272-2.047.261-.768.745-1.309 1.546-1.534a3.466 3.466 0 0 1 1.147-.104c.946.057 1.556.527 1.864 1.426.196.574.249 1.172.252 1.77.007 2.496.007 4.992 0 7.486-.002.209.06.25.255.248 1.356-.008 2.713-.008 4.072-.002.16.002.214-.031.213-.203-.007-2.75 0-5.498-.014-8.246-.004-1.174-.115-2.338-.513-3.457zM59.581 22.006c0-2.357-.003-4.713.002-7.069 0-.166-.027-.23-.215-.229-1.364.01-2.728.008-4.093.002-.151 0-.204.031-.204.195.005 4.719.005 9.44 0 14.159 0 .164.054.193.204.193 1.357-.004 2.716-.006 4.073.004.201 0 .234-.063.234-.246-.004-2.337-.001-4.673-.001-7.009zM57.329 7.477a2.628 2.628 0 0 0-2.612 2.625 2.63 2.63 0 0 0 2.625 2.633 2.648 2.648 0 0 0 2.629-2.637c-.002-1.436-1.203-2.625-2.642-2.621z"/></g></svg>