<svg xmlns="http://www.w3.org/2000/svg" width="57" height="57" viewBox="0 0 57 57"><path fill="#1E100D" d="M0 0v57h57V0H0zm54 54H3V3h51v51z"/><path fill="#ECCE16" d="M3 2.909h51v51H3z"/><g fill="#1E100D"><path d="M38.357 40.412h-.003l.003.003zM25.271 38.855c.127.285.215.59.319.886 1.11 0 2.222-.007 3.332.003.296.003.553-.03.689-.336l-.357-1.333c-.27-.287-.191-.726-.437-1.023-.037-.051-.127-.087-.111-.153-.306-.414-.429-.893-.44-1.41-.029-.68-.32-1.284-.549-1.906-.431-.436-.546-.982-.57-1.564.082-.215-.028-.4-.089-.592-.32-1.008-.656-2.01-.965-3.021-.466-1.522-1.033-3.014-1.407-4.564-.355-.667-.507-1.4-.699-2.121l-.749-2.137c-.395-.321-.468-.765-.469-1.234l.037.008-.499-1.9-.535-1.466c-1.432 0-2.863.021-4.294-.01-.541-.013-.818.122-.74.71.024.182.015.373-.112.532-.031.129.076.282-.071.384-.003.002-.081-.104-.125-.16l-.033.109c.044.229-.071.431-.113.645-.085.426-.37.803-.313 1.265.023.509-.126.957-.463 1.341-.34.3-.191.834-.54 1.129l.003.668c-.052.613-.16 1.205-.62 1.666-.03.066-.067.131-.09.199-1.048 3.292-2.098 6.584-3.139 9.879-.094.295-.276.576-.184.911-.005.505-.107.974-.497 1.334-.396 1.218-.797 2.519-1.183 3.741-.047.15-.011.578-.013.578h.104c1.245 0 2.491-.076 3.736-.072.038-.035.076-.113.114-.148-.154-.424-.005-.771.326-1.039.311-.961.626-1.932.929-2.896.093-.294.245-.588.166-.916.037-.459.068-.925.472-1.245l.183-.365.037-.188a.336.336 0 0 1-.014-.095c.143-.156.332-.146.519-.146 2.324 0 4.649-.001 6.973.004.119 0 .27-.061.34.107a.172.172 0 0 1 .01.098l-.012.014c.146.136.154.33.212.502.479 1.441.952 2.886 1.427 4.326.396.214.352.66.504 1.001zm-3.513-9.946h-5.106c-.163 0-.651.403-.651.303v.002l.178-.305h.01c-.043 0-.063.045-.051.008-.062-.229.055-.357.177-.559.219-.08.192-.259.245-.424.291-.93.575-1.843.861-2.772.051-.354.15-.685.318-1.003l.118-.665c-.185-.297-.046-.534.133-.765l-.003.004c-.021-.206-.01-.414.102-.59.078-.121.104.013.137.064.274-.785.486-1.587.644-2.403-.146-.413-.142-.792.247-1.082l.188.217c.263.034.282.213.057.528l.073.225.013.106a7.65 7.65 0 0 1 .453 1.792c.099.03.147.108.174.199.383 1.317.766 2.635 1.147 3.951l.25.848.206.496c.34.164.303.487.333.782.141.247.311.489.113.784l-.004.226.086.201c.009.042.018-.124.026-.081-.139.12-.306-.087-.474-.087z"/><path d="M28.806 36.864c-.021-.025-.044-.052-.063-.077.003.015.009.027.013.042.017.006.031.026.05.035zM16.19 29.211l.002.003-.001-.003zM45.594 39.866c.457-.002.729-.122.822-.572l.016-.672-.033-.519c-.153-1.729-.078-3.459-.084-5.188-.012-3.688-.012-7.375.006-11.062.002-.456-.114-.625-.59-.603-.78.037-1.564-.005-2.347.016-.38.011-.97-.109-1.335.094.049.04-.049.081-.049.121v13.033c0 .687-.199 1.2-.797 1.313-.477.237-.818.546-1.354.67-1.285.3-2.379.11-3.302-.909-.252-.152-.407-.337-.243-.658-.06-.379-.238-.73-.197-1.127l-.012.014c-.029-.008-.055-.019-.08-.029-.274-.157-.078-.35-.039-.528.017-.045.031-.091.047-.136-.006-3.77-.02-7.537-.008-11.306.002-.448-.127-.575-.57-.565-1.117.023-2.238-.004-3.356-.01l-.14.123a.074.074 0 0 1 .057.019c.107.188.079.397.079.601.002 3.96.002 7.919.001 11.881 0 .202.021.409-.077.602a.077.077 0 0 1-.053.017l.012.558c.009.063.019.126.026.188.038.16.078.321.111.483.396 1.849 1.166 3.431 3.004 4.261.359-.056.623.389 1.01.196.4-.106.795.043 1.195.029.644-.021 1.289 0 1.918-.173.164-.047.324-.073.47.052a3.5 3.5 0 0 0 1.271-.543c-.029-.36.18-.315.408-.242.301-.162.594-.333.794-.623.103-.146.238-.219.419-.132.236.127.108.273.022.418-.017.238-.015.477.096.695.017-.09.03-.182.047-.276.14.14.044.252-.03.365-.011.098.024.169.119.204.91-.208 1.832-.075 2.746-.08z"/><path d="M42.088 35.1c-.012.008-.023.017-.035.023-.219.234-.437.47-.654.704.359-.179.567-.427.689-.727z"/><path d="M42 34.516V21.482c0 .235.086.505.086.761-.004 4.01.096 8.019.092 12.028 0 .258.102.524-.046.766-.03.021-.036.042-.067.063-.123.303-.514.551-.873.729.597-.114.808-.629.808-1.313zM42.148 21.689a.328.328 0 0 1 .095-.114.576.576 0 0 0 0-.215c-.032.041-.063.082-.097.123v.191c0 .006 0 .011.002.015z"/><path d="M42.243 21.575c.041-.034.077-.07.146-.094l-.146-.121a.576.576 0 0 1 0 .215zM42.163 22.244c.013 4.19-.015 8.381.015 12.57.034-.166.055-.344.053-.535-.017-3.928-.01-7.854-.008-11.78 0-.279-.007-.559.01-.837l.012-.087a.342.342 0 0 0-.096.114c.044.181.013.372.014.555z"/><path d="M42.23 21.662c-.016.278-.008.558-.008.837-.002 3.927-.099 7.854-.082 11.78.003.194-.14.369-.14.535v.006c0 .072.111.144.092.216.146-.24.139-.509.139-.767.004-4.01.023-8.019.027-12.027 0-.256-.045-.525.12-.761-.067.023-.101.06-.142.094-.004.029 0 .058-.006.087zM42.148 21.689c-.002-.005-.002-.01-.002-.015v.021c0-.002 0-.004.002-.006z"/><path d="M42 34.914c0-.033.098-.063.104-.1-.027-4.189.035-8.38.022-12.57a2.43 2.43 0 0 0-.069-.555c0 .002-.057.004-.057.006v13.219zM42.178 34.814c-.007.035-.021.065-.031.1v.01c.013.037.022.075.035.112a.37.37 0 0 0-.004-.216v-.006zM31.938 34.318c-.015.041-.026.082-.053.121.024.015.049.027.071.041l-.019-.104.001-.058zM31.906 21.374c.004.008.008.015.009.021.003-.01.008-.017.01-.025l-.019.004zM31.979 23.737c-.002.55-.008 1.1-.006 1.65.006 2.781.034 5.562.03 8.343l-.003.588v.058c0 .035-.02.069-.014.104.021.002.021-.004.037-.016-.007-3.575-.035-7.151-.044-10.727z"/><path d="M31.916 21.396c.012.025.027.048.035.074.023.594.027 1.188.027 1.782l-.004-1.089c0-.26.021-.521.031-.78a.072.072 0 0 0-.057-.019c-.008 0-.016.004-.023.006-.001.009-.006.016-.009.026zM31.919 26.375c-.006-1.586.001-3.171-.003-4.756a4.453 4.453 0 0 0-.007-.2c.002-.009.006-.015.007-.023-.001-.007-.005-.014-.009-.021-.013.004-.026.005-.039.01.005 4.353.012 8.705.019 13.057.024-.039.037-.08.053-.121-.045-2.65-.01-5.3-.021-7.946z"/><path d="M31.961 21.47c-.006-.026-.027-.049-.039-.074-.001.009-.009.015-.011.023.003.066.004.134.005.2.004 1.585-.002 3.17.003 4.756.011 2.646-.026 5.296.019 7.943.064-.19.033-.394.033-.588.004-2.781.018-5.563.012-8.343-.002-.55.018-1.1.018-1.65v-.485a44.101 44.101 0 0 0-.04-1.782zM16.521 16.222a.436.436 0 0 0 .104-.234l.003-.252a.644.644 0 0 1-.134.367.774.774 0 0 0-.084.014.159.159 0 0 0 .015.105h.096zM16.987 14.868h-.264c-.159.048-.144.164-.111.286-.001.126.014.254.021.381.018-.429.088-.601.354-.667zM21.772 14.988l-.066-.129-.285.001c.121.024.24.059.351.128z"/><path d="M16.987 14.868c-.267.065-.336.238-.354.667.004.067 0 .134-.006.2-.001.08-.002 0-.003.096-.007.094-.052.078-.104.078h.106c.126 0 .136-.195.112-.377-.078-.588.199-.645.74-.632 1.431.03 2.862.049 4.294.049-.111-.069-.231-.085-.351-.108-1.478.002-2.955.024-4.434.027zM16.748 14.778a.352.352 0 0 1-.024.09.563.563 0 0 1 .137-.091l-.113.001zM21.353 14.748c.12.025.238.063.354.111l-.147-.115-.2.001-.007.003z"/><path d="M17.792 14.842c1.059-.001 2.117.015 3.174.013.155 0 .307.055.455.055h.285c-.116 0-.234-.111-.354-.137-.07.014-.144.003-.218.003-.729.002-1.458-.007-2.188-.007-.696.006-1.392.027-2.087.032-.048.022-.094.108-.137.108h.264c.174 0 .422-.067.806-.067z"/><path d="M20.967 14.819c-1.058.003-2.115.001-3.174.002-.384 0-.632.004-.805.047l4.435-.008a2.31 2.31 0 0 0-.456-.041zM21.346 14.745l.007.003.006-.003zM18.947 14.763c.729 0 1.458.002 2.188 0 .074 0 .147-.001.218-.015l-.007-.003-2.399.018zM38.531 40.318c.408.011.795-.094 1.171-.241-.511.002-1.005.146-1.507.231.114.005.225.01.336.01zM36.294 40.309c.054.041.104.082.157.123.04-.019.081-.035.121-.055.121-.029.244-.042.365-.057a3.448 3.448 0 0 0-.643-.011z"/><path d="M39.232 40.025c-.629.173-1.274.15-1.918.173-.4.014-.795-.138-1.195-.029l.175.14c.216-.017.431-.012.646.014.418-.047.838-.025 1.258-.012.502-.086.994-.23 1.506-.232-.147-.127-.308-.1-.472-.054zM25.628 39.85c-.012-.008-.025-.013-.036-.021v.01l.036.011zM29.329 39.855h.31c-.01-.148-.019-.299-.027-.447-.021.238-.117.378-.283.447z"/><path d="M28.922 39.744c-1.11-.01-2.222-.003-3.332-.003l.002.088c.011.008.024.013.037.021 1.233.002 2.467.004 3.7.008.166-.07.262-.211.282-.448-.136.304-.393.337-.689.334zM25.592 39.85h.036l-.036-.011v.011zM42.85 39.943l-.011.021h.198c-.062-.008-.126-.009-.187-.021zM46.141 39.963h.279l.098-.143a.31.31 0 0 1-.078-.145.525.525 0 0 1-.299.288z"/><path d="M46.141 39.909c.135 0 .239-.117.299-.261 0-.002-.004.01-.004.006a1.261 1.261 0 0 1 .006-.246l-.025-.118c-.094.451-.365.571-.822.574-.914.005-1.836-.154-2.744.052.063.011.125-.007.188-.007h3.102zM46.482 39.613l-.012-.061c-.012.041-.017.088-.031.123a.294.294 0 0 0 .078.145l.002-.034a.358.358 0 0 1-.037-.173z"/><path d="M46.436 39.668c0 .004.004.006.004.009.017-.034.021-.081.031-.122l-.029-.14a1.336 1.336 0 0 0-.006.253zM29.389 39.984h.123l.127-.129a.854.854 0 0 1-.326.095c.025.009.048.023.076.034z"/><path d="M25.658 39.909c-.037-.015-.058-.035-.07-.062a6.438 6.438 0 0 0-.137.019l.14.116c1.266.002 2.53.002 3.798.002a.507.507 0 0 0-.076-.034c-.053.006-.104.014-.156.013-1.167-.031-2.335.072-3.499-.054zM25.631 39.85h-.003z"/><path d="M27.774 39.909c-.669.004-1.337.005-2.004-.021.014.002.025.008.039.01.656.015 1.31.013 1.965.011zM29.045 39.909a.862.862 0 0 1 .268.041.844.844 0 0 0 .326-.095h-.31a.685.685 0 0 1-.284.054z"/><path d="M25.631 39.909a.67.67 0 0 1 .14.01c.667.024 1.335.009 2.004.005.35 0 .702-.015 1.054-.015h.217c.114 0 .205.01.284-.022-1.233-.003-2.467.022-3.699.022-.001 0-.001 0 0 0z"/><path d="M27.774 39.907c-.655.002-1.31.015-1.965.001-.014-.002-.025.001-.039.001H25.588c.013 0 .033.016.07.03 1.164.125 2.332.006 3.496.037.054.002.104-.016.156-.021a.819.819 0 0 0-.267-.047h-.015c-.416.001-.835-.004-1.254-.001zM25.771 39.889a.856.856 0 0 1-.14-.039c.023.014.041.03.071.039h.069z"/><path d="M28.828 39.91c-.352-.003-.704-.001-1.054-.001.419-.002.838-.007 1.257.002l.014-.002c-.072 0-.146.002-.217.001zM13.093 39.885c.002-.004-.009-.012-.017-.02a.538.538 0 0 1-.141.033c-1.172-.012-2.345.072-3.515-.047a.633.633 0 0 1-.175-.111c-.06.121-.013.197.103.244l3.698-.016c.017-.027.036-.053.047-.083z"/><path d="M12.936 39.898a.631.631 0 0 0 .141-.033c-.006-.006-.009-.012-.014-.018-1.041.002-2.082.088-3.123.088-.202 0-.412-.026-.59-.026h-.104c.053 0 .11 0 .175.026 1.17.122 2.343-.046 3.515-.037zM26 39.836v-.013c-1-.104-.382-.284-.449-.446-.21-.503-.38-1.061-.679-1.529.199.668.347 1.338.545 2.006.051-.041.291-.052.354-.029.015.003.229.006.229.011z"/><path d="M25.582 39.823a.135.135 0 0 1 .008-.082c-.104-.296-.192-.601-.319-.886-.151-.344-.107-.787-.503-1.01.299.471.364 1.027.574 1.53.067.164.097.346.24.448zM25.583 39.848l-.002-.012-.045-.013a.168.168 0 0 0-.17.028c.027.01.056.015.085.015.04-.046.085-.048.132-.018z"/><path d="M25.592 39.829l-.01-.006-.001.013.011.003zM25.59 39.741a.121.121 0 0 0-.008.082l.01.006-.002-.088z"/><path d="M25.592 39.839l-.011-.003.002.012.009.002z"/><path d="M25.583 39.848c-.047-.029-.092-.025-.132.02l.137-.018-.005-.002z"/><path d="M25.592 39.85l-.009-.002.005.002zM42.839 39.964a.868.868 0 0 0-.002.088h.185a.41.41 0 0 1-.183-.088zM46.423 40.059a.782.782 0 0 0-.003-.096.45.45 0 0 1-.204.096h.207zM45.719 39.973c-.893-.06-1.789-.063-2.682-.063h-.198c.058 0 .118.1.183.114 1.064.002 2.131-.01 3.194-.008.072-.016.142-.106.204-.106h-.279c-.118-.001-.248.072-.422.063z"/><path d="M45.719 39.973c.174.012.307-.063.422-.063h-3.104a39.35 39.35 0 0 1 2.682.063zM14.351 23.267c.31-.518.401-1.115.62-1.666-.408.48-.462 1.092-.62 1.666z"/><path d="M14.351 23.267c.46-.461.568-1.053.62-1.666-.22.55-.311 1.148-.62 1.666zM15.971 18.463c-.323.21-.188.657-.46.894a.25.25 0 0 1 .079.11c.188-.307.269-.663.381-1.004z"/><path d="M15.508 19.804c.337-.384.486-.832.463-1.341-.111.341-.192.697-.381 1.004.035.112-.048.224-.082.337z"/><path d="M15.59 19.467a.25.25 0 0 0-.079-.11c.002.094-.039.187-.046.279a1.5 1.5 0 0 0 .125-.169z"/><path d="M15.59 19.467a1.416 1.416 0 0 1-.125.169.232.232 0 0 0 .043.168c.034-.113.117-.225.082-.337zM27.147 32.016c.123.547.274 1.082.57 1.565-.164-.531-.304-1.071-.57-1.565z"/><path d="M27.147 32.016c.024.582.14 1.131.57 1.565-.295-.483-.446-1.018-.57-1.565zM10.441 35.59c.275-.404.312-.896.497-1.334-.355.374-.364.877-.497 1.334z"/><path d="M10.441 35.59c.39-.361.492-.829.497-1.334-.185.435-.221.93-.497 1.334zM28.267 35.486c.128.447.197.918.476 1.301-.088-.46-.288-.878-.476-1.301z"/><path d="M28.755 36.829c-.003-.015-.01-.027-.013-.042-.278-.383-.348-.854-.476-1.301.011.52.134.998.44 1.412a.147.147 0 0 1 .049-.069z"/><path d="M28.707 36.898c.038.051.067.104.111.152l-.063-.223a.15.15 0 0 0-.048.071zM22.77 18.347c.107.43.201.865.469 1.234-.133-.422-.206-.864-.469-1.234z"/><path d="M22.77 18.347c.001.47.074.913.469 1.234-.268-.369-.363-.805-.469-1.234zM15.093 33.588c-.31.355-.282.842-.472 1.243.356-.339.279-.842.472-1.243z"/><path d="M15.093 33.588c-.403.321-.435.784-.472 1.243.19-.401.162-.888.472-1.243zM13.392 39.406c-.026-.271.084-.521.135-.778-.294.265-.222.636-.284.966l.149-.188z"/><path d="M13.2 39.646l.042-.053c.063-.33-.01-.701.284-.966-.331.269-.48.596-.326 1.019zM38.354 40.412h.004a.086.086 0 0 1 .088-.014l.086-.08c-.07.031-.141.039-.211.062.015.009.027.02.033.032zM36.572 40.377l.218.035c.013-.003.022-.003.035-.005a7.263 7.263 0 0 0-.253-.03z"/><path d="M37.254 40.354c-.105-.011-.21-.021-.314-.033-.123.015-.244.027-.367.057.085.008.17.02.254.03.141-.032.282-.047.427-.054zM37.771 40.355c.179.008.355.015.533.011.008.004.008.01.016.014.07-.021.141-.028.211-.062-.111 0-.225-.006-.336-.01-.138.026-.281.04-.424.047z"/><path d="M37.771 40.355c.143-.01.285-.021.424-.047-.42-.014-.84-.035-1.258.012.105.013.211.022.315.033.176-.005.348-.001.519.002zM36.825 40.407c-.013.002-.022.002-.035.005h.08l-.045-.005zM38.354 40.412a.112.112 0 0 0-.033-.032l-.114.032h.147z"/><path d="M37.254 40.354a2.492 2.492 0 0 0-.429.054l.045.005h1.336l.114-.032c-.008-.004-.008-.01-.016-.014a7.912 7.912 0 0 1-.533-.011c-.14.011-.278.022-.422.01a1.45 1.45 0 0 0-.095-.012z"/><path d="M37.254 40.354l.098.012c.143.014.281.001.422-.01-.174-.004-.346-.008-.52-.002zM36.329 34.93a.778.778 0 0 0 .269.658c-.09-.22-.179-.442-.269-.658z"/><path d="M36.598 35.588a.795.795 0 0 1-.269-.658c-.164.321.017.506.269.658zM16.612 15.154l-.077.087-.023.305-.018.557c.224-.293-.075-.652.118-.949z"/><path d="M16.634 15.535c-.007-.127-.022-.255-.021-.381-.193.297.105.655-.118.948a.644.644 0 0 0 .134-.367c0-.07.003-.139.005-.2z"/><path d="M16.634 15.535c-.002.061-.005.13-.006.2.006-.066.01-.132.006-.2zM40.975 39.534l.407-.242c-.166.03-.366.002-.407.242z"/><path d="M40.975 39.534c.041-.24.241-.212.407-.242-.23-.074-.439-.118-.407.242zM36.105 33.139a1.88 1.88 0 0 1-.08-.017c.021.03.033.065.047.103.011-.03.02-.058.033-.086z"/><path d="M36.02 33.786c.025.012.055.021.082.03-.123-.198-.104-.396-.029-.594-.012-.035-.024-.07-.047-.102-.016.045-.029.091-.045.136.011.178.024.353.039.53z"/><path d="M36.086 33.254c-.012.141-.038.28-.004.421l.02.06c.002-.198.004-.397.004-.596-.014.028-.022.057-.033.086.003.009.01.018.013.029z"/><path d="M36.082 33.675c-.034-.141-.007-.28.004-.421-.003-.011-.01-.02-.014-.029-.076.196-.094.395.029.592v-.082c-.005-.021-.013-.042-.019-.06zM42.596 38.537l.021.418c.063-.142.113-.286-.021-.418z"/><path d="M42.596 38.537c.135.132.084.273.021.418.086-.144.214-.291-.021-.418zM42.713 39.65a.084.084 0 0 0 .018.089c.078-.089.043-.197.056-.3-.01.079.009.163-.074.211z"/><path d="M42.76 39.374l-.047.276c.083-.049.064-.135.072-.211-.014.103.021.211-.057.3.075-.113.17-.225.032-.365zM15.838 32.896c1.83-.004 3.659.014 5.489.014h.069c.578-.003 1.156-.002 1.734-.002-.07-.168-.222-.108-.34-.108-2.324-.004-4.649-.019-6.973-.019-.187 0-.376.129-.519.129h.165c.118-.001.25-.014.375-.014z"/><path d="M15.838 32.911c-.125 0-.257-.013-.374.028 1.954-.01 3.908-.021 5.863-.03-1.83 0-3.66-.001-5.489.002zM21.952 28.909c-.093 0-.206.159-.33.159-1.728-.01-3.458.08-5.185.017-.067-.021-.126-.037-.173-.09-.002-.01-.003-.154-.005-.164-.021.072-.043.078-.064.078h6.035-.278zM16.137 29.064c-.012.037.008.086.051.141h.002c-.03-.049-.041-.096-.053-.141zM16.178 29.205l.014.009-.002-.003z"/><path d="M16.189 28.985a.731.731 0 0 0-.189.002v.002c0 .01.133.018.135.026.047.053.17.09.238.111 1.727.064 3.49.016 5.218.025.123 0 .252-.02.345-.074l-5.41.02c-.104.003-.286.029-.337-.112zM16.188 29.205h-.01l.011.004zM16.19 29.21h.001v.001h-.001z"/><path d="M21.855 29.268a2429.1 2429.1 0 0 1-5.399 0c-.123 0-.456.022-.456-.058v.002c0 .101.488-.303.651-.303h5.106c.168 0 .335.207.473.088-.112.094-.248.271-.375.271z"/><path d="M16.193 29.063c.109.08.237.131.359.131 1.768.002 3.535-.108 5.303-.11.127 0 .263-.173.375-.173h-6.035c-.001-.002-.001.15-.002.152zM16.186 29.207h.005v.002h-.005z"/><path d="M16.189 29.209l-.011-.004.012.006zM12.336 39.796c.222.009.444-.002.666.004l.006.002-.027-.024.105-.023-3.736-.012c.993.123 1.991.021 2.986.053z"/><path d="M9.939 39.854c1.041 0 2.082-.004 3.123-.004l-.055-.048-.006-.002c-.221-.006-.444.005-.666-.004-.995-.032-1.993.07-2.986-.055.178.137.388.111.59.113zM13.008 39.802c.023.001.042.011.063.017.006-.021.013-.043.016-.064-.035.008-.07.018-.105.023l.026.024z"/><path d="M13.008 39.802l.055.048c.004-.011.004-.021.008-.031-.021-.006-.04-.016-.063-.017zM18.924 19.585l.007-.003c-.099-.313.049-.585.185-.859-.389.29-.393.669-.247 1.082-.044-.089 0-.156.055-.22z"/><path d="M18.931 19.582l-.007.003c-.055.064-.099.131-.056.22l.092-.118c-.019-.037-.019-.07-.029-.105zM18.931 19.582c.012-.009.021-.009.032-.015.006-.289.133-.559.152-.845-.136.275-.283.547-.184.86z"/><path d="M18.931 19.582c.011.035.011.068.029.104-.005-.041.002-.08.003-.119-.012.006-.021.006-.032.015zM22.009 27.867c-.03-.295.007-.618-.333-.782.179.244.208.542.301.818l.032-.036z"/><path d="M21.977 27.903c-.093-.276-.122-.574-.301-.818-.053.332.196.586.23.895l.071-.077zM19.359 19.468c.225-.315.206-.494-.057-.528.156.161.142.34.057.528z"/><path d="M19.303 18.939l.057.528c.084-.187.098-.366-.057-.528zM21.998 27.974c.077.22.167.437.125.678.197-.295.027-.537-.113-.784.027.064.016.092-.012.106z"/><path d="M21.906 27.979l.216.672c.042-.241-.048-.458-.125-.678a.143.143 0 0 1-.091.006z"/><path d="M21.985 27.934a.264.264 0 0 1 .012.04c.029-.014.04-.042.011-.106a1.164 1.164 0 0 0-.032.036l.009.03z"/><path d="M21.985 27.934l-.009-.03-.07.076c.041.008.07.004.091-.006a.234.234 0 0 0-.012-.04zM18.088 22.145c-.111.175-.122.384-.102.59.127-.153.034-.407.238-.526-.033-.053-.058-.187-.136-.064z"/><path d="M17.986 22.734l.003-.002.011-.015z"/><path d="M18 22.724c.212-.109.186-.327.225-.516-.204.119-.111.373-.238.526l.013-.017v.007z"/><path d="M17.989 22.732c-.179.23-.317.47-.133.767.004-.266.001-.532.141-.773l-.008.006z"/><path d="M17.997 22.726c-.14.241-.137.508-.141.773.127-.244.178-.502.144-.775l-.003.002zM18 22.717l-.011.015.008-.006z"/><path d="M17.997 22.726l.003-.002v-.004zM16.26 28.987c-.032-.189-.069-.378.054-.555-.122.201-.238.403-.177.632.01-.035.047-.061.123-.077zM16.192 29.214l.001-.002h-.002z"/><path d="M16.26 28.987a1.04 1.04 0 0 0 .054-.555c-.124.177-.086.366-.054.555zM16.195 29.205l.064-.216v-.002c-.076.016-.112.042-.123.078.013.045.023.092.053.141l.006-.001zM16.26 28.987v.002l.001-.001zM16.191 29.21h.001v.003h-.001z"/><path d="M16.191 29.205h.003v.005h-.003zM16.458 16.312c.011-.014.019-.028.031-.042a.211.211 0 0 1-.049-.009c.007.017.015.034.018.051z"/><path d="M16.488 16.27c-.012.014-.02.028-.031.042a.168.168 0 0 1-.027.133c.044.056.122.162.125.16.146-.102.04-.255.071-.384a.168.168 0 0 1-.138.049z"/><path d="M16.488 16.27c.012-.016.021-.032.032-.048h-.096c.009.013.009.025.015.039a.221.221 0 0 0 .049.009z"/><path d="M16.488 16.27a.165.165 0 0 0 .138-.049l-.106.001c-.011.015-.02.032-.032.048zM16.439 16.261c-.005-.002-.009-.001-.014-.002l.003.096.029-.043a.173.173 0 0 0-.018-.051zM16.458 16.312l-.029.043.002.09a.17.17 0 0 0 .027-.133z"/><path d="M16.425 16.222l.001.037c.005.001.009 0 .014.002-.006-.014-.006-.027-.015-.039zM32.027 23.841c-.008 3.542.029 7.083-.02 10.625.1-.19.077-.397.077-.602.001-3.962.001-7.921-.001-11.881 0-.203.029-.412-.079-.601.057.82.025 1.64.023 2.459z"/><path d="M32 23.252v.485c0 3.576.01 7.152.02 10.729.049-3.542.006-7.083.015-10.625.002-.818.03-1.639-.024-2.458-.011.26-.021.521-.021.78-.002.363.01.727.01 1.089zM32 23.252v0zM35.979 33.258c-.039.18-.234.371.039.528-.123-.168-.065-.348-.039-.528z"/><path d="M36.02 33.786c-.015-.177-.026-.353-.039-.528-.028.18-.086.36.039.528z"/></g></svg>