<svg xmlns="http://www.w3.org/2000/svg" width="57" height="57" viewBox="0 0 57 57"><path fill="#1E100D" d="M0 0v57h57V0H0zm54 54H3V3h51v51z"/><path fill="#ECCE16" d="M3 2.909h51v51H3z"/><g fill="#1E100D"><path d="M27.688 33.643c-.387-.627-.476-1.354-.693-2.035a3.19 3.19 0 0 1-.303-.904c-.088-.219-.233-.42-.219-.671-.168-.394-.318-.79-.375-1.218-.342-.633-.474-1.336-.674-2.018-.305-.805-.595-1.615-.781-2.457-.34-.635-.475-1.338-.674-2.02a3.374 3.374 0 0 1-.298-.905l-.132-.412c-.201-.478-.377-.962-.461-1.477-.297-.524-.398-1.114-.564-1.683a3.431 3.431 0 0 1-.299-.906 32.415 32.415 0 0 0-.131-.41l-.421-1.058-4.684.013c-.132 0-.262-.009-.361-.111-.268.137-.077.424-.198.607l-.032.402a1.508 1.508 0 0 1-.092.705c-.189.922-.445 1.822-.895 2.656-.009.128.008.265-.032.384-.538 1.628-1.083 3.253-1.626 4.879-.159.538-.256 1.099-.588 1.571-.073.91-.471 1.723-.754 2.57-.164.53-.236 1.098-.576 1.563l-.018.218c-.141.242-.038.554-.227.783l-.188.569c-.135.416-.163.873-.466 1.228l-.019.218c-.168.355-.109.779-.335 1.118-.065.202-.13.404-.197.607l-.262.846c-.375 1.185-.652 2.405-1.185 3.541-.078.166-.093.372.186.41-.01-.02-.008-.038.006-.057.541-.188 1.1-.082 1.648-.08.717.004 1.44-.102 2.152.072.016.017.018.033.005.051.185-.104.187-.306.243-.478.283-.856.563-1.716.845-2.573.156-.645.308-1.289.591-1.894.139-.584.31-1.157.542-1.711 0-.122.026-.233.128-.313v-.102c.047-.205.212-.107.318-.107 2.361-.006 4.689-.006 7.051 0 .106 0 .284-.098.284.107v.224c.229.244.403.544.356.897.27.492.473 1.016.589 1.563.203.432.344.885.455 1.344a.96.96 0 0 1 .138.666c.258.129.221.39.313.603.251.573.293 1.271.676 1.729-.013 0-.011-.018.006-.033 1.12-.168 2.248-.026 3.371-.062.254-.008.521-.057.762.078.019.019.021.038.007.06a.356.356 0 0 1 .1-.041c-.12-.844-.523-1.604-.695-2.433-.48-1.356-.982-2.707-1.317-4.113zm-5.586-4.053c-.121.11-.272.104-.422.104-1.693.002-3.388.002-5.082 0-.148 0-.301.01-.423-.102-.067-.076-.116-.152-.015-.238l.129-.328c.148-.573.201-1.179.564-1.679l-.01-.113c.059-.549.26-1.057.449-1.566.257-.982.53-1.961.879-2.915.105-.499.149-1.019.469-1.448-.085-.207-.018-.39.088-.566.004-.495.242-.935.313-1.523.283.469.24.914.388 1.3.555 1.829 1.109 3.659 1.662 5.489.197.654.393 1.309.588 1.963.154.338.25.693.306 1.061l.121.451-.004.11zM42.501 27.443c.087.047.099-.389.185-.057.131.499.219 1.023.221 1.538.018 3.689.008 7.381.007 11.07h.001c.307.201.648.096.975.102.906.019 1.814.01 2.721.01 0-3.734 0-7.47.002-11.205 0-.219-.051-.448.086-.651l.044-.245c-.007-.22-.015-.439-.021-.66a.073.073 0 0 1-.013-.089c-.132-.174.013-.445-.206-.59-.154-.151-.154-.162-.016-.437a5.81 5.81 0 0 0-.766-2.256c-.328-.002-.322-.197-.246-.432-.223-.32-.388-.711-.68-.945-.635-.514-1.342-.932-2.143-1.163a11.377 11.377 0 0 0-2.086-.138l-.19.027c-.087.026-.173.057-.263.078-1.229.291-2.407.689-3.352 1.582-.076.224-.133.469-.455.434-.334-.028-.185-.272-.195-.443l-.111-.48c-.04.067-.044.241-.082.202-.111-.116-.049-.267.057-.385 0-.214-.009-.423-.229-.541-.744.208-1.503.063-2.253.086-.905.027-.938.011-1.178.713l-.002.016c-.002.026-.017.042-.023.06l-.012 1.011c.095.871.095 1.746.096 2.62.003 4.432-.001 8.862.005 13.293.001.228-.097.486.125.678-.012-.02-.01-.037.006-.053.576-.194 1.169-.063 1.753-.084.645-.025 1.291-.01 1.938-.014.001-4.266.008-8.531-.006-12.798-.002-.611.248-.98.799-1.182.229.006.363-.169.531-.275.805-.507 1.66-.813 2.629-.731 1.311.11 2.252 1.062 2.303 2.356l.033.009.011-.031z"/><path d="M36.305 40.05l-.031.056.031.002v-.058zM36.516 26.655a.2.2 0 0 1 .133-.065l.345-.474c-.24.147-.387.331-.478.539z"/><path d="M36.193 27.298c.014 4.267.007 8.532.006 12.798.023.002.048.006.074.01l.031-.056c.002-4.186.006-8.373.012-12.56 0-.236-.063-.486.096-.704.035-.043.064-.092.104-.131.092-.208.238-.393.478-.539-.553.201-.803.571-.801 1.182zM36.417 39.993a.765.765 0 0 1-.03.065.171.171 0 0 1-.08.057c.002.02.004.037.01.056a.06.06 0 0 1-.002.062.297.297 0 0 1 .1-.043.722.722 0 0 1 .002-.197z"/><path d="M36.256 40.107s.025.004.025.008a.18.18 0 0 0 .093-.057c.013-.021.028-.043.038-.065l.003-.017c.007-4.328.022-8.653-.004-12.98l.001-.004a3.076 3.076 0 0 0-.045.583c.004 3.127.002 6.254.002 9.382 0 .838-.047 1.675-.051 2.514-.002.194.117.396-.112.579v.058h.05v-.001z"/><path d="M36.367 39.471c.005-.839.002-1.676.002-2.514.001-3.128.003-6.255-.001-9.382-.001-.201.01-.398.044-.583a.345.345 0 0 1 0-.206c-.157.218-.096.468-.096.704-.006 4.187-.01 8.374-.012 12.56.091-.183.063-.385.063-.579zM36.439 39.939c-.006.019-.015.035-.022.054a.743.743 0 0 0-.003.194.105.105 0 0 1 .025-.086v-.162z"/><path d="M36.413 26.996c.026 4.327.013 8.652.007 12.98l-.002.017c.008-.019.016-.035.021-.054l.006-13.042-.006-.021a1.016 1.016 0 0 0-.026.12z"/><path d="M36.412 26.992c.008-.04.018-.078.027-.115-.01-.03-.02-.061-.027-.091a.361.361 0 0 0 0 .206zM46.732 39.934c.002.06.002.117.002.176a.68.68 0 0 0 .092-.018.528.528 0 0 1-.086-.177l-.008.019z"/><path d="M46.732 39.934l.008-.019-.008-.033v.052zM46.723 38.221c-.002-3.127 0-6.253-.002-9.38 0-.242.014-.482.057-.721a.81.81 0 0 1 .011-.099 2.448 2.448 0 0 1-.047-.017l-.044.245.025 9.733v.239z"/><path d="M46.797 28.367c-.045 3.63-.006 7.259-.021 10.889-.002.221.035.448-.034.659.018.062.043.12.086.177l-.007-11.853a.802.802 0 0 1-.024.128z"/><path d="M46.744 28.021c-.006.031.015.065.012.099a4.04 4.04 0 0 0-.047.721c.002 3.127.008 6.253.009 9.38.003.555.009 1.108.013 1.661a.207.207 0 0 0 .01.033c.068-.211.033-.438.035-.659.016-3.63-.066-7.259-.021-10.889.013-.042-.019-.085-.019-.128v-.207s.02-.007.008-.011zM46.633 40.117c-.012.005-.018.008-.021.012.002.003.002.008.002.008.003.004.004.006 0 .006l.005.032.014.034-.022.025.127-.125a.27.27 0 0 1-.047-.076c-.02.03-.037.057-.058.084zM46.508 40.141v.002-.002z"/><path d="M46.667 39.736l-.001-11.211c0-.093 0-.187.031-.275-.137.203-.086.433-.086.651-.002 3.735-.002 7.47-.002 11.205a.094.094 0 0 1 .002.022l.021-.012c.021-.027.038-.056.055-.084-.039-.093-.02-.196-.02-.296zM46.688 40.033c.012.025.024.052.047.076v-.178a.956.956 0 0 1-.047.102z"/><path d="M46.725 39.443c0-.407 0-.815-.002-1.225v-.234c-.01-3.245-.018-6.489-.025-9.734-.031.089-.031.183-.031.275l.001 11.211c0 .1-.019.203.021.297a.678.678 0 0 0 .047-.102l-.002-.051c-.031-.141-.009-.291-.009-.437z"/><path d="M46.732 39.882c-.004-.553-.008-1.106-.01-1.661 0 .407 0 .815.002 1.225.001.143-.021.293.008.436zM42.811 40.014a.324.324 0 0 1-.025-.072.463.463 0 0 1-.096.162l.115.107a.135.135 0 0 1 0-.072l.006-.125zM42.846 28.942v0z"/><path d="M42.811 39.813a.601.601 0 0 1-.025.129c.006.024.016.049.025.072v-.012-.189zM42.801 39.409c0 .062.006.124.01.188l-.006-8.262c0 2.69 0 5.383-.004 8.074zM42.749 39.43l.002-.117-.003-6.293c0 2.096.001 4.19-.001 6.287-.001.041.001.082.002.123zM42.748 39.729a.648.648 0 0 1-.059.221v.154a.463.463 0 0 0 .096-.162.991.991 0 0 1-.037-.213z"/><path d="M42.846 39.598c0-.063-.027-.127-.027-.188.004-2.691-.006-5.384-.006-8.073 0-.646.017-1.294.015-1.941 0-.029.019-.06.019-.09v-.362c0-.067-.05-.133-.084-.196.008.165 0 .333 0 .499 0 1.259-.007 2.516-.007 3.773 0 2.098-.002 4.194 0 6.293 0 .037-.002.078-.004.117.004.1.009.199-.001.299.005.071.033.144.055.213.014-.041.041-.084.041-.129l-.001-.215zM42.749 39.43a5.045 5.045 0 0 1-.002-.123c.002-2.097.001-4.191.001-6.287v-3.773c0-.172-.005-.344-.018-.515-.008-.014-.014-.028-.023-.041l-.018 11.259a.659.659 0 0 0 .059-.221c-.006-.101-.002-.202.001-.299z"/><path d="M42.749 39.43c-.002.1-.006.198-.001.299.01-.1.005-.202.001-.299zM42.747 29.245v3.774l.002-3.774c0-.166-.003-.334-.011-.499-.002-.006-.006-.011-.01-.016.014.171.019.343.019.515zM22.704 33.257c.022.007.046.017.067.025a.168.168 0 0 1 .123.098c.033.009.068.011.102.009a.747.747 0 0 0-.224-.121l-.068-.011zM17.08 33.218c.809.001 1.617.005 2.426.005-.809-.008-1.617-.016-2.426-.005zM22.343 33.217c-.337-.02-.676-.001-1.013.006h.776c.079 0 .158-.004.237-.006z"/><path d="M15.275 33.096v.135c.063-.037.129-.035.202-.032.534.003 1.068.011 1.603.011.809-.01 1.617.002 2.426.009.608-.001 1.217.003 1.824.003.336-.007.676-.022 1.013-.004.122-.002.243.004.361.039.022.005.011.008.034.012.083.027.19.071.19.123v-.295l-7.653-.001z"/><path d="M15.5 33.294l7.103-.017c.056 0 .116-.008.169.005a.34.34 0 0 0-.067-.025 3.435 3.435 0 0 0-.361-.04c-.079.002-.158.006-.236.006h-.776l-.111.002c-.57.006-1.142.002-1.713-.002-.809 0-1.617-.004-2.426-.005a38.71 38.71 0 0 0-1.524.048c-.021.007-.039.019-.058.028z"/><path d="M15.5 33.323c.019 0 .037-.035.056-.044a38.86 38.86 0 0 1 1.524-.055l-1.603-.007a.368.368 0 0 0-.202.063c.037.01.074.041.112.041.038.002.076.002.113.002zM21.219 33.225l.111-.002h-1.824c.571.004 1.142.006 1.713.002zM22.343 33.217c.12.008.241.021.361.04a1.129 1.129 0 0 0-.361-.04zM16.802 15.35l-.198-.001.014.021c.07-.006.141-.009.211-.014l-.027-.006zM21.662 15.469a.102.102 0 0 0-.022-.084l-.122-.001c.05.025.097.055.144.085z"/><path d="M21.662 15.469c-.047-.029-.094-.06-.145-.085l-.32-.002a3.406 3.406 0 0 1-.303-.003l-1.242-.009c-.798.003-1.596.002-2.393-.001-.143-.001-.291.018-.432-.013-.07.005-.141.008-.211.014.1.103.229.111.361.111 1.563-.003 3.125-.007 4.685-.012z"/><path d="M16.802 15.35l.026.007.104-.006-.13-.001z"/><path d="M16.828 15.356c.141.03.289.012.432.013.797.003 1.595.004 2.393.001l-2.721-.02-.104.006zM21.197 15.382l-.303-.003c.102.005.203.007.303.003zM21.445 15.353c.02.008.039.014.058.023.046.003.091.004.137.009a.216.216 0 0 0 .001-.084v.001c-.065.023-.13.039-.196.051zM16.617 15.259a.277.277 0 0 0-.014.09l.178-.004a.508.508 0 0 1-.164-.086z"/><path d="M21.503 15.376c-.019-.01-.038-.016-.058-.023l-.076.014c.045.002.089.005.134.009zM17.182 15.337c.491-.023.984-.03 1.477-.029a38.011 38.011 0 0 1 1.91.016c.246.003.492.004.736.002.051 0 .096.012.141.027.065-.012.131-.027.195-.051v-.001c-1.674-.097-3.349-.016-5.023-.042a.498.498 0 0 0 .164.086l.4-.008z"/><path d="M17.182 15.337c.492-.012.984-.023 1.477-.029-.493-.001-.986.005-1.477.029zM21.445 15.353a.411.411 0 0 0-.141-.027c-.244.002-.49.001-.736-.002.268.011.534.024.801.043l.076-.014zM21.518 15.384l.122.001c-.046-.005-.091-.006-.137-.009a.11.11 0 0 1 .015.008zM16.781 15.345l-.178.004.198.001-.02-.005zM19.652 15.37l1.242.009c-.137-.006-.273-.015-.41-.013-.277.004-.554.003-.832.004z"/><path d="M21.369 15.366a1.962 1.962 0 0 1-.172.016l.32.002-.015-.008a5.53 5.53 0 0 0-.133-.01zM17.182 15.337l-.4.008.021.005.13.001c.082-.004.165-.011.249-.014zM18.658 15.308c.637 0 1.273.012 1.91.016a38.001 38.001 0 0 0-1.91-.016z"/><path d="M20.568 15.323c-.637-.004-1.273-.016-1.91-.016-.493.006-.984.018-1.477.029-.084.003-.167.01-.25.014l2.721.02c.277-.001.554 0 .832-.004.137-.002.273.007.41.013l.303.003c.058-.003.115-.008.172-.016a30.222 30.222 0 0 0-.801-.043zM32.578 21.754l-.288.001c-.157.295-.022.592-.001.889l.025-.075c.045-.507.068-.724.264-.815zM35.745 21.77l.009-.02h-.127c.039.007.078.011.118.02z"/><path d="M32.578 21.754c-.196.091-.219.308-.264.814.24-.702.271-.686 1.178-.713.75-.022 1.509.122 2.253-.086-.04-.009-.08-.013-.119-.02l-3.048.005zM25.555 40.249l-.098-.019c.003.027.004.056.005.082a.452.452 0 0 1 .121-.063h-.028zM29.479 40.252a.49.49 0 0 1 .121.068c.002-.028.004-.057.002-.086a1.242 1.242 0 0 1-.098.017l-.025.001z"/><path d="M25.583 40.249c.132-.047.277-.033.416-.033h.77c-.435-.007-.87-.019-1.306-.036-.017.016-.019.032-.006.051.034.008.065.014.098.02.009-.002.019-.002.028-.002zM29.596 40.182a52.29 52.29 0 0 1-1.316.034h.785c.14 0 .283-.013.414.036l.025-.001c.033-.005.064-.01.098-.017.013-.018.011-.039-.006-.052z"/><path d="M25.583 40.249a.559.559 0 0 0-.121.063l4.138.008a.46.46 0 0 0-.121-.068 80.323 80.323 0 0 1-3.896-.003z"/><path d="M26.769 40.216h-.77c-.139 0-.284-.014-.416.033 1.299.036 2.597.03 3.896.003-.131-.049-.274-.036-.414-.036h-.785c-.504.009-1.008.009-1.511 0zM42.961 40.188c-.027-.002-.049-.02-.066-.041-.018 0-.033-.002-.049-.004l-.041.068c.002.025.006.055.01.08.191-.034.383-.055.574-.066l-.428-.037zM46.361 40.186l-.121.019a.769.769 0 0 1 .363.119.42.42 0 0 0 .004-.087c-.012-.021-.024-.039-.035-.06l-.211.009zM45.686 40.221c.183-.005.371-.033.556-.018l.12-.02c-.407.015-.813.028-1.223.037.181.005.362.007.547.001z"/><path d="M42.895 40.146c.019.021.039.037.066.041l.428.037c.098-.008.194-.014.291-.017a11.42 11.42 0 0 1-.785-.061zM46.617 40.175l-.045.002c.011.021.023.039.035.06l.022-.026-.012-.036zM42.805 40.139a.135.135 0 0 0 0 .072l.041-.068-.041-.004zM43.389 40.225a5.604 5.604 0 0 0-.574.066l3.789.031a.758.758 0 0 0-.362-.119c-.951.134-1.902.098-2.853.022z"/><path d="M45.686 40.221c-.184.006-.365.004-.547.002-.486.012-.973.01-1.459-.014a7.188 7.188 0 0 0-.291.016c.951.076 1.902.112 2.853-.021-.185-.016-.375.012-.556.017zM12.801 40.253a.463.463 0 0 1 .123.063l.003-.082a1.396 1.396 0 0 1-.097.017l-.029.002zM9.213 40.259a1.467 1.467 0 0 0-.098-.011.23.23 0 0 0 .005.078.369.369 0 0 1 .116-.067h-.023z"/><path d="M12.922 40.184l-3.801.01c-.014.018-.016.002-.006.021.033.004.065-.022.098-.022h.023c.095 0 .199-.01.304-.01.987-.002 1.972.016 2.957.019.104 0 .208.011.303.045.01-.001.02.004.029.003l.097-.014c.013-.021.012-.036-.004-.052zM9.236 40.259a.437.437 0 0 0-.116.067l3.804-.01a.389.389 0 0 0-.123-.063c-1.189.032-2.377.02-3.565.006z"/><path d="M12.801 40.253a.901.901 0 0 0-.303-.037 485.77 485.77 0 0 0-2.957 0 .812.812 0 0 0-.304.043 92.06 92.06 0 0 0 3.564-.006zM36.195 40.177c-.184.13-.406.089-.615.091-1.002.012-2.005-.004-3.008.01-.016 0-.031-.008-.047-.01a.137.137 0 0 1 .039.063l3.75-.016c-.002-.026 0-.056 0-.082-.015-.02-.027-.039-.041-.06l-.078.004z"/><path d="M32.572 40.275c1.003-.014 2.006.002 3.008-.01.209 0 .432.041.615-.09-1.229.073-2.457.039-3.687.016-.016.017-.018.035-.006.054.009.006.015.015.021.021.019.004.034.009.049.009z"/><path d="M32.508 40.33l.057-.001a.14.14 0 0 0-.039-.063.086.086 0 0 1-.021-.004.255.255 0 0 0 .003.068z"/><path d="M32.525 40.268c-.008-.008-.014-.017-.021-.021v.018c.008.001.016.001.021.003zM36.316 40.171l-.043.002c.014.021.026.04.041.06a.06.06 0 0 0 .002-.062zM35.609 21.672a.42.42 0 0 1 .145.078.428.428 0 0 0-.008-.081c-.045.002-.092.002-.137.003zM32.291 21.662a1.442 1.442 0 0 0 0 .093.4.4 0 0 1 .163-.087c-.054-.003-.108-.003-.163-.006zM35.027 21.637c.199.009.4.012.599.012h.127c-.045 0-.094-.036-.146-.052-.191.006-.386.035-.58.04z"/><path d="M33.354 21.698c.135.004.27.002.403-.001a33.413 33.413 0 0 1-1.304-.029.412.412 0 0 0-.163.087l.288-.001c.143-.066.375-.064.776-.056z"/><path d="M35.027 21.688a44.91 44.91 0 0 1-1.271.01c-.134.003-.27.005-.402.001-.4-.008-.633-.01-.775.056l3.048-.004a4.506 4.506 0 0 0-.6-.063zM33.234 21.64c.547-.002 1.092-.002 1.638-.001a42.593 42.593 0 0 0-1.638.001zM32.491 21.657l-.201.005c.056.003.11.003.163.006l.038-.011zM35.609 21.672c.045-.001.092-.001.137-.003-.057-.004-.114-.004-.172-.006.012.002.024.006.035.009z"/><path d="M35.027 21.688c.193-.005.388-.009.582-.016-.012-.003-.023-.007-.035-.009-.234-.01-.469-.02-.702-.024-.546-.001-1.091-.001-1.638.001-.248.004-.496.01-.743.018l-.038.011c.436.019.869.028 1.304.029.423-.008.847-.029 1.27-.01z"/><path d="M35.027 21.688c-.424-.019-.848.003-1.271.01.424.002.848-.002 1.271-.01zM36.764 22.983l-.436.233-.01.086c.209-.021.328-.167.446-.319z"/><path d="M36.318 23.303l-.012.114c.322.035.379-.21.455-.434-.115.152-.234.298-.443.32zM45.721 23.974a.915.915 0 0 0-.246-.432c-.014.199.121.312.246.432z"/><path d="M45.721 23.974c-.125-.119-.26-.232-.246-.432-.077.234-.082.43.246.432zM46.501 26.666c.116-.148.043-.292-.015-.437-.076.149-.023.292.015.437z"/><path d="M46.501 26.666c-.039-.145-.091-.288-.015-.437-.138.275-.138.286.015.437zM35.955 22.517a.197.197 0 0 0 .045-.023c-.008-.061-.018-.121-.025-.183-.037.042-.058.091-.049.144.004.018-.047.073.029.062z"/><path d="M35.919 22.695c.038.039.042-.135.082-.202a.174.174 0 0 1-.045.023c-.076.012-.024-.044-.028-.063-.009-.053.012-.102.049-.144-.107.12-.17.27-.058.386zM15.654 33.109c2.321-.002 4.643-.002 6.965 0 .127 0 .262-.026.377.056-.047-.205-.211-.108-.318-.108a1672.77 1672.77 0 0 0-7.084 0c-.106 0-.271-.097-.318.108.117-.082.249-.056.378-.056z"/><path d="M22.619 33.075c-2.322-.002-4.644-.021-6.965-.019-.129 0-.262.037-.379.037h7.721c-.115.003-.25-.018-.377-.018zM21.514 29.581c-1.586.004-3.17.008-4.755-.004-.06-.001-.126.009-.193.016 1.846 0 3.691-.002 5.536-.003l.005-.111c-.18.136-.392.102-.593.102zM16.16 29.354c-.102.086-.053.162.015.238h.225c-.105-.015-.195-.071-.24-.238z"/><path d="M21.473 29.501c-1.561.005-3.121.021-4.683.008a.811.811 0 0 1-.26-.03c-.134.014-.269.049-.37-.093.045.165.135.274.239.274h.166c.067 0 .134-.051.193-.051 1.585.013 3.169-.03 4.755-.033.201 0 .413.084.593-.145h-.36c-.076.001-.166.07-.273.07z"/><path d="M16.53 29.482a.783.783 0 0 0 .26.037c1.562.013 3.122.008 4.683.004a.759.759 0 0 0 .273-.047c-1.675-.002-3.35 0-5.024-.01-.062.001-.126.011-.192.016zM20 29.634c-1.275-.008-2.551.064-3.825-.041.122.11.274.103.423.103h5.082c.149 0 .301.006.422-.104-.698.109-1.402.045-2.102.042z"/><path d="M16.399 29.66h-.225c1.274 0 2.55-.001 3.825.007.7.004 1.404.051 2.102-.06-1.845 0-3.69.025-5.536.026-.056.008-.112.027-.166.027zM16.565 29.66h-.166.166zM29.596 40.182c-.242-.138-.508-.082-.762-.074-1.123.033-2.25-.098-3.371.072a80.209 80.209 0 0 1 4.133.002z"/><path d="M28.279 40.216c.439-.007.877-.018 1.317-.034a81.394 81.394 0 0 0-4.134-.002c.436.019.871.029 1.306.036h1.511zM28.279 40.216h-1.511c.504.009 1.008.009 1.511 0zM12.922 40.184c-.712-.173-1.436-.066-2.152-.07-.549-.004-1.107-.109-1.648.08 1.266-.063 2.533-.048 3.8-.01z"/><path d="M9.121 40.191c1.267-.004 2.534-.006 3.801-.008a49.667 49.667 0 0 0-3.801.008zM42.803 28.744c.168.137.049.355.049.52.012 3.514.01 7.029.01 10.543v.188h.053c.001-3.69.011-7.381-.007-11.07a6.265 6.265 0 0 0-.222-1.538c-.086-.332-.097.104-.184.057.141.191.193.407.191.64.136.193.078.438.11.66z"/><path d="M42.501 27.551c-.008-.016-.017-.031-.024-.047-.056.177.135.31.123.479.016.012.023.023.037.036a3.417 3.417 0 0 0-.136-.468z"/><path d="M42.637 28.02a.65.65 0 0 1 .057.063 1.036 1.036 0 0 0-.191-.64.183.183 0 0 0-.025.061c.008.016.018.031.025.047.056.154.099.31.134.469zM42.74 28.708c.021.011.047.023.063.036-.029-.222.026-.467-.109-.661 0 .017.002.032 0 .048.023.192.036.384.046.577zM42.637 28.02c-.013-.013-.021-.024-.035-.036l.105.706c.01.004.016.009.023.013a4.714 4.714 0 0 0-.093-.683z"/><path d="M42.693 28.131c.002-.016-.002-.031 0-.048a.55.55 0 0 0-.057-.063c.049.225.076.452.092.683l.012.006a7.944 7.944 0 0 0-.047-.578zM42.859 39.807c0-3.514.004-7.029-.008-10.543 0-.162.141-.383-.029-.52.002.005.021.009.021.013v.186c0 .12-.015.241-.021.362 0 .678-.01 1.354-.01 2.031.002 2.753.017 5.507.018 8.262.005.071.013.145.013.215v.184h.032c.003-.063-.016-.128-.016-.19zM42.846 39.598v0zM42.803 28.744a.308.308 0 0 0-.063-.036v.038a.593.593 0 0 1 .064.196v-.186a.017.017 0 0 0-.001-.012zM42.803 29.395c0 .647 0 1.295.002 1.941-.002-.677 0-1.354 0-2.031-.002.03-.002.059-.002.09z"/><path d="M42.729 28.702c-.008-.004-.013-.009-.022-.013.01.013.017.027.024.041l-.002-.028z"/><path d="M42.729 28.702c.002.009.002.019.002.028l.01.016v-.038l-.012-.006zM42.857 40.122c-.004.006-.008.011-.01.017a.275.275 0 0 0 .041.002l-.031-.037v.018zM46.57 40.175c0-.002 0-.003-.002-.004l.014-.021c-.047.008-.096.014-.143.021l.131.004zM42.859 40.032c0 .022 0 .047-.002.069l.031.037c1.182.049 2.366-.006 3.551.032.047-.009.096-.015.143-.022.009-.014.02-.027.027-.043-.906 0-1.814.009-2.721-.01-.326-.006-.668.1-.976-.102h-.001c-.015.028-.035.041-.052.039zM46.613 40.141l-.002-.012c-.009.008-.002.01.002.012z"/><path d="M46.583 40.148a.107.107 0 0 1-.013.021l.002.004h.046l-.005-.031a.217.217 0 0 0-.025.006h-.005z"/><path d="M46.583 40.148h.004l.026-.006v-.002c-.004-.002-.012-.004-.002-.012l-.002-.021a.285.285 0 0 1-.026.041zM42.857 40.122v-.021a.058.058 0 0 0-.02-.021.55.55 0 0 1-.029-.066c0 .041-.002.084-.004.125h.043c.005-.006.007-.011.01-.017z"/><path d="M42.857 40.104c.002-.023.002-.047.002-.07-.017 0-.033-.014-.049-.037 0 0 0 .013-.002.02l.029.065c.009.004.015.012.02.022zM42.889 40.141c-.014 0-.027 0-.041-.002 0 .002-.002.002-.002.002a.193.193 0 0 0 .049.006l-.006-.006zM46.439 40.172c-.025.005-.053.008-.078.014.07-.004.14-.006.211-.009 0 0 0-.002-.002-.002-.043-.002-.088-.002-.131-.003z"/><path d="M42.889 40.141l.006.006c.263.029.523.051.785.063.486-.017.973.006 1.459.013.408-.009.814-.022 1.223-.037l.078-.013c-1.184-.039-2.37.015-3.551-.032zM46.572 40.177l.045-.002h-.047c.002 0 .002.002.002.002zM42.805 40.139l.041.004.002-.004h-.043z"/><path d="M45.139 40.223c-.486-.008-.973-.029-1.459-.014.486.023.972.023 1.459.014zM42.859 40.032c.017.002.035-.011.054-.037h-.054v.037z"/><path d="M42.811 39.995c.017.024.033.037.049.037l.002-.037h-.051zM36.3 40.117c-.011.003-.022.001-.034-.001 0 0 0 .003-.002.004-.02.021-.039.034-.061.051h.07l.027-.054z"/><path d="M36.203 40.171c.021-.017.041-.03.061-.051l.002-.002a.25.25 0 0 1-.065-.022c-.646.004-1.293-.013-1.938.014-.584.021-1.176-.11-1.752.084 1.229-.067 2.462-.033 3.692-.023zM36.3 40.117l.005-.01-.031-.004-.008.013a.078.078 0 0 0 .034.001z"/><path d="M36.273 40.104c-.026-.004-.051-.006-.074-.008a.18.18 0 0 0 .066.021c.005-.006.006-.01.008-.013zM36.3 40.117c-.009.019-.017.035-.024.054h.041c-.004-.019-.008-.036-.01-.056l-.007.002zM36.305 40.107l-.005.01.007-.002-.002-.006zM36.273 40.171h-.07l-.008.006.078-.004v-.002z"/><path d="M36.195 40.177l.008-.006c-1.23-.01-2.463-.044-3.693.021 1.228.024 2.457.058 3.685-.015zM36.273 40.173l.043-.002h-.043v.002z"/></g></svg>