<svg xmlns="http://www.w3.org/2000/svg" width="36.793" height="36.793" viewBox="0 0 36.793 36.793"><path fill="#1E100D" d="M35.77 31.54a4.253 4.253 0 0 1-4.253 4.254H5.229A4.254 4.254 0 0 1 .976 31.54V5.255a4.254 4.254 0 0 1 4.253-4.254h26.287a4.253 4.253 0 0 1 4.253 4.254V31.54z"/><linearGradient id="a" gradientUnits="userSpaceOnUse" x1="2.224" y1="2.248" x2="34.525" y2="34.548"><stop offset="0" stop-color="#fff" stop-opacity=".3"/><stop offset="1" stop-color="#ffd820" stop-opacity="0"/></linearGradient><path fill="url(#a)" d="M35.77 31.54a4.253 4.253 0 0 1-4.253 4.254H5.229A4.254 4.254 0 0 1 .976 31.54V5.255a4.254 4.254 0 0 1 4.253-4.254h26.287a4.253 4.253 0 0 1 4.253 4.254V31.54z"/><path fill="none" stroke="#FC3" stroke-width="2" stroke-miterlimit="10" d="M35.77 31.54a4.253 4.253 0 0 1-4.253 4.254H5.229A4.254 4.254 0 0 1 .976 31.54V5.255a4.254 4.254 0 0 1 4.253-4.254h26.287a4.253 4.253 0 0 1 4.253 4.254V31.54z"/><path fill="#FC3" d="M20.115 35.336v-13.42h-4.706v-5.402h4.706v-4.707s.219-5.053 5.271-5.924h5.359v4.705h-3.138s-1.611.174-2.092 1.873v4.053h5.229l-.74 5.402h-4.489v13.42h-5.4z"/></svg>