<svg xmlns="http://www.w3.org/2000/svg" width="57" height="57" viewBox="0 0 57 57"><path fill="#ECCE16" d="M3 3.151h51v51H3z"/><path fill="#1E100D" d="M0 0v57h57V0H0zm54 54H3V3h51v51z"/><g fill="#1E100D"><path d="M28.469 38.797l-.026-.669c.153-.424.289-.847-.085-1.235-.036-.111-.072-.226-.11-.338.303-.375.301-1.31-.003-1.678l-.027-.667c.155-.426.291-.849-.085-1.237-.231-.3-.115-.646-.114-.97.004-.764-.014-1.522-.128-2.28.013-.125.065-.262-.089-.344l-.002-1.331-.005-.119-.014-.222c.008-.125.062-.262-.092-.344-.08-.93.122-1.87-.112-2.793.435-.573.127-1.222.174-1.834.004-.055-.119-.12-.184-.18L27.546 22c.254-.467.078-.971.122-1.456.017-.183.017-.378-.214-.453l-.021-.554c.221-.338.127-.703.091-1.063-.028.018-.058.031-.083.053-.014.01-.018.032-.025.049-.249-.02-.186.187-.213.311-1.523 6.86-3.297 13.661-4.868 20.511-.043.188-.021.422-.263.515-.139-.121-.309-.111-.475-.11l-3.059.018a18.521 18.521 0 0 0-.096-.336c.011-.014.031-.036.028-.043-.017-.024-.04-.045-.061-.067-.906-3.79-1.821-7.577-2.716-11.369-.588-2.485-1.148-4.978-1.721-7.467l-.061-.229c-.045-.222-.092-.443-.138-.665-.116-.421-.09-.877-.312-1.378l-.221 3.169c-.236 5.802-.801 11.581-1.234 17.368-.008.111-.031.223-.047.332-.174.061-.191.209-.2.361-.011.171-.091.298-.27.293-1.11-.03-2.226.135-3.329-.1a66.1 66.1 0 0 1-.008-.453l.047.014c.32-.336.33-.674.002-1.012a.157.157 0 0 1-.006-.107l.115-.119c.327-.334.328-.67.002-1.006a.152.152 0 0 1-.005-.105l.114-.121c.328-.334.328-.668.004-1.006a.134.134 0 0 1-.006-.104l.114-.12c.327-.335.327-.669.003-1.006a.147.147 0 0 1-.006-.105l.115-.121c.328-.334.327-.668.003-1.004a.146.146 0 0 1-.005-.107l.113-.119c.328-.334.328-.67.004-1.006a.137.137 0 0 1-.006-.105l.114-.121c.327-.336.331-.67-.001-1.006a15.443 15.443 0 0 1-.005-.22.618.618 0 0 1 .085-.011c.393-.32.349-.656.036-1.001a.15.15 0 0 1-.006-.106l.114-.119c.328-.334.328-.669.004-1.007a.14.14 0 0 1-.006-.106l.114-.12c.329-.334.328-.669.003-1.005a.152.152 0 0 1-.006-.107l.115-.119c.328-.334.326-.669.004-1.006a.144.144 0 0 1-.007-.106l.114-.12c.329-.334.328-.669.004-1.006a.14.14 0 0 1-.006-.106l.114-.12c.329-.333.327-.668.004-1.005a.15.15 0 0 1-.007-.106l.116-.12c.328-.334.326-.669.004-1.006a.15.15 0 0 1-.008-.106l.115-.119c.329-.334.328-.67.004-1.006a.146.146 0 0 1-.006-.107l.114-.119c.329-.334.327-.669.004-1.006a.152.152 0 0 1-.007-.107l.116-.119c.328-.334.326-.669.004-1.005a.152.152 0 0 1-.008-.107l.115-.119c.33-.334.326-.669.005-1.006a.14.14 0 0 1-.007-.106l.114-.12c.399-.348.187-.745.091-1.133a.215.215 0 0 1 .021-.099c.145-.048.219-.158.2-.299-.077-.594.289-.607.725-.602 1.192.015 2.386.024 3.578-.003.622-.014 1.204-.046 1.318.775.009.059.098.106.149.159.803 2.835 1.479 5.703 2.189 8.561.72 2.895 1.434 5.792 2.045 8.726.207-.132.166-.339.206-.509 1.284-5.428 2.719-10.816 4.092-16.222.018-.07.055-.137.084-.205.164-.185.354-.362.133-.628.021-.105.043-.211.063-.317l.086-.169.023-.164 5.379.003c-.076.382.053.745.105 1.114-.094.083-.086.16.012.234-.113.348.109.661.1.999-.094.081-.086.159.01.232-.08.381.054.742.105 1.11-.01.013-.029.027-.027.038.006.028.021.055.031.082-.076.381.053.743.107 1.112-.096.082-.086.16.01.234-.129.385.161.73.105 1.108-.01.013-.03.028-.027.038.005.029.02.056.031.083l-.006.038c-.004.067-.006.134-.008.2-.103.311.178.569.119.873-.01.013-.029.027-.027.038.006.028.021.055.031.082-.076.382.053.744.106 1.113-.011.012-.029.026-.027.037.005.027.021.055.031.081-.071.382.051.744.104 1.113-.094.079-.094.153.013.223a.14.14 0 0 0 .073-.002.424.424 0 0 0-.076.334c-.133.13-.064.192.076.231.013.371.023.742.035 1.113-.133.129-.063.191.078.23l.117.118a.144.144 0 0 1-.006.108c-.303.15-.24.352-.078.566-.123.314.154.58.104.885-.094.083-.084.16.012.234l.016.926a.322.322 0 0 0 .094.307c-.08.381.053.741.106 1.109-.01.013-.03.027-.028.037.006.029.021.055.032.082l.015.932c-.031.155-.021.301.104.417-.13.386.161.729.105 1.107-.012.013-.031.026-.028.038.006.027.021.056.032.082l-.008.039-.006.199c-.086.272.178.493.112.764-.091.08-.083.158.011.23-.076.381.051.743.105 1.111-.01.013-.029.027-.027.038.006.026.021.054.031.081l.018.025-.01.026-.007.187c-.101.311.164.571.116.875-.094.082-.086.16.01.233l-.008.035-.006.2c-.078.309.213.564.119.873-.011.015-.029.027-.027.039.006.027.021.056.031.082l.018.022-.021.019-.008.197v.41l.006.146.006-.006c-1.149-.004-2.301-.021-3.449-.006-.404.006-.652-.078-.604-.549.018-.178.028-.381-.206-.46zM35.027 21.217l.035-.005.006-.036 3.798-.004.006.037.038.008c.009 3.047.014 6.094.025 9.141.004.873.024 1.746.037 2.617-.037.721.09 1.416.362 2.078.406.98 1.153 1.489 2.215 1.506 1.229.02 2.25-.441 3.048-1.384.241-.149.172-.393.172-.606.002-4.418 0-8.834 0-13.252l.047.012c.971 0 1.94-.002 2.91-.001.773 0 .774.001.774.765.001 4.479-.001 8.956.006 13.436 0 .238-.123.539.203.693l.004.115c-.03.044-.063.088-.093.133.027.106-.053.258.124.305l-.002 1.011c-.13.114-.14.228.006.335l-.004.67c-.134.13-.063.191.075.23l.117.119c-.002.073-.004.146-.004.219-.246.529-.722.451-1.172.447-.535-.006-1.07-.018-1.604.004a1.503 1.503 0 0 1-.89-.227 18.714 18.714 0 0 1-.022-.334c.153-.283.243-.559-.082-.792-.229-.024-.312.181-.442.294-1.4 1.206-3.023 1.744-4.857 1.598-2.061-.164-3.459-1.244-4.229-3.154-.357-.892-.486-1.832-.611-2.774-.008-3.58-.02-7.16-.023-10.74 0-.825.018-1.644.027-2.464z"/><path d="M48.711 36.219c-.326-.154-.203-.453-.203-.693-.007-4.479-.005-8.956-.006-13.435 0-.764-.001-.765-.773-.765-.971-.001-1.94.001-2.912.001l.113-.182 3.674.004c.049.096.099.192.146.288-.008.817-.02 1.636-.021 2.453-.008 4.11-.012 8.219-.018 12.329zM16.299 15.866c-.051-.053-.141-.101-.149-.159-.114-.821-.696-.789-1.318-.775-1.192.027-2.386.018-3.578.003-.436-.006-.802.008-.725.602.019.141-.056.251-.2.299l-.038-.222c.11-.3-.155-.698.247-.919l5.26-.001c.505.245.354.773.501 1.172zM30.6 14.941l-5.378-.003c-.001-.144.115-.185.212-.242l5.032.031-.006-.009.126.099c.004.041.008.082.014.124zM28.469 38.797c.234.079.225.282.207.463-.049.471.199.555.604.549 1.148-.015 2.3.002 3.449.006l-.024.15c-1.338.01-2.677.02-4.015.027-.419-.335-.178-.791-.221-1.195zM45.27 39.581c.272.17.563.239.89.228.534-.021 1.069-.011 1.604-.006.45.006.926.083 1.172-.445.064.217-.045.401-.104.598-1.115.01-2.229.02-3.341.027-.11-.115-.285-.193-.221-.402zM18.537 39.818l3.059-.017c.166-.001.336-.011.475.11a.136.136 0 0 0-.01.059l-3.467-.029-.057-.123zM11.771 39.984c-1.197-.017-2.395-.032-3.592-.051l-.014-.013-.003-.23c1.104.232 2.219.067 3.329.099.179.005.259-.122.27-.293.009-.152.026-.302.2-.361-.006.297.058.607-.19.849zM27.566 22.557c.064.06.188.125.184.18-.047.612.261 1.261-.174 1.834l-.01-2.014zM27.452 20.092c.231.075.231.271.214.453-.044.485.132.989-.122 1.456-.182-.629-.073-1.272-.092-1.909zM28.244 34.877c.305.368.307 1.303.003 1.678l-.003-1.678zM28.132 32.973c.376.389.24.813.085 1.237-.158-.403-.094-.821-.085-1.237zM28.357 36.893c.374.39.238.813.085 1.235-.159-.401-.096-.819-.085-1.235zM10.307 15.934c.096.388.309.785-.091 1.133-.013-.073-.024-.147-.036-.222l.035-.889a4.03 4.03 0 0 0 .092-.022zM9.996 18.525c.322.336.324.671-.004 1.005a14.536 14.536 0 0 1-.037-.221l.041-.784zM8.987 29.613c.313.345.356.681-.036 1.001l-.004-.329.04-.672zM8.539 34.541c.324.337.324.671-.003 1.006-.013-.111-.024-.223-.039-.333l.042-.673zM8.428 35.771c.324.338.324.672-.004 1.006l-.037-.332.041-.674zM9.66 22.221c.322.337.324.672-.004 1.006l-.037-.333.041-.673zM8.314 37.005c.326.336.325.672-.002 1.006-.014-.11-.025-.223-.038-.334.014-.224.028-.448.04-.672zM10.108 17.293c.321.337.325.672-.005 1.006a20.54 20.54 0 0 0-.037-.222c.014-.262.029-.522.042-.784zM9.548 23.453c.323.337.325.672-.004 1.005-.013-.11-.024-.222-.038-.333l.042-.672zM8.871 30.846c.332.334.328.67.001 1.006-.013-.111-.024-.224-.039-.334.014-.225.026-.45.038-.672zM8.764 32.077c.324.336.324.672-.004 1.006l-.037-.334.041-.672zM9.211 27.149c.324.336.325.671-.003 1.005a52.662 52.662 0 0 1-.036-.222l.039-.783zM9.324 25.917c.322.337.324.672-.004 1.006-.014-.111-.025-.223-.037-.334l.041-.672zM9.884 19.757c.323.337.325.672-.004 1.006l-.037-.222.041-.784zM9.436 24.685c.324.337.325.672-.004 1.006l-.037-.333.041-.673zM9.1 28.381c.324.337.324.672-.004 1.006l-.037-.332.041-.674zM8.651 33.311c.324.336.325.67-.003 1.004-.014-.11-.026-.222-.037-.332l.04-.672zM9.771 20.989c.324.336.325.672-.004 1.006l-.037-.222.041-.784zM8.203 38.236c.328.339.318.677-.002 1.013l-.005-.563.008-.108-.001-.342zM45.164 38.455c.324.232.236.509.082.792a2.353 2.353 0 0 1-.082-.792zM27.414 18.577c.008-.017.012-.039.025-.049.025-.021.055-.035.083-.053.036.359.13.725-.091 1.063-.044-.32-.085-.64-.017-.961zM31.721 27.827c-.162-.215-.225-.416.078-.566-.007.191.107.4-.078.566zM25.049 15.589c.221.266.03.443-.133.628l.133-.628zM32.173 32.756c-.123-.117-.134-.262-.104-.417.185.1.107.268.104.417zM31.945 30.178a.32.32 0 0 1-.094-.306c.161.064.102.191.094.306zM30.826 17.521c-.096-.073-.104-.151-.012-.232l.012.232zM31.836 28.946c-.096-.074-.105-.151-.011-.234l.011.234zM31.053 20.099c-.096-.074-.105-.152-.01-.234l.01.234zM32.619 37.794c-.096-.073-.104-.151-.01-.233.002.078.006.155.01.233zM30.717 16.29c-.097-.074-.105-.151-.012-.234l.012.234zM31.5 25.127c-.105-.069-.105-.144-.012-.223l.012.223zM32.393 35.217c-.094-.072-.102-.15-.011-.23l.011.23zM32.605 38.029l.006-.2c.086.069.116.139-.006.2zM32.057 31.407c-.012-.027-.027-.054-.033-.082-.002-.011.019-.024.029-.037 0 .04.002.08.004.119zM25.197 15.103l-.086.169.086-.169zM30.936 18.752c-.011-.027-.024-.054-.031-.082-.002-.011.019-.025.027-.038.002.04.004.08.004.12zM32.729 39.023c-.011-.026-.024-.055-.031-.082-.002-.012.019-.024.027-.039.002.041.004.08.004.121zM32.717 39.264l.008-.197c.086.067.113.133-.008.197zM31.162 21.328c-.012-.027-.025-.054-.031-.083-.003-.01.018-.025.027-.038l.004.121zM18.409 39.373c.021.021.044.043.061.068.003.006-.018.027-.028.041l-.033-.109zM31.148 21.566c.002-.066.004-.133.008-.2.086.07.114.137-.008.2zM32.723 39.818l-.006-.146c.101.047.115.096.006.146zM32.493 36.686l.007-.187c.096.065.107.129-.007.187zM32.282 33.984c-.011-.027-.026-.055-.032-.084-.002-.01.018-.024.027-.037l.005.121zM31.271 22.56c-.012-.027-.025-.054-.031-.082-.002-.011.019-.025.027-.038.003.039.004.08.004.12zM32.27 34.223l.006-.199c.085.068.115.135-.006.199zM31.383 23.791c-.012-.026-.025-.054-.031-.081-.002-.011.019-.025.027-.037l.004.118zM32.501 36.447c-.01-.027-.024-.055-.03-.081-.003-.011.018-.025.026-.038.003.04.004.079.004.119zM31.609 26.804c.115.047.096.139.076.23-.138-.039-.208-.101-.076-.23zM31.498 25.459c.115.048.096.14.077.231-.141-.039-.21-.101-.077-.231zM48.746 38.787c.113.048.096.14.076.23-.14-.038-.209-.1-.076-.23zM48.744 37.782c.002.11.003.224.006.335-.145-.108-.137-.221-.006-.335zM48.732 36.445l-.11.021c.03-.045.062-.089.093-.133l.017.112z"/></g></svg>