<svg xmlns="http://www.w3.org/2000/svg" width="52" height="52" viewBox="193.667 0 52 52"><path fill="#FFE120" d="M199.292 4.147h41.535v28.581h-41.535z"/><linearGradient id="a" gradientUnits="userSpaceOnUse" x1="220.56" y1="4.397" x2="220.56" y2="32.979"><stop offset="0" stop-color="#fff" stop-opacity=".8"/><stop offset=".006" stop-color="#fff" stop-opacity=".795"/><stop offset="1" stop-color="#fff" stop-opacity="0"/></linearGradient><path opacity=".6" fill="url(#a)" d="M199.792 4.397h41.535v28.581h-41.535z"/><g><path fill="#1D1210" d="M227.528 17.131l-10.372-5.895c-.004-.003-.011-.005-.016-.007a1.254 1.254 0 0 0-.553-.118c-.194 0-.405.036-.607.102l-.037.016c-.336.168-.631.62-.631.965v11.93c0 .484.205.805.61.961.184.151.379.151.62.151.24 0 .452 0 .643-.17l10.36-6.004c.332-.172.622-.618.622-.961.001-.369-.197-.807-.639-.97z"/><path fill="#1D1210" d="M238.516.377h-36.621a3.198 3.198 0 0 0-3.198 3.193v29.536a3.198 3.198 0 0 0 3.198 3.191h36.621a3.196 3.196 0 0 0 3.193-3.191V3.57a3.197 3.197 0 0 0-3.193-3.193zm1.932 31.041h-40.255V5.583h-.526v-3.43h38.977-36.643c-.705.004-1.407.594-1.407 1.417v1.613h39.854v26.235z"/><path fill="#1D1210" d="M238.636 2.152H202.01l-.009.001h36.643zM200.594 5.183V3.57c0-.823.702-1.413 1.407-1.417h-2.334v3.43h.526v-.4h.401z"/><radialGradient id="b" cx="692.689" cy="6008.99" r="17.061" gradientTransform="matrix(1.1083 0 0 .1273 -548.19 -715.148)" gradientUnits="userSpaceOnUse"><stop offset="0" stop-color="#e6c816"/><stop offset=".417" stop-color="#edcf19" stop-opacity=".584"/><stop offset="1" stop-color="#ffe121" stop-opacity=".003"/></radialGradient><ellipse fill="url(#b)" cx="219.517" cy="49.797" rx="18.633" ry="2.203"/><path fill="#1D1210" d="M199.5 1.688h4.063v3.469H199.5z"/><path fill="#1D1210" d="M199.406 4.313h.688v1.938h-.688z"/></g></svg>