<svg xmlns="http://www.w3.org/2000/svg" width="36.794" height="36.794" viewBox="0 0 36.794 36.794"><path fill="#FFD820" stroke="#1E100D" stroke-width="2" stroke-miterlimit="10" d="M35.794 31.539a4.254 4.254 0 0 1-4.254 4.255H5.254A4.255 4.255 0 0 1 1 31.539V5.253A4.254 4.254 0 0 1 5.254 1H31.54a4.253 4.253 0 0 1 4.254 4.253v26.286z"/><linearGradient id="a" gradientUnits="userSpaceOnUse" x1="2.246" y1="2.245" x2="34.549" y2="34.548"><stop offset="0" stop-color="#fff" stop-opacity=".3"/><stop offset="1" stop-color="#ffd820" stop-opacity="0"/></linearGradient><path fill="url(#a)" d="M35.794 31.539a4.254 4.254 0 0 1-4.254 4.255H5.254A4.255 4.255 0 0 1 1 31.539V5.253A4.254 4.254 0 0 1 5.254 1H31.54a4.253 4.253 0 0 1 4.254 4.253v26.286z"/><path fill="none" stroke="#1E100D" stroke-width="2" stroke-miterlimit="10" d="M35.794 31.539a4.254 4.254 0 0 1-4.254 4.255H5.254A4.255 4.255 0 0 1 1 31.539V5.253A4.254 4.254 0 0 1 5.254 1H31.54a4.253 4.253 0 0 1 4.254 4.253v26.286z"/><g><path d="M29.026 17.352c-.429-1.209-1.197-2.113-2.414-2.576a6.533 6.533 0 0 0-3.493-.318c-1.385.242-2.486.938-3.229 2.154-.025.037-.04.102-.096.084-.068-.02-.039-.09-.041-.137-.001-.539-.009-1.078.004-1.617.005-.188-.052-.232-.233-.23-1.283.006-2.568.008-3.853-.002-.193-.002-.242.049-.242.242.007 2.342.005 4.686.005 7.027 0 2.35.002 4.697-.004 7.049-.001.178.04.234.228.232 1.343-.008 2.688-.008 4.033 0 .188.002.244-.039.243-.238-.007-2.336-.008-4.672-.002-7.008.001-.693.047-1.383.272-2.047.261-.768.745-1.309 1.546-1.533.375-.105.76-.127 1.147-.104.946.057 1.556.527 1.864 1.426.196.574.249 1.172.252 1.77.008 2.496.007 4.992 0 7.486-.002.209.06.25.255.248 1.356-.008 2.714-.008 4.072-.002.161.002.214-.031.213-.203-.007-2.75 0-5.498-.013-8.246-.005-1.174-.116-2.338-.514-3.457zM12.581 22.006c0-2.357-.003-4.713.001-7.068.001-.166-.027-.23-.214-.229-1.364.01-2.728.008-4.093.002-.152 0-.204.031-.204.195.005 4.719.005 9.439 0 14.158 0 .164.054.193.204.193 1.357-.004 2.716-.006 4.073.004.201 0 .235-.063.235-.246-.005-2.337-.002-4.673-.002-7.009zM10.329 7.477a2.628 2.628 0 0 0-2.612 2.625 2.632 2.632 0 0 0 2.625 2.633 2.648 2.648 0 0 0 2.629-2.637c-.002-1.436-1.203-2.625-2.642-2.621z"/></g></svg>