<svg xmlns="http://www.w3.org/2000/svg" width="36.793" height="36.793" viewBox="53.895 3.001 36.793 36.793"><path fill="#1E100D" d="M89.688 34.54a4.253 4.253 0 0 1-4.252 4.254H59.149a4.254 4.254 0 0 1-4.254-4.254V8.255a4.254 4.254 0 0 1 4.254-4.254h26.287a4.253 4.253 0 0 1 4.252 4.254V34.54z"/><linearGradient id="a" gradientUnits="userSpaceOnUse" x1="56.142" y1="5.248" x2="88.443" y2="37.549"><stop offset="0" stop-color="#fff" stop-opacity=".3"/><stop offset="1" stop-color="#ffd820" stop-opacity="0"/></linearGradient><path fill="url(#a)" d="M89.688 34.54a4.253 4.253 0 0 1-4.252 4.254H59.149a4.254 4.254 0 0 1-4.254-4.254V8.255a4.254 4.254 0 0 1 4.254-4.254h26.287a4.253 4.253 0 0 1 4.252 4.254V34.54z"/><path fill="none" stroke="#FC3" stroke-width="2" stroke-miterlimit="10" d="M89.688 34.54a4.253 4.253 0 0 1-4.252 4.254H59.149a4.254 4.254 0 0 1-4.254-4.254V8.255a4.254 4.254 0 0 1 4.254-4.254h26.287a4.253 4.253 0 0 1 4.252 4.254V34.54z"/><g fill="#FC3"><path d="M69.999 20.492l.455-.322c1.512-1.053 1.77-2.543 1.49-4.23-.277-1.648-1.332-2.53-2.875-2.899a7.785 7.785 0 0 0-1.713-.208c-2.391-.022-4.781.006-7.17-.022-.539-.007-.689.142-.688.683.02 5.166.02 10.331.001 15.497-.003.527.127.699.679.692 2.416-.031 4.836-.016 7.254-.016.664 0 1.311-.121 1.943-.317 1.963-.603 3.197-2.02 3.35-3.845.213-2.535-.525-3.93-2.726-5.013zm-5.25-4.797c.77.001 1.539-.05 2.303.08 1.099.186 1.6.795 1.578 1.937-.023 1.106-.718 1.772-1.798 1.866-.6.053-.935.01-1.935.01v-.037s-1.462.266-1.864-.068c-.479-.399-.089-1.337-.101-2.038-.021-1.752.057-1.757 1.817-1.75zm2.74 11.015c-1.334.219-2.682.055-4.023.106-.354.013-.484-.129-.48-.48.014-1.234.016-2.469 0-3.702-.004-.382-.062-.46.261-.454.633.01 1.651.003 1.651.003v.036c1 0 1.562-.051 2.214.012 1.229.116 1.995.881 2.034 2.154.04 1.39-.382 2.115-1.657 2.325zM80.516 17.172c-2.359-.383-4.771.773-5.873 2.928-1.201 2.355-1.193 4.777.041 7.115 1.055 1.999 2.867 2.791 5.063 2.769 2.037-.018 3.688-.76 4.694-2.633.796-1.477.794-1.478-.884-1.478-.109 0-.223.01-.33-.002-.58-.063-.963.106-1.355.623-.787 1.029-1.931 1.187-3.133.834-1.127-.33-1.539-1.229-1.729-2.29-.086-.484.03-.932.58-.913 1.182.044 2.363-.229 3.543-.229h2.063c2.301 0 2.301.243 1.898-2.097-.461-2.659-2.172-4.237-4.578-4.627zm.979 5.087c-.659-.042-1.32-.01-1.98-.01s-1.322-.021-1.98.007c-.438.018-.588-.104-.494-.562.244-1.207 1.266-2.04 2.547-2.033 1.275.007 2.113.712 2.383 1.965.09.429.067.667-.476.633zM76.333 14.891c-.053.363-.117.774.523.742.873-.044 1.75-.012 2.627-.012.904 0 1.811-.031 2.711.012.619.03.602-.347.545-.732-.053-.359.303-.949-.494-.945-1.807.01-3.615.014-5.424-.002-.809-.009-.44.584-.488.937z"/></g></svg>