<svg xmlns="http://www.w3.org/2000/svg" width="57" height="57" viewBox="0 0 57 57"><path fill="none" d="M22.687 14.449c-2.818-.32-5.694-.131-8.545-.148-.112 0-.25.197-.328.328-.049.084-.011.219-.011.332 0 8.002.005 16.006-.011 24.01-.001.535.14.719.686.693a35.816 35.816 0 0 1 2.742-.004c.451.014.713-.111.703-.594-.031-1.378.077-2.759.077-4.14v-3.387s.808.02 1.213-.004c1.06-.061 2.094-.035 3.129-.232 3.396-.645 5.806-2.496 6.636-5.965.301-1.264.347-2.637.24-3.938-.322-3.906-2.646-6.507-6.531-6.951zM41.334 29.426c-.831-.496-1.717-.9-2.564-1.369-.685-.377-1.375-.752-2.014-1.197-.543-.377-.668-.975-.531-1.604s.562-1.012 1.17-1.152a4.535 4.535 0 0 1 1.162-.107c1.469.055 2.813.531 4.078 1.258.166.094.342.172.6.303.016-.293.033-.473.033-.654.002-.857-.029-1.717.012-2.574.027-.531-.188-.828-.643-1.047-1.951-.936-3.988-1.107-6.059-.594-2.141.531-3.551 1.895-3.971 4.092-.43 2.256-.027 4.307 1.955 5.742.828.598 1.756 1.055 2.646 1.559.632.359 1.303.652 1.914 1.043.96.611 1.255 1.34.984 2.211-.244.781-.991 1.223-2.062 1.215-.093-.002-.187-.01-.28-.016-1.69-.107-3.17-.787-4.565-1.691-.216-.139-.429-.283-.753-.496-.025.301-.051.461-.053.621-.002.988.018 1.979-.01 2.967-.011.41.145.656.487.854 2.297 1.315 4.735 1.678 7.287.983 1.747-.473 3.026-1.573 3.573-3.325.984-3.145.191-5.475-2.396-7.022z"/><path fill="#1E100D" d="M0 0v57h57V0H0zm54 54H3V3h51v51z"/><path fill="#ECCE16" d="M3 3h51v51H3z"/><path fill="#1E100D" d="M18.125 31.451v3.386c0 1.381-.02 2.763.01 4.142.01.481-.164.607-.614.595a36.308 36.308 0 0 0-2.741.003c-.546.025-.688-.158-.687-.693.016-8.003.011-16.007.011-24.01 0-.112-.038-.247.011-.331.079-.132.216-.328.328-.328 2.851.018 5.727-.173 8.545.148 3.885.442 6.198 3.044 6.52 6.951.107 1.301.051 2.674-.251 3.937-.83 3.469-3.261 5.32-6.658 5.966-1.035.196-2.113.171-3.173.232-.405.022-.813.002-1.301.002zm.029-3.779c1.176 0 2.338.115 3.468-.024 2.194-.272 3.566-1.687 3.867-3.872a8.58 8.58 0 0 0 .008-2.172c-.179-1.475-.869-2.653-2.267-3.303-1.633-.76-3.353-.472-5.076-.449v9.82zM32.75 34.257c.324.214.537.357.752.497 1.396.904 2.875 1.583 4.566 1.689.093.007.187.016.279.017 1.07.009 1.817-.433 2.062-1.214.271-.871-.022-1.6-.983-2.212-.611-.39-1.283-.685-1.914-1.042-.892-.506-1.82-.963-2.646-1.561-1.983-1.435-2.387-3.486-1.955-5.741.42-2.197 1.83-3.561 3.97-4.093 2.07-.514 4.108-.341 6.06.595.455.218.668.515.642 1.047-.042.856-.009 1.717-.013 2.574 0 .181-.018.36-.032.653-.259-.13-.435-.208-.601-.303-1.265-.726-2.608-1.202-4.078-1.257a4.535 4.535 0 0 0-1.162.107c-.608.14-1.033.523-1.17 1.151-.137.63-.012 1.228.531 1.604.641.444 1.33.819 2.014 1.197.848.469 1.734.873 2.564 1.369 2.588 1.546 3.381 3.876 2.399 7.019-.548 1.754-1.828 2.854-3.574 3.328-2.551.691-4.989.33-7.287-.986-.342-.195-.498-.441-.487-.854.027-.988.008-1.979.012-2.967 0-.156.026-.315.051-.617z"/><path fill="#FFD820" d="M18.154 27.672v-9.82c1.724-.022 3.443-.311 5.076.449 1.398.649 2.088 1.828 2.267 3.303a8.58 8.58 0 0 1-.008 2.172c-.301 2.186-1.672 3.6-3.867 3.872-1.13.139-2.291.024-3.468.024z"/></svg>