<svg xmlns="http://www.w3.org/2000/svg" width="36.793" height="36.792" viewBox="43.625 0 36.793 36.792"><path fill="#1E100D" d="M79.418 31.539a4.253 4.253 0 0 1-4.254 4.254H48.877a4.253 4.253 0 0 1-4.252-4.254V5.254A4.253 4.253 0 0 1 48.877 1h26.287a4.253 4.253 0 0 1 4.254 4.254v26.285z"/><linearGradient id="a" gradientUnits="userSpaceOnUse" x1="45.871" y1="2.245" x2="78.172" y2="34.547"><stop offset="0" stop-color="#fff" stop-opacity=".3"/><stop offset="1" stop-color="#ffd820" stop-opacity="0"/></linearGradient><path fill="url(#a)" d="M79.418 31.539a4.253 4.253 0 0 1-4.254 4.254H48.877a4.253 4.253 0 0 1-4.252-4.254V5.254A4.253 4.253 0 0 1 48.877 1h26.287a4.253 4.253 0 0 1 4.254 4.254v26.285z"/><path fill="none" stroke="#FC3" stroke-width="2" stroke-miterlimit="10" d="M79.418 31.539a4.253 4.253 0 0 1-4.254 4.254H48.877a4.253 4.253 0 0 1-4.252-4.254V5.254A4.253 4.253 0 0 1 48.877 1h26.287a4.253 4.253 0 0 1 4.254 4.254v26.285z"/><path fill="#FC3" d="M72.754 11.783c-.022-.002-.043-.006-.064-.01-.043.017-.088.017-.127-.02-.021-.021.014-.055.051-.063.035-.108.139-.151.223-.211a5.497 5.497 0 0 0 1.977-2.576c.005-.014.005-.026-.002-.057-.098-.005-.168.058-.247.102-.917.509-1.894.854-2.911 1.093-.199.047-.344 0-.49-.144-1.191-1.174-2.645-1.666-4.293-1.552-2.398.164-4.443 1.951-4.97 4.294a5.914 5.914 0 0 0-.048 2.211c.048.311-.004.362-.317.338a16.34 16.34 0 0 1-3.825-.743 15.983 15.983 0 0 1-5.041-2.721 15.584 15.584 0 0 1-2.162-2.089c-.197-.229-.23-.229-.357.052-.307.68-.5 1.386-.539 2.143-.059 1.236.246 2.363.936 3.383.34.503.734.958 1.238 1.31.025.016.049.031.07.051.049.045.125.084.109.152-.023.09-.115.076-.186.076-.373.002-.734-.086-1.094-.178a5.843 5.843 0 0 1-.979-.373c-.104-.047-.156-.051-.152.096a5.396 5.396 0 0 0 .998 2.979 5.442 5.442 0 0 0 3.074 2.17c.098.029.266.016.266.141-.004.143-.174.127-.282.146-.601.111-1.208.15-1.817.063-.213-.029-.248.012-.166.207.508 1.232 1.32 2.195 2.502 2.838a6 6 0 0 0 1.936.645c.137.021.275.018.412.027.058.004.129 0 .154.063.029.07-.025.125-.074.166a6.482 6.482 0 0 1-.616.451 11.7 11.7 0 0 1-2.438 1.207 8.28 8.28 0 0 1-1.387.383c-.082.014-.163.025-.24-.008-.039.098-.14.098-.225.113-.898.172-1.807.168-2.715.135a1.5 1.5 0 0 0-.307-.049l-.018.006.005.002c.604.369 1.226.703 1.869.992.812.365 1.649.652 2.51.877.664.172 1.333.311 2.013.389 1.041.123 2.086.148 3.135.086a16.508 16.508 0 0 0 2.031-.258 15.07 15.07 0 0 0 4.775-1.74 14.81 14.81 0 0 0 3.391-2.652 16.372 16.372 0 0 0 2.359-3.18 16.496 16.496 0 0 0 1.756-4.475c.193-.818.328-1.65.381-2.499.029-.507.027-1.017.029-1.526a.526.526 0 0 1 .227-.463c.904-.665 1.668-1.47 2.328-2.375.047-.066.092-.137.152-.191-.727.315-1.484.528-2.256.697-.185.04-.374.055-.562.069z"/></svg>