<svg xmlns="http://www.w3.org/2000/svg" width="355" height="151" viewBox="0 0 355 151"><path fill="#1E100D" d="M327.498 149.011v0zM324.783 148.654v0zM327.592 34.956a9.824 9.824 0 0 1 2.479 1.624 8.722 8.722 0 0 0-2.479-1.624zM248.793 33.236c1.896 2.019 3.379 4.356 4.45 7.017 1.068 2.662 1.605 5.55 1.605 8.668 0 3.061-.491 5.92-1.464 8.58-.981 2.662-2.358 5.001-4.132 7.021-1.773 2.017-3.945 3.606-6.511 4.768-2.572 1.162-5.418 1.744-8.533 1.744-2.88 0-5.553-.582-8.03-1.744a21.315 21.315 0 0 1-6.559-4.768c-1.897-2.02-3.381-4.359-4.451-7.021-1.069-2.659-1.604-5.519-1.604-8.58 0-3.119.488-6.007 1.467-8.668.979-2.661 2.356-4.998 4.129-7.017 1.773-1.955 3.947-3.531 6.514-4.726 2.571-1.193 5.414-1.79 8.535-1.79 2.873 0 5.562.596 8.072 1.79 2.505 1.195 4.678 2.771 6.512 4.726zm-15.781 29.815c.797.063 1.744-.044 2.847-.319 1.101-.276 2.187-.888 3.256-1.836 1.07-.949 2.019-2.324 2.846-4.129.823-1.802 1.389-4.174 1.697-7.107.242-2.939.104-5.369-.415-7.296-.519-1.924-1.223-3.438-2.109-4.54-.889-1.102-1.851-1.881-2.89-2.34-1.038-.461-1.958-.719-2.753-.777-.795-.064-1.759.042-2.89.316-1.13.276-2.218.874-3.256 1.79-1.041.92-1.99 2.279-2.843 4.085-.858 1.804-1.41 4.172-1.654 7.111-.308 2.933-.198 5.364.323 7.292.519 1.925 1.222 3.457 2.106 4.586.89 1.131 1.866 1.925 2.939 2.386 1.069.459 2.004.718 2.796.778zM301.807 102.528c1.896 2.019 3.376 4.359 4.448 7.02 1.069 2.657 1.604 5.546 1.604 8.667 0 3.061-.492 5.919-1.464 8.575-.983 2.662-2.356 5.002-4.131 7.023-1.775 2.018-3.942 3.607-6.515 4.771-2.566 1.157-5.413 1.74-8.529 1.74-2.879 0-5.552-.583-8.028-1.74a21.438 21.438 0 0 1-6.562-4.771c-1.896-2.021-3.382-4.361-4.449-7.023-1.069-2.656-1.604-5.515-1.604-8.575 0-3.121.485-6.01 1.466-8.667.975-2.661 2.354-5.001 4.128-7.02 1.774-1.956 3.946-3.532 6.516-4.726 2.568-1.191 5.411-1.788 8.533-1.788 2.872 0 5.563.596 8.072 1.788 2.509 1.194 4.68 2.77 6.515 4.726zm-15.784 29.816c.797.06 1.746-.045 2.848-.321 1.102-.274 2.187-.886 3.255-1.833 1.069-.95 2.02-2.323 2.846-4.127.824-1.808 1.39-4.177 1.694-7.111.246-2.939.107-5.367-.41-7.298-.522-1.925-1.224-3.437-2.11-4.54-.888-1.101-1.849-1.881-2.892-2.337-1.04-.459-1.954-.721-2.75-.779-.797-.063-1.758.044-2.891.32-1.131.275-2.217.869-3.258 1.789-1.04.917-1.988 2.28-2.843 4.082-.856 1.806-1.407 4.172-1.651 7.112-.308 2.932-.2 5.362.32 7.291.52 1.927 1.224 3.455 2.11 4.588.889 1.131 1.864 1.924 2.936 2.383 1.072.459 2.001.721 2.796.781zM313.347 83.54c1.588-2.932 5.357-2.543 5.357-2.543.918.184 1.715.552 2.389 1.102a5.503 5.503 0 0 1 1.658 2.249c.36.948.644 2.152.644 3.622v12.752c.461-.673 1.522-1.347 2.565-2.019a31.616 31.616 0 0 1 3.023-1.513c1.198-.518 2.532-.836 4.06-.962 2.385-.185 4.805.109 7.283.872 2.479.764 4.686 2.05 6.646 3.852 1.954 1.805 3.557 4.159 4.813 7.062 1.252 2.908 1.875 6.381 1.875 10.415 0 4.038-.592 7.461-1.784 10.275-1.197 2.812-2.758 5.09-4.682 6.834a17.831 17.831 0 0 1-6.605 3.809 24.636 24.636 0 0 1-15.137 0 17.826 17.826 0 0 1-6.607-3.809c-1.924-1.744-3.49-4.022-4.686-6.834-1.191-2.814-1.796-6.237-1.796-10.275V89.245c-.001 0 .012-3.904.984-5.705zm29.121 35.348c.123-2.569-.032-4.757-.459-6.562-.429-1.802-1.053-3.286-1.88-4.448-.824-1.163-1.803-2.032-2.934-2.614-1.134-.58-2.281-.904-3.441-.963-1.164-.063-2.323.137-3.488.596-1.16.458-2.218 1.223-3.164 2.292-.951 1.071-1.74 2.478-2.387 4.22-.641 1.744-1.021 3.903-1.143 6.469-.124 2.568.042 4.771.502 6.606.459 1.832 1.101 3.335 1.93 4.495.82 1.163 1.789 2.02 2.889 2.568 1.102.552 2.234.856 3.393.918s2.326-.121 3.488-.546c1.16-.429 2.213-1.181 3.163-2.253.945-1.068 1.741-2.493 2.388-4.264.642-1.775 1.02-3.947 1.143-6.514zM241.261 146.832h0zM208.42 14.572c-.365-.948-.557-1.697-1.259-2.247a5.471 5.471 0 0 0-2.365-1.102s-6.089-1.179-6.651 5.419l1.289 36.767c0 1.588-.741 3.852-1.323 4.983-.58 1.133-1.569 2.031-2.977 2.763-1.408.736-3.271 1.063-5.594 1.399-2.326.338-5.69.229-9.175.229h-2.821c-.446 0-2.093.358-2.146 2.465 0 .464.081.809.189 1.186a6.611 6.611 0 0 0 1.783 2.644c.883.797 2.293 1.333 4.253 1.577 3.241.368 6.487.423 9.789.146 3.302-.276 6.231-.986 8.891-2.15 2.661-1.162 4.462-2.843 6.145-5.043 1.684-2.2 2.05-5.012 2.05-8.438V18.196c0-1.467.294-2.675-.078-3.624zM297.998 38.241c-1.258-2.903-2.627-5.258-4.617-7.063-1.986-1.805-4.141-3.086-6.586-3.854-2.447-.766-4.835-1.055-7.223-.872-1.594.124-2.983.443-4.174.965-1.19.52-2.5 1.027-3.354 1.512-.981.672-1.962 1.347-2.88 2.019V18.196c0-1.468.132-2.676-.23-3.624 0 0-1.271-3.008-4.288-3.181-3.013-.171-5.056 2.211-5.585 4.22-.526 2.012-.265 6.988-.265 6.988l1.317 41.099c0 1.468.265 2.673.632 3.62a5.24 5.24 0 0 0 1.683 2.239c.705.551 1.518.761 2.436.942.916.181 1.47.099 2.569.099h.413c1.516 0 1.318-.866 1.318-2.031V48.105c0-2.63.624-4.831 1.233-6.604a11.862 11.862 0 0 1 2.575-4.22 8.393 8.393 0 0 1 3.415-2.203 10.668 10.668 0 0 1 3.933-.552c1.286.061 2.494.323 3.594.781 1.101.457 2.076 1.239 2.902 2.338.826 1.101 1.213 2.583 1.672 4.451.459 1.867.438 4.204.438 7.016v14.591c0 1.467.438 2.667.804 3.614.365.948 1.025 1.688 1.729 2.239s1.583.761 2.501.942c.913.181 1.989.099 3.089.099h2.447V48.654c-.001-4.036-.249-7.506-1.498-10.413zM218.699 132.323c.202.211.397.421.589.635a8.802 8.802 0 0 0-.589-.635zM218.699 132.323v-.009z"/><g fill="#1E100D"><path d="M181.555 140.232h.023-.023zM212.344 135.634c-.193-.209-.392-.427-.598-.642v-.003c-.12-.128-.238-.257-.361-.391a1383.889 1383.889 0 0 0-3.375-3.647 438.362 438.362 0 0 1-3.418-3.736c-1.127-1.25-2.314-2.376-3.328-3.604-2.346-2.847-5.014-6.789-7.568-9.588l16.783-15.026c3.598-3.222.138-4.204-.463-4.349a11.634 11.634 0 0 0-.912-.132c-1.457-.123-3.188.09-5.195.634-2.007.548-4.195 1.886-6.563 4.013-.488.428-1.22 1.066-2.188 1.918-.976.85-2.069 1.79-3.285 2.822-1.217 1.035-2.726 2.099-4.002 3.193s-2.812 2.096-3.733 3.007V87.856c0-1.458.085-2.659-.276-3.6-.366-.942-.768-1.689-1.467-2.237s-1.438-.91-2.348-1.091c-.34-.07-.66-.121-1.024-.163-.401.004-4.2.189-4.985 5.194l1.247 47.13c0 1.463.184 2.662.549 3.604.364.938.79 1.683 1.49 2.229.296.23.382.423.844.588v.008c0 .018.177.033.213.05.057.023.168.052.226.077.108.043.248.086.366.124.164.061.347.108.521.157.094.024.192.048.288.068.021.003.043.012.064.016.027.008.064.012.093.017.685.148 1.42.048 2.112.1.258.03.507-.132.807-.132h.269c.993 0 1.012.374 1.012.374V118.959c.922 1.035 2.061 2.131 3.094 3.282 1.034 1.156 2.17 2.311 3.14 3.467.975 1.156 1.97 2.235 2.853 3.237.878 1.002 1.626 1.868 2.173 2.598a79.462 79.462 0 0 0 2.844 3.375c.973 1.095 2 2.085 3.064 2.963a14.978 14.978 0 0 0 3.285 2.098 8.328 8.328 0 0 0 3.512.772c1.478 0 2.667-.16 3.568-.47 1.038-.383 3.268-1.619.672-4.647z"/></g><path fill="#1E100D" d="M141.936 65.244c.354 0 .714-.032 1.073-.099 3.172-.589 3.178-3.637 2.589-6.809-2.67-14.375-7.49-27.47-17.882-37.863-10.39-10.394-26.673-16.897-37.856-18.732-6.013-.984-9.547 1.519-11.398 5.092-3.395 6.545 2.482 16.493 9.259 15.153 24.519-4.855 45.186 14.032 49.729 38.485.526 2.81 1.728 4.773 4.486 4.773zM6.349 65.244c-.356 0-.715-.032-1.074-.099-3.174-.589-3.177-3.637-2.59-6.809 2.675-14.375 7.49-27.47 17.882-37.863C30.956 10.079 47.239 3.576 58.423 1.741c6.014-.984 9.545 1.519 11.4 5.092 3.392 6.545-2.483 16.493-9.262 15.153-24.519-4.855-45.185 14.032-49.73 38.485-.523 2.81-1.724 4.773-4.482 4.773zM142.078 76.088c-3.21-.593-4.628 1.496-5.227 4.668-3.952 20.88-19.008 37.633-38.768 45.642-7.914 2.83-15.831-2.292-17.16-10.076-1.193-4.473.388-15.338.388-15.338.853-4.775-1.72-9.366-6.87-9.434-.137 0-.274.008-.41.022 0-.014-.281-.022-.416-.022-5.15.068-7.727 4.659-6.873 9.434 0 0 1.581 10.866.387 15.338-1.326 7.784-9.243 12.906-17.157 10.076-19.762-8.009-34.816-24.762-38.77-45.642-.601-3.172-2.018-5.261-5.228-4.668-3.205.596-3.647 3.795-3.047 6.966 6.471 34.173 35.865 67.052 71.09 67.052h.019c35.223 0 64.619-32.879 71.094-67.052.599-3.171.153-6.37-3.052-6.966zM241.373 146.832h0zM218.812 131.961c.197.21.396.425.587.637a9.22 9.22 0 0 0-.587-.637zM218.812 131.961l-.003-.005zM341.34 32.642c-3.768-4.115-8.142-6.164-15.204-6.164h-.854c-7.059 0-11.455 2.049-15.222 6.164-3.762 4.116-5.967 9.725-5.967 16.845V70.598h3.323c1.1 0 2.131.083 3.049-.099.915-.182 1.747-.445 2.448-.992.705-.554 1.015-1.267 1.382-2.215.369-.948.364-2.121.364-3.588V49.718c0-2.917.601-5.369 1.182-7.354.58-1.983 1.563-3.547 2.643-4.713 1.08-1.168 2.453-1.979 3.977-2.44h.043c1.024-.459 2.12-.59 3.264-.59 1.479 0 2.892.3 4.155.882a8.817 8.817 0 0 1 2.517 1.635 10.117 10.117 0 0 1 3.041 4.957c.026.087.058.168.078.258.59 1.986 1.165 4.45 1.165 7.367v13.986c0 1.467.016 2.628.381 3.574.367.95.695 1.651 1.399 2.201.704.552 1.534.839 2.452 1.021.918.181 1.946.099 3.045.099h3.292V49.487c0-7.12-2.186-12.729-5.953-16.845z"/><path fill="#1E100D" d="M255.397 102.5c-3.767-4.115-8.146-6.164-15.207-6.164h-.849c-7.063 0-11.46 2.049-15.223 6.164-3.766 4.114-5.972 9.724-5.972 16.844v21.113h3.323c1.1 0 2.132.085 3.05-.101.915-.182 1.747-.443 2.447-.995.707-.552 1.02-1.264 1.385-2.213.368-.948.368-2.119.368-3.589v-13.985c0-2.916.591-5.367 1.175-7.351a11.768 11.768 0 0 1 2.649-4.719c1.078-1.162 2.45-1.979 3.971-2.438h.046c1.021-.461 2.118-.589 3.26-.589 1.482 0 2.889.3 4.158.88.924.4 1.777.946 2.517 1.634a10.05 10.05 0 0 1 3.037 4.959c.029.085.06.168.085.256.587 1.984 1.163 4.452 1.163 7.368v13.985c0 1.47.016 2.629.383 3.58.365.945.691 1.646 1.396 2.198.703.551 1.532.837 2.451 1.019.919.186 1.945.101 3.048.101h3.288v-21.113c.002-7.119-2.183-12.73-5.949-16.844zM331.574 36.926c.164.154.33.31.478.475 1.031 1.107 1.957 2.606 2.546 4.457a10.06 10.06 0 0 0-3.024-4.932z"/></svg>